# Blender v3.1.0 Alpha OBJ File: 'BF_Faired_Parts.blend'
# www.blender.org
o BF_Corner_Bottom
v -0.450000 -0.500000 -0.450000
v 0.000000 -0.500000 -0.450000
v 0.000000 -0.500000 -0.000000
v -0.450000 -0.500000 -0.000000
v -0.500000 -0.450000 -0.450000
v -0.500000 -0.450000 -0.000000
v -0.500000 0.000000 0.000000
v -0.500000 0.000000 -0.450000
v -0.450000 -0.450000 -0.500000
v -0.450000 0.000000 -0.500000
v 0.000000 0.000000 -0.500000
v 0.000000 -0.450000 -0.500000
vt 0.714871 0.085983
vt 0.084872 0.715983
vt 0.084872 0.085983
vt 0.084872 0.715983
vt 0.714871 0.085983
vt 0.084872 0.085983
vt 0.084872 0.715983
vt 0.714871 0.085984
vt 0.084872 0.085984
vt 0.084872 0.015983
vt 0.014872 0.085983
vt 0.014872 0.715983
vt 0.714871 0.015984
vt 0.714871 0.715983
vt 0.714872 0.715983
vt 0.714871 0.715983
vt 0.714871 0.015983
vt 0.084872 0.015984
vn 0.0000 -1.0000 -0.0000
vn -1.0000 0.0000 0.0000
vn 0.0000 0.0000 -1.0000
vn -0.5774 -0.5773 -0.5774
vn -0.7071 -0.7071 -0.0000
vn -0.7071 0.0000 -0.7071
vn 0.0000 -0.7071 -0.7071
s 1
f 2/1/1 4/2/1 1/3/1
f 6/4/2 8/5/2 5/6/2
f 10/7/3 12/8/3 9/9/3
f 5/6/4 9/10/4 1/11/4
f 4/12/5 5/6/5 1/11/5
f 8/5/6 9/10/6 5/6/6
f 2/13/7 9/9/7 12/8/7
f 2/1/1 3/14/1 4/2/1
f 6/4/2 7/15/2 8/5/2
f 10/7/3 11/16/3 12/8/3
f 4/12/5 6/4/5 5/6/5
f 8/5/6 10/17/6 9/10/6
f 2/13/7 1/18/7 9/9/7
