# Blender v2.83.0 OBJ File: 'BF_Faired_Parts.blend'
# www.blender.org
o BF_Edge_Bottom
v -0.500000 -0.450000 -0.500000
v -0.450000 -0.500000 -0.500000
v -0.450000 -0.500000 0.500000
v -0.500000 -0.450000 0.500000
v 0.000000 -0.500000 -0.500000
v 0.000000 -0.500000 0.500000
v -0.500000 0.000000 -0.500000
v -0.500000 -0.000000 0.500000
vt 0.164306 0.021782
vt 0.212128 0.978218
vt 0.212128 0.021781
vt 0.642525 0.021781
vt 0.212128 0.978218
vt 0.212128 0.021782
vt 0.642525 0.978219
vt 0.642525 0.021781
vt 0.164306 0.978218
vt 0.642525 0.978218
vn -0.7071 -0.7071 -0.0000
vn 0.0000 -1.0000 -0.0000
vn -1.0000 -0.0000 0.0000
s 1
f 2/1/1 4/2/1 1/3/1
f 5/4/2 3/5/2 2/6/2
f 1/3/3 8/7/3 7/8/3
f 2/1/1 3/9/1 4/2/1
f 5/4/2 6/10/2 3/5/2
f 1/3/3 4/2/3 8/7/3
