# Blender v2.83.0 OBJ File: 'HE_Parts.blend'
# www.blender.org
o HE_Corner
v -0.500000 -0.380000 -0.380000
v -0.380000 -0.500000 -0.380000
v -0.380000 -0.380000 -0.500000
v -0.380000 -0.000000 -0.500000
v -0.500000 0.000000 -0.380000
v -0.380000 -0.500000 -0.000000
v -0.000000 -0.500000 -0.000000
v -0.500000 -0.380000 -0.000000
v -0.500000 0.000000 -0.000000
v -0.000000 -0.500000 -0.380000
v -0.000000 0.000000 -0.500000
v -0.000000 -0.380000 -0.500000
vt 0.064710 0.758396
vt 0.250603 0.758396
vt 0.250603 0.944289
vt 0.250604 0.306941
vt 0.702058 0.306941
vt 0.702058 0.758396
vt 0.250603 0.758396
vt 0.702058 0.758396
vt 0.702058 0.306941
vt 0.250603 0.306941
vt 0.250603 0.306941
vt 0.702058 0.306941
vt 0.702058 0.758396
vt 0.250604 0.758396
vt 0.064710 0.306941
vt 0.702058 0.944289
vt 0.702058 0.944289
vn -0.5773 -0.5774 -0.5774
vn 0.0000 -1.0000 0.0000
vn 0.0000 0.0000 -1.0000
vn -1.0000 0.0000 -0.0000
vn 0.0000 -0.7071 -0.7071
vn -0.7071 0.0000 -0.7071
vn -0.7071 -0.7071 -0.0000
s 1
f 3/1/1 2/2/1 1/3/1
f 2/2/2 10/4/2 7/5/2 6/6/2
f 3/7/3 4/8/3 11/9/3 12/10/3
f 1/11/4 8/12/4 9/13/4 5/14/4
f 3/1/5 12/15/5 10/4/5 2/2/5
f 5/16/6 4/8/6 3/7/6 1/3/6
f 6/6/7 8/17/7 1/3/7 2/2/7
