# Blender v3.1.0 Alpha OBJ File: ''
# www.blender.org
o AP
v -0.132024 -0.500000 -0.132023
v 0.000000 -0.600000 -0.000000
v -0.132024 -0.500000 0.132022
v 0.132024 -0.500000 0.132022
v 0.132024 -0.500000 -0.132023
vt 0.998047 0.876953
vt 0.937500 0.937500
vt 0.998047 0.998047
vt 0.876953 0.998047
vt 0.876953 0.876953
vn -0.6038 -0.7971 0.0000
vn 0.0000 -0.7971 0.6038
vn 0.6038 -0.7971 0.0000
vn 0.0000 -0.7971 -0.6038
s 1
f 1/1/1 2/2/1 3/3/1
f 3/3/2 2/2/2 4/4/2
f 2/2/3 5/5/3 4/4/3
f 2/2/4 1/1/4 5/5/4
