# Blender v3.1.0 Alpha OBJ File: 'HE_Parts.blend'
# www.blender.org
o HE_Corner
v -0.500000 -0.380000 -0.380000
v -0.380000 -0.500000 -0.380000
v -0.380000 -0.380000 -0.500000
v -0.380000 -0.000000 -0.500000
v -0.500000 0.000000 -0.380000
v -0.380000 -0.500000 -0.000000
v -0.000000 -0.500000 -0.000000
v -0.500000 -0.380000 -0.000000
v -0.500000 0.000000 -0.000000
v -0.000000 -0.500000 -0.380000
v -0.000000 0.000000 -0.500000
v -0.000000 -0.380000 -0.500000
vt 0.397578 0.517578
vt 0.397578 0.397578
vt 0.517578 0.397578
vt 0.017578 0.397578
vt 0.397578 0.017578
vt 0.397578 0.397578
vt 0.017578 0.017578
vt 0.017578 0.397578
vt 0.017578 0.017578
vt 0.397578 0.397578
vt 0.017578 0.397578
vt 0.017578 0.517578
vt 0.397578 0.017578
vt 0.517578 0.017578
vt 0.517578 0.017578
vt 0.017578 0.017578
vt 0.397578 0.017578
vn -0.5773 -0.5774 -0.5774
vn 0.0000 -1.0000 -0.0000
vn 0.0000 0.0000 -1.0000
vn -1.0000 0.0000 -0.0000
vn 0.0000 -0.7071 -0.7071
vn -0.7071 0.0000 -0.7071
vn -0.7071 -0.7071 -0.0000
s 1
f 3/1/1 2/2/1 1/3/1
f 10/4/2 6/5/2 2/2/2
f 3/6/3 11/7/3 12/8/3
f 8/9/4 5/10/4 1/11/4
f 12/12/5 2/2/5 3/1/5
f 4/13/6 1/3/6 5/14/6
f 8/15/7 2/2/7 6/5/7
f 10/4/2 7/16/2 6/5/2
f 3/6/3 4/13/3 11/7/3
f 8/9/4 9/17/4 5/10/4
f 12/12/5 10/4/5 2/2/5
f 4/13/6 3/6/6 1/3/6
f 8/15/7 1/3/7 2/2/7
