# Blender v2.83.0 OBJ File: ''
# www.blender.org
mtllib Procedural Rounded Corner (3-way).mtl
o RenderObject.007_RenderObject.006
v -0.190983 -0.500000 0.451048
v -0.500000 -0.500000 0.499991
v -0.500000 -0.500000 -0.500000
v 0.500000 -0.500000 -0.500000
v 0.451057 -0.500000 -0.190986
v 0.309017 -0.500000 0.087780
v 0.087786 -0.500000 0.309010
v -0.190983 0.451057 -0.500000
v 0.087786 0.309018 -0.500000
v 0.309017 0.087789 -0.500000
v 0.451057 -0.190977 -0.500000
v 0.500000 -0.499991 -0.500000
v -0.500000 -0.499991 -0.500000
v -0.500000 0.500000 -0.500000
v -0.500000 0.451057 -0.190977
v -0.500000 0.500000 -0.499991
v -0.500000 -0.499991 -0.499991
v -0.500000 -0.499991 0.500000
v -0.500000 -0.190977 0.451057
v -0.500000 0.087789 0.309019
v -0.500000 0.309018 0.087789
v -0.190339 -0.499991 0.450847
v -0.205494 -0.190977 0.404310
v 0.060425 -0.190977 0.268400
v 0.269518 -0.190977 0.058894
v 0.404734 -0.190977 -0.206777
v 0.269614 0.087789 -0.250569
v 0.154592 0.087789 -0.024576
v -0.023273 0.087789 0.153641
v -0.249478 0.087789 0.269254
v -0.317984 0.309018 0.058898
v -0.153636 0.309018 -0.025100
v -0.024409 0.309018 -0.154582
v 0.059160 0.309018 -0.318777
v -0.404307 0.451057 -0.206166
v -0.317903 0.451057 -0.250327
v -0.249963 0.451057 -0.318401
v -0.206028 0.451057 -0.404724
v -0.499991 0.500000 -0.499997
v -0.499993 0.500000 -0.499994
v -0.499993 -0.499991 -0.499995
v 0.451293 -0.499991 -0.191687
v -0.499995 -0.499991 -0.499993
v 0.089265 -0.499991 0.307943
v -0.499992 -0.499991 -0.499997
v -0.499995 0.500000 -0.499992
v 0.309118 -0.499991 0.087655
v -0.499997 0.500000 -0.499991
v -0.499997 -0.499991 -0.499992
vt 0.327283 0.487695
vt 0.250075 0.499924
vt 0.250075 0.250075
vt 0.499926 0.250075
vt 0.487698 0.327283
vt 0.452209 0.396933
vt 0.396934 0.452207
vt 0.262303 0.672717
vt 0.297792 0.603066
vt 0.353066 0.547791
vt 0.422716 0.512302
vt 0.499924 0.500074
vt 0.499924 0.749925
vt 0.250075 0.749925
vt 0.672717 0.262303
vt 0.749925 0.250075
vt 0.749925 0.499924
vt 0.500076 0.499924
vt 0.512305 0.422716
vt 0.547793 0.353066
vt 0.603068 0.297792
vt 0.801118 0.209729
vt 0.777614 0.181625
vt 0.806348 0.158768
vt 0.827214 0.187462
vt 0.837349 0.138934
vt 0.854595 0.169800
vt 0.871097 0.123359
vt 0.883774 0.156765
vt 0.907072 0.112528
vt 0.915276 0.148234
vt 0.944850 0.106144
vt 0.949713 0.144099
vt 0.949713 0.181428
vt 0.920910 0.182169
vt 0.894457 0.188310
vt 0.870350 0.199042
vt 0.848171 0.214514
vt 0.828136 0.234965
vt 0.857958 0.255805
vt 0.870856 0.239641
vt 0.886606 0.227577
vt 0.904369 0.219742
vt 0.923980 0.216232
vt 0.944676 0.217775
vt 0.889749 0.272392
vt 0.895792 0.263299
vt 0.904045 0.256434
vt 0.913743 0.252219
vt 0.924411 0.250855
vt 0.935174 0.252620
vt 0.922710 0.286109
vn -0.0000 -1.0000 -0.0000
vn 0.0000 0.0000 -1.0000
vn -1.0000 0.0000 0.0000
vn 0.1495 0.3011 0.9418
vn 0.1549 0.1545 0.9758
vn 0.3057 0.1566 0.9391
vn 0.2949 0.3046 0.9057
vn 0.5806 0.1564 0.7990
vn 0.5608 0.3045 0.7699
vn 0.7992 0.1563 0.5803
vn 0.7709 0.3045 0.5595
vn 0.9393 0.1564 0.3052
vn 0.9060 0.3045 0.2939
vn 0.9759 0.1544 0.1544
vn 0.9419 0.3011 0.1489
vn 0.8076 0.5758 0.1276
vn 0.7745 0.5805 0.2513
vn 0.6591 0.5805 0.4781
vn 0.4794 0.5805 0.6582
vn 0.2522 0.5805 0.7742
vn 0.1282 0.5757 0.8076
vn 0.0945 0.7980 0.5952
vn 0.1852 0.8016 0.5684
vn 0.3519 0.8016 0.4833
vn 0.4839 0.8016 0.3510
vn 0.5686 0.8016 0.1845
vn 0.5952 0.7981 0.0940
vn 0.0512 0.9451 0.3226
vn 0.1001 0.9464 0.3072
vn 0.1901 0.9464 0.2611
vn 0.2615 0.9464 0.1897
vn 0.3073 0.9464 0.0997
vn 0.3226 0.9452 0.0509
vn 0.1488 0.9877 0.0483
vn 0.1121 0.9874 0.1118
vn 0.0721 0.9874 0.1410
vn 0.0248 0.9874 0.1564
usemtl None_NONE.007
s 1
f 1/1/1 2/2/1 3/3/1 4/4/1 5/5/1 6/6/1 7/7/1
f 8/8/2 9/9/2 10/10/2 11/11/2 12/12/2 13/13/2 14/14/2
f 15/15/3 16/16/3 17/17/3 18/18/3 19/19/3 20/20/3 21/21/3
f 19/22/4 18/23/5 22/24/6 23/25/7
f 22/24/6 7/26/8 24/27/9 23/25/7
f 7/26/8 6/28/10 25/29/11 24/27/9
f 6/28/10 5/30/12 26/31/13 25/29/11
f 12/32/14 11/33/15 26/31/13 5/30/12
f 10/34/16 27/35/17 26/31/13 11/33/15
f 28/36/18 25/29/11 26/31/13 27/35/17
f 29/37/19 24/27/9 25/29/11 28/36/18
f 30/38/20 23/25/7 24/27/9 29/37/19
f 20/39/21 19/22/4 23/25/7 30/38/20
f 21/40/22 20/39/21 30/38/20 31/41/23
f 31/41/23 30/38/20 29/37/19 32/42/24
f 32/42/24 29/37/19 28/36/18 33/43/25
f 33/43/25 28/36/18 27/35/17 34/44/26
f 9/45/27 34/44/26 27/35/17 10/34/16
f 15/46/28 21/40/22 31/41/23 35/47/29
f 35/47/29 31/41/23 32/42/24 36/48/30
f 36/48/30 32/42/24 33/43/25 37/49/31
f 37/49/31 33/43/25 34/44/26 38/50/32
f 8/51/33 38/50/32 34/44/26 9/45/27
f 38/50/32 8/51/33 39/52/34
f 38/50/32 39/52/34 37/49/31
f 37/49/31 39/52/35 36/48/30
f 36/48/30 39/52/36 35/47/29
f 35/47/29 39/52/37 15/46/28
l 35 48
l 41 47
l 49 22
l 48 49
l 47 25
l 36 46
l 45 42
l 46 43
l 44 24
l 39 45
l 43 44
l 37 40
l 42 26
l 40 41
