# Blender v2.83.0 OBJ File: ''
# www.blender.org
mtllib Procedural Inside Rounded Corner (2-way).mtl
o Cylinder_Cylinder.004
v 0.087785 0.309017 0.500000
v -0.190983 0.451057 0.500000
v -0.500000 0.500000 0.500000
v -0.500000 -0.500000 0.500000
v 0.500000 -0.500000 0.500000
v 0.451057 -0.190983 0.500000
v 0.309017 0.087785 0.500000
v 0.500000 0.309017 0.087785
v 0.500000 0.087785 0.309016
v 0.500000 -0.190983 0.451056
v 0.500000 -0.500000 0.499999
v 0.500000 -0.500000 -0.500000
v 0.500000 0.500000 -0.500000
v 0.500000 0.451057 -0.190983
v 0.451057 -0.190983 0.451056
v 0.309017 0.087785 0.309016
v 0.087785 0.309017 0.087785
v -0.190983 0.451057 -0.190983
v -0.500000 0.500000 -0.500000
v -0.500000 -0.500000 -0.500000
v 0.500000 0.500000 -0.500000
vt 0.456116 0.345522
vt 0.595472 0.274517
vt 0.749950 0.250050
vt 0.749950 0.749950
vt 0.250050 0.749950
vt 0.274517 0.595472
vt 0.345522 0.456116
vt 0.654478 0.543883
vt 0.543884 0.654477
vt 0.404528 0.725483
vt 0.250050 0.749949
vt 0.250050 0.250050
vt 0.749950 0.250050
vt 0.725483 0.404527
vt 0.907066 0.055780
vt 0.907075 0.255764
vt 0.875782 0.055781
vt 0.873803 0.303882
vt 0.853691 0.008192
vt 0.899947 0.005047
vt 0.849925 0.265699
vt 0.849925 0.065730
vt 0.881207 0.065730
vt 0.971991 0.265699
vt 0.839299 0.300224
vt 0.801761 0.300224
vt 0.801760 0.060261
vt 0.948240 0.060261
vt 0.955405 0.132337
vt 0.955405 0.224983
vt 0.803632 0.224983
vt 0.803632 0.025017
vt 0.779610 0.174131
vt 0.890923 0.019928
vt 0.985053 0.087877
vt 0.982777 0.320791
vt 0.943132 0.262844
vt 0.852587 0.262844
vt 0.852587 0.143547
vt 0.943132 0.062871
vt 0.826310 0.334879
vt 0.826310 0.034919
vt 0.962128 0.155934
vt 0.962128 0.334879
vt 0.922259 0.142939
vt 0.924720 0.297702
vt 0.854645 0.297702
vt 0.851083 0.073727
vt 0.830489 0.305029
vt 0.830489 0.111575
vt 0.918083 0.025060
vt 0.918082 0.305029
vt 0.500000 0.000071
vt 0.500000 0.999929
vt 0.000071 0.500000
vt 0.500000 0.500000
vt 0.000071 0.999929
vt 0.000071 0.000071
vt 0.500000 0.375534
vt 0.249002 0.124536
vt 0.750998 0.124536
vt 0.250035 0.375018
vt 0.500000 0.125053
vt 0.749965 0.375018
vt 0.000071 0.999929
vt 0.000071 0.000071
vt 0.500000 0.500000
vt 0.749950 0.749950
vt 0.250050 0.250050
vn 0.0000 -0.0000 1.0000
vn 1.0000 -0.0000 0.0000
vn 0.9511 0.3090 0.0000
vn 0.9877 0.1564 0.0000
vn 0.9424 0.3346 0.0000
vn 0.0000 0.1564 0.9877
vn 0.0000 0.3090 0.9511
vn 0.0000 0.3346 0.9424
vn 0.8090 0.5878 0.0000
vn 0.7789 0.6271 0.0000
vn 0.0000 0.5878 0.8090
vn 0.0000 0.6271 0.7789
vn 0.0000 0.8090 0.5878
vn 0.0000 0.8456 0.5337
vn 0.5878 0.8090 0.0000
vn 0.5337 0.8456 0.0000
vn 0.3090 0.9511 0.0000
vn 0.2373 0.9714 0.0000
vn 0.0000 0.9511 0.3090
vn 0.0000 0.9714 0.2373
vn 0.0000 0.9877 0.1564
vn 0.1564 0.9877 0.0000
vn 0.0000 0.0000 -1.0000
vn -1.0000 0.0000 0.0000
vn 0.0000 -1.0000 -0.0000
usemtl None.002
s 1
f 1/1/1 2/2/1 3/3/1 4/4/1 5/5/1 6/6/1 7/7/1
f 8/8/2 9/9/2 10/10/2 11/11/2 12/12/2 13/13/2 14/14/2
f 6/15/3 5/16/4 15/17/5
f 5/18/6 10/19/7 15/20/8
f 7/21/9 6/22/3 15/23/5 16/24/10
f 15/25/8 10/26/7 9/27/11 16/28/12
f 16/29/12 9/30/11 8/31/13 17/32/14
f 1/33/15 7/34/9 16/35/10 17/36/16
f 2/37/17 1/38/15 17/39/16 18/40/18
f 14/41/19 18/42/20 17/43/14 8/44/13
f 18/45/20 14/46/19 13/47/21 19/48/21
f 2/49/17 18/50/18 19/51/22 3/52/22
f 20/53/23 13/54/23 12/55/23
f 19/56/23 21/57/23 20/58/23
f 20/59/24 4/60/24 19/61/24
f 4/62/24 3/63/24 19/64/24
f 12/65/25 4/66/25 20/67/25
f 12/68/25 11/11/25 4/69/25
