# Blender v2.83.0 OBJ File: 'BF_Chassis_Parts.blend'
# www.blender.org
o BF_Chassis_Corner
v -0.152023 -0.245922 -0.310865
v -0.200000 -0.320000 -0.152021
v -0.245922 -0.310865 -0.152022
v -0.284853 -0.284853 -0.152022
v -0.200000 -0.400000 -0.132021
v -0.276537 -0.384776 -0.132022
v -0.132023 -0.341421 -0.341421
v -0.132023 -0.132022 -0.400000
v -0.380000 -0.200000 -0.152022
v -0.320000 -0.200000 -0.152022
v -0.310866 -0.245922 -0.152022
v -0.268883 -0.366298 -0.152022
v -0.200000 -0.380000 -0.152021
v -0.400000 -0.200000 -0.132022
v -0.384776 -0.276537 -0.132022
v -0.366298 -0.268883 -0.152022
v -0.341422 -0.341421 -0.132022
v -0.327280 -0.327279 -0.152022
v -0.500000 -0.132023 -0.132022
v -0.400000 -0.132023 -0.132022
v -0.152022 -0.320000 -0.200000
v -0.152022 -0.380000 -0.200000
v -0.152022 -0.320000 -0.152022
v -0.152022 -0.380000 -0.152023
v -0.152023 -0.366298 -0.268883
v -0.152023 -0.310866 -0.245921
v -0.152023 -0.200000 -0.380000
v -0.152023 -0.200000 -0.320000
v -0.132023 -0.384776 -0.276536
v -0.152023 -0.327279 -0.327279
v -0.132023 -0.276537 -0.384775
v -0.132023 -0.200000 -0.400000
v -0.132023 -0.500000 -0.132023
v 0.000000 0.000000 -0.500000
v -0.000000 0.000000 -0.320000
v -0.152023 -0.000000 -0.320000
v -0.320000 0.000000 -0.152022
v -0.320000 0.000000 -0.000000
v -0.400000 -0.000000 -0.132022
v -0.500000 -0.000000 -0.132022
v -0.152022 -0.320000 0.000000
v -0.132023 -0.500000 0.000000
v -0.132022 -0.400000 0.000000
v -0.200000 -0.400000 0.000000
v -0.200000 -0.320000 0.000000
v -0.284853 -0.284853 0.000000
v -0.245922 -0.310865 0.000000
v -0.320000 -0.200000 0.000000
v -0.310866 -0.245922 0.000000
v -0.384776 -0.276537 0.000000
v -0.341422 -0.341421 0.000000
v -0.276537 -0.384776 0.000000
v -0.400000 -0.200000 0.000000
v 0.000000 -0.310866 -0.245921
v 0.000000 -0.245922 -0.310865
v 0.000000 -0.200000 -0.320000
v 0.000000 -0.132023 -0.500000
v 0.000000 -0.200000 -0.400000
v 0.000000 -0.341421 -0.341421
v 0.000000 -0.384776 -0.276536
v 0.000000 -0.320000 -0.200000
v 0.000000 -0.400000 -0.200000
v -0.284852 -0.152023 -0.284853
v -0.310865 -0.152023 -0.245922
v -0.152022 -0.284853 -0.284853
v -0.341421 -0.132023 -0.341421
v -0.152022 -0.268883 -0.366298
v -0.132022 -0.400000 -0.200000
v -0.000000 -0.500000 0.000000
v -0.132022 -0.400000 -0.132023
v -0.200000 -0.152022 -0.320000
v -0.200000 -0.152022 -0.380000
v -0.152022 -0.152022 -0.320000
v -0.152023 -0.152022 -0.380000
v -0.268882 -0.152023 -0.366298
v -0.245921 -0.152023 -0.310866
v -0.380000 -0.152023 -0.200000
v -0.320000 -0.152023 -0.200000
v -0.200000 -0.132022 -0.400000
v -0.276536 -0.132023 -0.384776
v -0.327279 -0.152023 -0.327279
v -0.384775 -0.132023 -0.276537
v -0.366298 -0.152023 -0.268883
v -0.400000 -0.132023 -0.200000
v -0.132023 -0.132023 -0.500000
v -0.500000 0.000000 0.000000
v -0.500000 -0.132023 -0.000000
v -0.400000 -0.132023 -0.000000
v -0.320000 -0.152023 -0.000000
v 0.000000 -0.320000 0.000000
v 0.000000 -0.132023 -0.400000
v 0.000000 -0.284853 -0.284853
v 0.000000 -0.276537 -0.384776
v 0.000000 -0.500000 -0.132022
v 0.000000 -0.400000 -0.132022
v -0.284852 -0.000000 -0.284853
v -0.245921 0.000000 -0.310866
v -0.310865 0.000000 -0.245922
v -0.320000 0.000000 -0.200000
v -0.400000 0.000000 -0.200000
v -0.384775 0.000000 -0.276537
v -0.341421 0.000000 -0.341421
v -0.276536 0.000000 -0.384776
v -0.200000 -0.000000 -0.320000
v -0.132023 0.000000 -0.500000
v -0.200000 -0.000000 -0.400000
v -0.132023 0.000000 -0.400000
v -0.320000 -0.152023 -0.152022
v -0.380000 -0.152023 -0.152022
v 0.000000 -0.320000 -0.152022
v 0.000000 -0.152022 -0.320000
vt 0.284495 0.789322
vt 0.146854 0.789322
vt 0.146854 0.718451
vt 0.284493 0.718451
vt 0.460804 0.718452
vt 0.460805 0.768471
vt 0.619296 0.768470
vt 0.619296 0.718452
vt 0.355365 0.768471
vt 0.355365 0.926962
vt 0.403241 0.926962
vt 0.403241 0.768470
vt 0.443829 0.926963
vt 0.443829 0.768471
vt 0.322321 0.768471
vt 0.322321 0.926963
vt 0.362909 0.926962
vt 0.362909 0.768470
vt 0.305345 0.629988
vt 0.146854 0.629987
vt 0.146854 0.670575
vt 0.305346 0.670575
vt 0.305345 0.670575
vt 0.146854 0.670575
vt 0.410786 0.768470
vt 0.410786 0.926962
vt 0.460805 0.926962
vt 0.284494 0.638658
vt 0.146854 0.638658
vt 0.146854 0.571012
vt 0.284494 0.571012
vt 0.146854 0.638658
vt 0.284494 0.638658
vt 0.146854 0.718452
vt 0.284494 0.718452
vt 0.146854 0.789322
vt 0.284494 0.789322
vt 0.284494 0.509940
vt 0.146854 0.509941
vt 0.146854 0.405686
vt 0.284494 0.405686
vt 0.435158 0.789321
vt 0.435158 0.926962
vt 0.355365 0.926962
vt 0.355365 0.789322
vt 0.502804 0.789322
vt 0.502804 0.926962
vt 0.330992 0.789321
vt 0.330991 0.926963
vt 0.263346 0.926962
vt 0.263346 0.789322
vt 0.410786 0.789321
vt 0.410786 0.926962
vt 0.481656 0.789322
vt 0.481656 0.926963
vt 0.355365 0.768471
vt 0.305346 0.768471
vt 0.528740 0.646637
vt 0.548003 0.638658
vt 0.502804 0.571012
vt 0.488060 0.585756
vt 0.305345 0.718452
vt 0.146854 0.718452
vt 0.278090 0.585756
vt 0.263346 0.571012
vt 0.330992 0.525812
vt 0.338971 0.545076
vt 0.427179 0.545077
vt 0.403241 0.602868
vt 0.443829 0.629988
vt 0.427179 0.768470
vt 0.543025 0.718452
vt 0.563876 0.718452
vt 0.481655 0.789322
vt 0.619296 0.789322
vt 0.619296 0.926962
vt 0.481656 0.926962
vt 0.481655 0.405686
vt 0.619296 0.405686
vt 0.619296 0.509941
vt 0.481655 0.509940
vt 0.563876 0.789322
vt 0.563876 0.926963
vt 0.668131 0.926963
vt 0.668131 0.789322
vt 0.305344 0.718451
vt 0.223125 0.718451
vt 0.202274 0.718451
vt 0.218146 0.638658
vt 0.237410 0.646637
vt 0.410786 0.509940
vt 0.410786 0.530792
vt 0.435158 0.525813
vt 0.668131 0.926962
vt 0.563876 0.926963
vt 0.284495 0.926963
vt 0.202274 0.789322
vt 0.202274 0.926963
vt 0.098019 0.926963
vt 0.098019 0.789322
vt 0.146854 0.789322
vt 0.284495 0.789322
vt 0.284495 0.926963
vt 0.146854 0.926962
vt 0.146854 0.718451
vt 0.305344 0.718451
vt 0.146854 0.768471
vt 0.305345 0.768471
vt 0.284495 0.405686
vt 0.146854 0.405686
vt 0.146854 0.509941
vt 0.284495 0.509941
vt 0.284494 0.789322
vt 0.146854 0.789322
vt 0.146854 0.926963
vt 0.284494 0.926962
vt 0.619296 0.670576
vt 0.460804 0.670576
vt 0.619296 0.629988
vt 0.460804 0.629988
vt 0.443829 0.768470
vt 0.443829 0.926962
vt 0.403241 0.926963
vt 0.403241 0.768471
vt 0.355365 0.768471
vt 0.355365 0.926963
vt 0.305345 0.926963
vt 0.481655 0.638658
vt 0.619296 0.638658
vt 0.619296 0.718452
vt 0.481656 0.718452
vt 0.481655 0.571013
vt 0.619296 0.571013
vt 0.435159 0.789321
vt 0.435159 0.926963
vt 0.502805 0.926963
vt 0.502804 0.789322
vt 0.355365 0.789322
vt 0.355365 0.926962
vt 0.284494 0.926962
vt 0.543025 0.718452
vt 0.563876 0.718452
vt 0.543025 0.768470
vt 0.427179 0.545077
vt 0.435159 0.525813
vt 0.502804 0.571013
vt 0.488060 0.585757
vt 0.355365 0.530792
vt 0.355365 0.593345
vt 0.528740 0.646638
vt 0.548004 0.638658
vt 0.355365 0.530792
vt 0.355365 0.509941
vt 0.295202 0.670575
vt 0.285679 0.718451
vt 0.619296 0.789322
vt 0.146854 0.926963
vt 0.305345 0.530792
vt 0.460804 0.530792
vt 0.146854 0.768471
vt 0.146854 0.926963
vt 0.305346 0.926962
vt 0.305346 0.768471
vt 0.619296 0.926962
vt 0.480471 0.768471
vt 0.480472 0.718452
vt 0.470948 0.670575
vt 0.470948 0.670576
vt 0.285679 0.768471
vt 0.223126 0.768471
vt 0.322322 0.629988
vt 0.443829 0.629988
vt 0.480471 0.718452
vt 0.460804 0.593345
vt 0.410786 0.593345
vt 0.362909 0.602868
vt 0.403241 0.602869
vt 0.305346 0.530792
vt 0.305346 0.593345
vt 0.355365 0.593345
vt 0.305345 0.593345
vn -0.0000 -1.0000 0.0000
vn -0.0980 -0.9952 0.0000
vn 0.0980 -0.0000 0.9952
vn -0.0000 0.0000 1.0000
vn 0.0000 0.9952 0.0980
vn 0.0000 0.9239 0.3827
vn -0.0000 0.7071 0.7071
vn -0.0000 0.3827 0.9239
vn 0.7071 0.7071 0.0000
vn 0.3827 0.9239 0.0000
vn 0.9239 0.3827 0.0000
vn -0.0000 0.0980 0.9952
vn -0.3827 -0.9239 0.0000
vn -0.7071 -0.7071 -0.0000
vn -0.9239 -0.3827 -0.0000
vn -0.9952 -0.0980 -0.0000
vn -1.0000 0.0000 -0.0000
vn 0.0000 -0.9239 -0.3827
vn 0.0000 -0.9952 -0.0980
vn -0.0000 -0.7071 -0.7071
vn -0.0000 -0.3827 -0.9239
vn -0.0000 -0.0980 -0.9952
vn 0.0000 -0.0000 -1.0000
vn -0.7052 -0.7052 -0.0728
vn -0.7055 -0.7055 -0.0666
vn -0.7071 -0.2706 -0.6533
vn -0.7071 -0.5000 -0.5000
vn 0.9952 0.0980 0.0000
vn -0.5000 -0.5000 -0.7071
vn -0.6533 -0.2706 -0.7071
vn -0.7071 -0.6533 -0.2706
vn -0.7052 -0.0728 -0.7052
vn -0.7055 -0.0666 -0.7055
vn -0.0666 -0.7055 -0.7055
vn -0.0728 -0.7052 -0.7052
vn -0.2706 -0.6533 -0.7071
vn 0.0980 0.9952 0.0000
vn 1.0000 -0.0000 -0.0000
vn 0.3827 0.0000 0.9239
vn 0.7071 -0.0000 0.7071
vn 0.9239 -0.0000 0.3827
vn 0.9952 0.0000 0.0980
vn -0.3827 -0.0000 -0.9239
vn -0.0980 0.0000 -0.9952
vn -0.7071 0.0000 -0.7071
vn -0.9239 0.0000 -0.3827
vn -0.9952 0.0000 -0.0980
vn -0.6533 -0.7071 -0.2706
vn -0.5000 -0.7071 -0.5000
vn -0.2706 -0.7071 -0.6533
vn 0.0000 1.0000 0.0000
s 1
f 70/1/1 43/2/1 44/3/2 5/4/2
f 71/5/3 73/6/4 36/7/4 104/8/3
f 21/9/5 61/10/5 54/11/6 26/12/6
f 26/12/6 54/11/6 92/13/7 65/14/7
f 65/15/7 92/16/7 55/17/8 1/18/8
f 4/19/9 46/20/9 47/21/10 3/22/10
f 11/23/11 49/24/11 46/20/9 4/19/9
f 28/25/12 56/26/12 111/27/4 73/6/4
f 6/28/13 52/29/13 51/30/14 17/31/14
f 17/31/14 51/30/14 50/32/15 15/33/15
f 15/33/15 50/32/15 53/34/16 14/35/16
f 14/35/16 53/34/16 88/36/17 20/37/17
f 20/38/1 88/39/1 87/40/1 19/41/1
f 5/4/2 44/3/2 52/29/13 6/28/13
f 29/42/18 60/43/18 62/44/19 68/45/19
f 7/46/20 59/47/20 60/43/18 29/42/18
f 31/48/21 93/49/21 59/50/20 7/51/20
f 32/52/22 58/53/22 93/49/21 31/48/21
f 8/54/23 91/55/23 58/53/22 32/52/22
f 22/56/24 68/45/25 70/1/14 24/57/14
f 67/58/26 31/59/26 7/60/27 30/61/27
f 10/62/28 48/63/28 49/24/11 11/23/11
f 18/64/29 17/65/29 15/66/30 16/67/30
f 25/68/17 26/69/17 65/70/17 30/61/17
f 25/71/31 29/42/31 68/45/25 22/56/24
f 27/72/32 32/73/33 31/59/26 67/58/26
f 85/74/23 105/75/23 34/76/23 57/77/23
f 19/78/23 40/79/23 39/80/23 20/81/23
f 8/82/17 107/83/17 105/84/17 85/85/17
f 70/1/20 5/4/34 13/86/35 24/57/20
f 13/87/35 5/88/34 6/89/36 12/90/36
f 16/67/30 15/66/30 14/91/33 9/92/32
f 12/90/36 6/89/36 17/65/29 18/64/29
f 30/61/27 7/60/27 29/93/31 25/68/31
f 85/85/1 57/94/1 91/95/1 8/82/1
f 68/45/19 62/44/19 95/96/1 70/1/1
f 70/97/23 95/98/23 94/99/23 33/100/23
f 42/101/1 33/102/1 94/103/1 69/104/1
f 1/18/8 55/17/8 56/26/12 28/25/12
f 3/22/10 47/21/10 45/105/37 2/106/37
f 89/107/38 48/63/28 10/62/28 108/108/38
f 33/109/17 42/110/17 43/111/17 70/112/17
f 19/113/17 87/114/17 86/115/17 40/116/17
f 71/5/3 104/8/3 97/117/39 76/118/39
f 76/118/39 97/117/39 96/119/40 63/120/40
f 63/121/40 96/122/40 98/123/41 64/124/41
f 78/125/42 99/126/42 37/127/38 108/108/38
f 80/128/43 103/129/43 106/130/44 79/131/44
f 66/132/45 102/133/45 103/129/43 80/128/43
f 82/134/46 101/135/46 102/136/45 66/137/45
f 84/138/47 100/139/47 101/135/46 82/134/46
f 20/37/17 39/140/17 100/139/47 84/138/47
f 72/141/35 79/142/34 8/82/20 74/143/20
f 83/144/48 82/145/48 66/146/49 81/147/49
f 22/148/17 21/149/17 26/69/17 25/68/17
f 75/150/50 80/151/50 79/142/34 72/141/35
f 77/152/24 84/153/25 82/145/48 83/144/48
f 3/154/23 2/155/23 13/87/23 12/90/23
f 8/82/45 32/73/33 27/72/32 74/143/45
f 81/147/49 66/146/49 80/151/50 75/150/50
f 79/131/44 106/130/44 107/156/23 8/54/23
f 64/124/41 98/123/41 99/126/42 78/125/42
f 37/127/38 38/157/38 89/107/38 108/108/38
f 109/158/14 20/38/14 84/153/25 77/152/24
f 20/81/45 109/159/45 9/92/32 14/91/33
f 41/160/51 90/161/51 110/162/51 23/163/51
f 45/105/37 41/160/51 23/163/51 2/106/37
f 61/10/5 21/9/5 23/163/51 110/162/51
f 36/7/4 73/6/4 111/27/4 35/164/4
f 74/143/1 73/165/1 71/166/1 72/141/1
f 65/70/17 1/167/17 67/58/17 30/61/17
f 72/141/1 71/166/1 76/168/1 75/150/1
f 2/155/23 23/169/23 24/170/23 13/87/23
f 12/90/23 18/64/23 4/171/23 3/154/23
f 75/150/1 76/168/1 63/172/1 81/147/1
f 28/173/17 73/165/17 74/143/17 27/72/17
f 109/159/23 108/174/23 10/175/23 9/92/23
f 9/92/23 10/175/23 11/176/23 16/67/23
f 83/144/1 81/147/1 63/172/1 64/177/1
f 16/67/23 11/176/23 4/171/23 18/64/23
f 24/178/17 23/179/17 21/149/17 22/148/17
f 64/177/1 78/180/1 77/152/1 83/144/1
f 27/72/17 67/58/17 1/167/17 28/173/17
f 78/180/1 108/181/1 109/158/1 77/152/1
l 35 56
