# Blender v3.1.0 Alpha OBJ File: 'BF_Chassis_Parts.blend'
# www.blender.org
o BF_Chassis_Corner
v -0.152023 -0.245922 -0.310865
v -0.200000 -0.320000 -0.152021
v -0.245922 -0.310865 -0.152022
v -0.284853 -0.284853 -0.152022
v -0.200000 -0.400000 -0.132021
v -0.276537 -0.384776 -0.132022
v -0.132023 -0.341421 -0.341421
v -0.132023 -0.132022 -0.400000
v -0.380000 -0.200000 -0.152022
v -0.320000 -0.200000 -0.152022
v -0.310866 -0.245922 -0.152022
v -0.268883 -0.366298 -0.152022
v -0.200000 -0.380000 -0.152021
v -0.400000 -0.200000 -0.132022
v -0.384776 -0.276537 -0.132022
v -0.366298 -0.268883 -0.152022
v -0.341422 -0.341421 -0.132022
v -0.327280 -0.327279 -0.152022
v -0.500000 -0.132023 -0.132022
v -0.400000 -0.132023 -0.132022
v -0.152022 -0.320000 -0.200000
v -0.152022 -0.380000 -0.200000
v -0.152022 -0.320000 -0.152022
v -0.152022 -0.380000 -0.152023
v -0.152023 -0.366298 -0.268883
v -0.152023 -0.310866 -0.245921
v -0.152023 -0.200000 -0.380000
v -0.152023 -0.200000 -0.320000
v -0.132023 -0.384776 -0.276536
v -0.152023 -0.327279 -0.327279
v -0.132023 -0.276537 -0.384775
v -0.132023 -0.200000 -0.400000
v -0.132023 -0.500000 -0.132023
v 0.000000 0.000000 -0.500000
v -0.000000 0.000000 -0.320000
v -0.152023 -0.000000 -0.320000
v -0.320000 0.000000 -0.152022
v -0.320000 0.000000 -0.000000
v -0.400000 -0.000000 -0.132022
v -0.500000 -0.000000 -0.132022
v -0.152022 -0.320000 0.000000
v -0.132023 -0.500000 0.000000
v -0.132022 -0.400000 0.000000
v -0.200000 -0.400000 0.000000
v -0.200000 -0.320000 0.000000
v -0.284853 -0.284853 0.000000
v -0.245922 -0.310865 0.000000
v -0.320000 -0.200000 0.000000
v -0.310866 -0.245922 0.000000
v -0.384776 -0.276537 0.000000
v -0.341422 -0.341421 0.000000
v -0.276537 -0.384776 0.000000
v -0.400000 -0.200000 0.000000
v 0.000000 -0.310866 -0.245921
v 0.000000 -0.245922 -0.310865
v 0.000000 -0.200000 -0.320000
v 0.000000 -0.132023 -0.500000
v 0.000000 -0.200000 -0.400000
v 0.000000 -0.341421 -0.341421
v 0.000000 -0.384776 -0.276536
v 0.000000 -0.320000 -0.200000
v 0.000000 -0.400000 -0.200000
v -0.284852 -0.152023 -0.284853
v -0.310865 -0.152023 -0.245922
v -0.152022 -0.284853 -0.284853
v -0.341421 -0.132023 -0.341421
v -0.152022 -0.268883 -0.366298
v -0.132022 -0.400000 -0.200000
v -0.000000 -0.500000 0.000000
v -0.132022 -0.400000 -0.132023
v -0.200000 -0.152022 -0.320000
v -0.200000 -0.152022 -0.380000
v -0.152022 -0.152022 -0.320000
v -0.152023 -0.152022 -0.380000
v -0.268882 -0.152023 -0.366298
v -0.245921 -0.152023 -0.310866
v -0.380000 -0.152023 -0.200000
v -0.320000 -0.152023 -0.200000
v -0.200000 -0.132022 -0.400000
v -0.276536 -0.132023 -0.384776
v -0.327279 -0.152023 -0.327279
v -0.384775 -0.132023 -0.276537
v -0.366298 -0.152023 -0.268883
v -0.400000 -0.132023 -0.200000
v -0.132023 -0.132023 -0.500000
v -0.500000 0.000000 0.000000
v -0.500000 -0.132023 -0.000000
v -0.400000 -0.132023 -0.000000
v -0.320000 -0.152023 -0.000000
v 0.000000 -0.320000 0.000000
v 0.000000 -0.132023 -0.400000
v 0.000000 -0.284853 -0.284853
v 0.000000 -0.276537 -0.384776
v 0.000000 -0.500000 -0.132022
v 0.000000 -0.400000 -0.132022
v -0.284852 -0.000000 -0.284853
v -0.245921 0.000000 -0.310866
v -0.310865 0.000000 -0.245922
v -0.320000 0.000000 -0.200000
v -0.400000 0.000000 -0.200000
v -0.384775 0.000000 -0.276537
v -0.341421 0.000000 -0.341421
v -0.276536 0.000000 -0.384776
v -0.200000 -0.000000 -0.320000
v -0.132023 0.000000 -0.500000
v -0.200000 -0.000000 -0.400000
v -0.132023 0.000000 -0.400000
v -0.320000 -0.152023 -0.152022
v -0.380000 -0.152023 -0.152022
v 0.000000 -0.320000 -0.152022
v 0.000000 -0.152022 -0.320000
vt 0.031684 0.628092
vt 0.254217 0.513499
vt 0.254242 0.628092
vt 0.287831 0.440697
vt 0.031651 0.361839
vt 0.287831 0.361839
vt 0.287831 0.440697
vt 0.031651 0.361839
vt 0.287831 0.361839
vt 0.031651 0.440697
vt 0.287831 0.361839
vt 0.287831 0.440697
vt 0.287952 0.361839
vt 0.031651 0.288910
vt 0.287953 0.288910
vt 0.287952 0.361839
vt 0.031651 0.288910
vt 0.287953 0.288910
vt 0.031651 0.440697
vt 0.287831 0.361839
vt 0.287831 0.440697
vt 0.287706 0.440697
vt 0.031651 0.522338
vt 0.031651 0.440697
vt 0.031661 0.255426
vt 0.254217 0.384462
vt 0.031682 0.384462
vt 0.031660 0.513499
vt 0.254217 0.384462
vt 0.031660 0.513499
vt 0.031682 0.384462
vt 0.254239 0.628092
vt 0.031682 0.628092
vt 0.422817 0.032836
vt 0.254243 0.255426
vt 0.254243 0.032836
vt 0.031682 0.384462
vt 0.254217 0.384462
vt 0.254217 0.384462
vt 0.031660 0.513499
vt 0.031682 0.384462
vt 0.254217 0.384462
vt 0.031660 0.513500
vt 0.031682 0.384462
vt 0.254242 0.255427
vt 0.031660 0.255427
vt 0.031660 0.513499
vt 0.254217 0.384462
vt 0.254217 0.513499
vt 0.254240 0.628092
vt 0.622225 0.267419
vt 0.685555 0.198198
vt 0.668886 0.277258
vt 0.660776 0.394882
vt 0.640746 0.518066
vt 0.685554 0.502839
vt 0.287831 0.440697
vt 0.031651 0.361839
vt 0.287831 0.361839
vt 0.640748 0.518070
vt 0.660779 0.394886
vt 0.685556 0.502843
vt 0.372566 0.388292
vt 0.450603 0.504425
vt 0.349471 0.504425
vt 0.613218 0.398117
vt 0.660778 0.394885
vt 0.622225 0.267415
vt 0.668885 0.277253
vt 0.031651 0.032855
vt 0.254216 0.255435
vt 0.031651 0.255435
vt 0.254243 0.032836
vt 0.422817 0.255426
vt 0.254243 0.255426
vt 0.422817 0.032836
vt 0.254243 0.255426
vt 0.254243 0.032836
vt 0.622223 0.267415
vt 0.645842 0.155397
vt 0.668883 0.277253
vt 0.613216 0.398114
vt 0.660777 0.394881
vt 0.613218 0.398118
vt 0.668886 0.277257
vt 0.254243 0.032836
vt 0.422817 0.255426
vt 0.254243 0.255426
vt 0.254217 0.513499
vt 0.031682 0.628092
vt 0.422817 0.032836
vt 0.254243 0.255426
vt 0.254243 0.032836
vt 0.254216 0.032855
vt 0.031651 0.255435
vt 0.031651 0.032855
vt 0.287831 0.361839
vt 0.031651 0.361839
vt 0.287831 0.361839
vt 0.031651 0.440697
vt 0.031651 0.361839
vt 0.031651 0.440697
vt 0.287831 0.361839
vt 0.287831 0.440697
vt 0.254243 0.032836
vt 0.422817 0.255426
vt 0.254243 0.255426
vt 0.254216 0.032855
vt 0.031651 0.255435
vt 0.031651 0.032855
vt 0.287831 0.440697
vt 0.031651 0.361839
vt 0.287831 0.361839
vt 0.287831 0.440697
vt 0.031651 0.361839
vt 0.287831 0.361839
vt 0.287953 0.288910
vt 0.287952 0.361839
vt 0.287706 0.440697
vt 0.031651 0.522338
vt 0.031651 0.440697
vt 0.254217 0.384462
vt 0.031660 0.513499
vt 0.031682 0.384462
vt 0.031682 0.384462
vt 0.254243 0.255426
vt 0.254217 0.384462
vt 0.031660 0.513499
vt 0.254217 0.513499
vt 0.031660 0.513499
vt 0.254217 0.384462
vt 0.254217 0.513499
vt 0.254217 0.628094
vt 0.622226 0.267419
vt 0.685555 0.198198
vt 0.668886 0.277257
vt 0.660777 0.394882
vt 0.640746 0.518067
vt 0.685554 0.502840
vt 0.509846 0.361368
vt 0.438334 0.289840
vt 0.613218 0.398117
vt 0.660778 0.394885
vt 0.668885 0.277254
vt 0.613217 0.398114
vt 0.509845 0.361371
vt 0.372564 0.388295
vt 0.466000 0.427006
vt 0.645843 0.155398
vt 0.254217 0.513499
vt 0.031682 0.628092
vt 0.287831 0.361839
vt 0.031651 0.361839
vt 0.287706 0.288910
vt 0.031651 0.032855
vt 0.287706 0.032855
vt 0.685554 0.198193
vt 0.622225 0.267416
vt 0.622226 0.267419
vt 0.645844 0.155402
vt 0.031651 0.288910
vt 0.287706 0.032855
vt 0.287706 0.288910
vt 0.287706 0.522338
vt 0.287706 0.440697
vt 0.031651 0.361839
vt 0.287831 0.440697
vt 0.031651 0.440697
vt 0.287706 0.032855
vt 0.031651 0.288910
vt 0.031651 0.032855
vt 0.495517 0.232644
vt 0.509846 0.361368
vt 0.438334 0.289840
vt 0.372564 0.388295
vt 0.372565 0.388292
vt 0.495516 0.232646
vt 0.438333 0.289842
vt 0.450603 0.504428
vt 0.450604 0.504424
vt 0.349470 0.504425
vt 0.567029 0.304175
vt 0.438334 0.289842
vt 0.509846 0.361371
vt 0.495518 0.232644
vt 0.509847 0.361368
vt 0.438335 0.289839
vt 0.466000 0.427003
vt 0.372565 0.388292
vt 0.466000 0.427007
vt 0.372564 0.388295
vt 0.349470 0.504425
vt 0.509846 0.361371
vt 0.567029 0.304174
vt 0.438333 0.289842
vt 0.031660 0.513499
vt 0.031651 0.440697
vt 0.031651 0.440697
vt 0.031651 0.361839
vt 0.031651 0.361839
vt 0.287706 0.522338
vt 0.254242 0.255426
vt 0.254217 0.513499
vt 0.254217 0.513499
vt 0.422817 0.255426
vt 0.254217 0.513499
vt 0.031682 0.384462
vt 0.031682 0.628092
vt 0.613217 0.398114
vt 0.031651 0.440697
vt 0.466001 0.427003
vt 0.254216 0.032855
vt 0.422817 0.032836
vt 0.422817 0.255426
vt 0.422817 0.032836
vt 0.254239 0.628092
vt 0.422817 0.255426
vt 0.287831 0.440697
vt 0.287831 0.440697
vt 0.031651 0.361839
vt 0.422817 0.032836
vt 0.254216 0.255435
vt 0.031651 0.440697
vt 0.031651 0.440697
vt 0.031651 0.288910
vt 0.287706 0.522338
vt 0.031661 0.255426
vt 0.031682 0.384462
vt 0.031660 0.628094
vt 0.254239 0.628092
vt 0.287831 0.440697
vt 0.031651 0.288910
vt 0.031651 0.032855
vt 0.031651 0.522338
vt 0.287831 0.361839
vt 0.287706 0.288910
vt 0.466000 0.427006
vt 0.466001 0.427003
vt 0.567029 0.304174
vn 0.0000 -1.0000 0.0000
vn -0.0980 -0.9952 0.0000
vn -0.0000 0.0000 1.0000
vn 0.0980 -0.0000 0.9952
vn 0.0000 0.9952 0.0980
vn 0.0000 0.9239 0.3827
vn -0.0000 0.7071 0.7071
vn 0.0000 0.3827 0.9239
vn 0.7071 0.7071 0.0000
vn 0.3827 0.9239 0.0000
vn 0.9239 0.3827 0.0000
vn -0.0000 0.0980 0.9952
vn -0.3827 -0.9239 0.0000
vn -0.7071 -0.7071 -0.0000
vn -0.9239 -0.3827 -0.0000
vn -0.9952 -0.0980 -0.0000
vn -1.0000 0.0000 -0.0000
vn 0.0000 -0.9239 -0.3827
vn 0.0000 -0.9952 -0.0980
vn -0.0000 -0.7071 -0.7071
vn -0.0000 -0.3827 -0.9239
vn -0.0000 -0.0980 -0.9952
vn 0.0000 -0.0000 -1.0000
vn -0.7055 -0.7055 -0.0666
vn -0.7052 -0.7052 -0.0728
vn -0.7071 -0.2706 -0.6533
vn -0.7071 -0.5000 -0.5000
vn 0.9952 0.0980 -0.0000
vn -0.5000 -0.5000 -0.7071
vn -0.6533 -0.2706 -0.7071
vn -0.7071 -0.6533 -0.2706
vn -0.7055 -0.0666 -0.7055
vn -0.7052 -0.0728 -0.7052
vn -0.0666 -0.7055 -0.7055
vn -0.0728 -0.7052 -0.7052
vn -0.2706 -0.6533 -0.7071
vn 0.0980 0.9952 0.0000
vn 1.0000 -0.0000 -0.0000
vn 0.3827 0.0000 0.9239
vn 0.7071 -0.0000 0.7071
vn 0.9239 -0.0000 0.3827
vn 0.9952 0.0000 0.0980
vn -0.3827 -0.0000 -0.9239
vn -0.0980 -0.0000 -0.9952
vn -0.7071 -0.0000 -0.7071
vn -0.9239 0.0000 -0.3827
vn -0.9952 0.0000 -0.0980
vn -0.6533 -0.7071 -0.2706
vn -0.5000 -0.7071 -0.5000
vn -0.2706 -0.7071 -0.6533
vn 0.0000 1.0000 0.0000
s 1
f 43/1/1 5/2/2 70/3/1
f 73/4/3 104/5/4 71/6/4
f 21/7/5 54/8/6 26/9/6
f 54/10/6 65/11/7 26/12/6
f 65/13/7 55/14/8 1/15/8
f 4/16/9 47/17/10 3/18/10
f 49/19/11 4/20/9 11/21/11
f 56/22/12 73/23/3 28/24/12
f 6/25/13 51/26/14 17/27/14
f 51/26/14 15/28/15 17/27/14
f 50/29/15 14/30/16 15/31/15
f 14/30/16 88/32/17 20/33/17
f 20/34/1 87/35/1 19/36/1
f 5/2/2 52/37/13 6/38/13
f 60/39/18 68/40/19 29/41/18
f 59/42/20 29/43/18 7/44/20
f 93/45/21 7/44/20 31/46/21
f 58/47/22 31/48/21 32/49/22
f 8/50/23 58/47/22 32/49/22
f 68/51/24 24/52/14 22/53/25
f 67/54/26 7/55/27 30/56/27
f 10/57/28 49/58/11 11/59/11
f 17/60/29 16/61/30 18/62/29
f 25/63/17 65/64/17 30/65/17
f 29/66/31 22/53/25 25/67/31
f 32/68/32 67/54/26 27/69/33
f 105/70/23 57/71/23 85/72/23
f 40/73/23 20/74/23 19/75/23
f 8/76/17 105/77/17 85/78/17
f 5/79/34 24/52/20 70/80/20
f 13/81/35 6/82/36 12/83/36
f 15/84/30 9/85/33 16/61/30
f 6/82/36 18/62/29 12/83/36
f 30/56/27 29/66/31 25/67/31
f 57/86/1 8/87/1 85/88/1
f 62/89/19 70/90/1 68/40/19
f 70/91/23 94/92/23 33/93/23
f 33/94/1 69/95/1 42/96/1
f 55/97/8 28/24/12 1/98/8
f 47/99/10 2/100/37 3/101/10
f 89/102/38 10/103/28 108/104/38
f 42/105/17 70/106/17 33/107/17
f 87/108/17 40/109/17 19/110/17
f 71/111/4 97/112/39 76/113/39
f 76/114/39 96/115/40 63/116/40
f 96/115/40 64/117/41 63/118/40
f 99/119/42 108/120/38 78/121/42
f 103/122/43 79/123/44 80/124/43
f 102/125/45 80/126/43 66/127/45
f 101/128/46 66/127/45 82/129/46
f 100/130/47 82/131/46 84/132/47
f 20/133/17 100/130/47 84/132/47
f 79/134/34 74/135/20 72/136/35
f 83/137/48 66/138/49 81/139/49
f 21/140/17 25/63/17 22/141/17
f 80/142/50 72/136/35 75/143/50
f 77/144/25 82/145/48 83/137/48
f 2/146/23 12/147/23 3/148/23
f 32/68/32 74/135/45 8/149/45
f 81/139/49 80/142/50 75/143/50
f 106/150/44 8/151/23 79/123/44
f 98/152/41 78/121/42 64/153/41
f 37/154/38 89/155/38 108/156/38
f 109/157/14 84/158/24 77/144/25
f 109/157/45 14/159/32 20/160/45
f 90/161/51 23/162/51 41/163/51
f 41/164/51 2/100/37 45/165/37
f 61/166/5 23/167/51 110/168/51
f 73/169/3 35/170/3 36/171/3
f 74/172/1 71/173/1 72/174/1
f 65/64/17 67/175/17 30/65/17
f 71/173/1 75/176/1 72/174/1
f 2/146/23 24/177/23 13/178/23
f 12/147/23 4/179/23 3/148/23
f 75/176/1 63/180/1 81/181/1
f 73/182/17 27/183/17 28/184/17
f 109/185/23 10/186/23 9/187/23
f 9/187/23 11/188/23 16/189/23
f 81/181/1 64/190/1 83/191/1
f 16/189/23 4/179/23 18/192/23
f 24/177/17 21/140/17 22/141/17
f 78/193/1 83/191/1 64/190/1
f 67/175/17 28/184/17 27/183/17
f 108/194/1 77/195/1 78/193/1
f 43/1/1 44/196/2 5/2/2
f 73/4/3 36/197/3 104/5/4
f 21/7/5 61/198/5 54/8/6
f 54/10/6 92/199/7 65/11/7
f 65/13/7 92/199/7 55/14/8
f 4/16/9 46/200/9 47/17/10
f 49/19/11 46/200/9 4/20/9
f 56/22/12 111/201/3 73/23/3
f 6/25/13 52/202/13 51/26/14
f 51/26/14 50/203/15 15/28/15
f 50/29/15 53/204/16 14/30/16
f 14/30/16 53/204/16 88/32/17
f 20/34/1 88/205/1 87/35/1
f 5/2/2 44/196/2 52/37/13
f 60/39/18 62/89/19 68/40/19
f 59/42/20 60/206/18 29/43/18
f 93/45/21 59/42/20 7/44/20
f 58/47/22 93/207/21 31/48/21
f 8/50/23 91/208/23 58/47/22
f 68/51/24 70/80/14 24/52/14
f 67/54/26 31/209/26 7/55/27
f 10/57/28 48/210/28 49/58/11
f 17/60/29 15/84/30 16/61/30
f 25/63/17 26/211/17 65/64/17
f 29/66/31 68/51/24 22/53/25
f 32/68/32 31/209/26 67/54/26
f 105/70/23 34/212/23 57/71/23
f 40/73/23 39/213/23 20/74/23
f 8/76/17 107/214/17 105/77/17
f 5/79/34 13/81/35 24/52/20
f 13/81/35 5/79/34 6/82/36
f 15/84/30 14/159/32 9/85/33
f 6/82/36 17/60/29 18/62/29
f 30/56/27 7/55/27 29/66/31
f 57/86/1 91/215/1 8/87/1
f 62/89/19 95/216/1 70/90/1
f 70/91/23 95/217/23 94/92/23
f 33/94/1 94/92/1 69/95/1
f 55/97/8 56/218/12 28/24/12
f 47/99/10 45/219/37 2/100/37
f 89/102/38 48/220/28 10/103/28
f 42/105/17 43/221/17 70/106/17
f 87/108/17 86/222/17 40/109/17
f 71/111/4 104/223/4 97/112/39
f 76/114/39 97/224/39 96/115/40
f 96/115/40 98/225/41 64/117/41
f 99/119/42 37/226/38 108/120/38
f 103/122/43 106/150/44 79/123/44
f 102/125/45 103/227/43 80/126/43
f 101/128/46 102/125/45 66/127/45
f 100/130/47 101/228/46 82/131/46
f 20/133/17 39/229/17 100/130/47
f 79/134/34 8/149/20 74/135/20
f 83/137/48 82/145/48 66/138/49
f 21/140/17 26/211/17 25/63/17
f 80/142/50 79/134/34 72/136/35
f 77/144/25 84/158/24 82/145/48
f 2/146/23 13/178/23 12/147/23
f 32/68/32 27/69/33 74/135/45
f 81/139/49 66/138/49 80/142/50
f 106/150/44 107/230/23 8/151/23
f 98/152/41 99/231/42 78/121/42
f 37/154/38 38/232/38 89/155/38
f 109/157/14 20/160/14 84/158/24
f 109/157/45 9/85/33 14/159/32
f 90/161/51 110/233/51 23/162/51
f 41/164/51 23/234/51 2/100/37
f 61/166/5 21/235/5 23/167/51
f 73/169/3 111/236/3 35/170/3
f 74/172/1 73/182/1 71/173/1
f 65/64/17 1/237/17 67/175/17
f 71/173/1 76/238/1 75/176/1
f 2/146/23 23/239/23 24/177/23
f 12/147/23 18/192/23 4/179/23
f 75/176/1 76/238/1 63/180/1
f 73/182/17 74/172/17 27/183/17
f 109/185/23 108/194/23 10/186/23
f 9/187/23 10/186/23 11/188/23
f 81/181/1 63/180/1 64/190/1
f 16/189/23 11/188/23 4/179/23
f 24/177/17 23/239/17 21/140/17
f 78/193/1 77/195/1 83/191/1
f 67/175/17 1/237/17 28/184/17
f 108/194/1 109/185/1 77/195/1
l 35 56
