# Blender v2.83.0 OBJ File: 'BF_Chassis_Parts.blend'
# www.blender.org
o BF_Chassis_Edge
v -0.320000 -0.200000 -0.347978
v -0.384776 -0.276537 -0.367977
v -0.341421 -0.341422 -0.367977
v -0.310866 -0.245922 -0.347977
v -0.366298 -0.268883 -0.347977
v -0.380000 -0.200000 -0.347978
v -0.380000 -0.152022 -0.347978
v -0.400000 -0.200000 -0.367977
v -0.400000 -0.132023 -0.367978
v -0.320000 -0.152022 -0.347978
v -0.500000 0.000000 -0.500000
v -0.500000 -0.132023 -0.367977
v -0.320000 0.000000 -0.500000
v -0.320000 -0.152022 -0.500000
v -0.400000 -0.132022 -0.500000
v -0.500000 -0.132022 -0.500000
v -0.400000 -0.200000 -0.500000
v -0.320000 -0.200000 -0.500000
v -0.284853 -0.284853 -0.500000
v -0.310866 -0.245922 -0.500000
v -0.341421 -0.341422 -0.500000
v -0.384776 -0.276537 -0.500000
v -0.320000 0.000000 -0.347978
v -0.500000 0.000000 -0.367977
v -0.400000 0.000000 -0.367978
v -0.400000 -0.200000 0.367977
v -0.384776 -0.276537 0.367977
v -0.284853 -0.284853 0.347977
v -0.310866 -0.245922 0.347977
v -0.366298 -0.268883 0.347977
v -0.320000 -0.200000 0.347977
v -0.320000 -0.152022 0.347978
v -0.380000 -0.200000 0.347978
v -0.380000 -0.152022 0.347978
v -0.500000 0.000000 0.500000
v -0.400000 -0.132023 0.367978
v -0.499999 -0.132023 0.367977
v -0.320000 -0.000000 0.500000
v -0.320000 -0.152022 0.500000
v -0.400000 -0.132022 0.500000
v -0.500000 -0.132023 0.500000
v -0.400000 -0.200000 0.500000
v -0.320000 -0.200000 0.500000
v -0.284853 -0.284853 0.500000
v -0.310866 -0.245922 0.500000
v -0.384776 -0.276537 0.500000
v -0.320000 0.000000 0.347978
v -0.500000 0.000000 0.367977
v -0.400000 0.000000 0.367978
v -0.200000 -0.320000 -0.347978
v -0.276537 -0.384776 -0.367977
v -0.284853 -0.284853 -0.347977
v -0.245922 -0.310865 -0.347977
v -0.268883 -0.366298 -0.347977
v -0.200000 -0.380000 -0.347978
v -0.152022 -0.380000 -0.347978
v -0.327280 -0.327279 -0.347977
v -0.200000 -0.400000 -0.367978
v -0.132023 -0.400000 -0.367978
v -0.152022 -0.320000 -0.347978
v 0.000000 -0.500000 -0.500000
v -0.132023 -0.499999 -0.367977
v -0.000000 -0.320000 -0.500000
v -0.152022 -0.320000 -0.500000
v -0.132022 -0.400000 -0.500000
v -0.132023 -0.500000 -0.500000
v -0.200000 -0.400000 -0.500000
v -0.200000 -0.320000 -0.500000
v -0.245922 -0.310865 -0.500000
v -0.276537 -0.384776 -0.500000
v 0.000000 -0.320000 -0.347978
v 0.000000 -0.500000 -0.367977
v 0.000000 -0.400000 -0.367978
v -0.200000 -0.400000 0.367977
v -0.276537 -0.384776 0.367977
v -0.341422 -0.341421 0.367977
v -0.327280 -0.327279 0.347977
v -0.245922 -0.310865 0.347977
v -0.268883 -0.366298 0.347977
v -0.200000 -0.320000 0.347977
v -0.152023 -0.320000 0.347978
v -0.200000 -0.380000 0.347978
v -0.152023 -0.380000 0.347978
v -0.000000 -0.500000 0.500000
v -0.132023 -0.400000 0.367978
v -0.132023 -0.499999 0.367977
v -0.000000 -0.320000 0.500000
v -0.152022 -0.320000 0.500000
v -0.132023 -0.400000 0.500000
v -0.132023 -0.500000 0.500000
v -0.200000 -0.400000 0.500000
v -0.200000 -0.320000 0.500000
v -0.245922 -0.310865 0.500000
v -0.341422 -0.341421 0.500000
v -0.276537 -0.384776 0.500000
v -0.000000 -0.320000 0.347978
v -0.000000 -0.500000 0.367977
v -0.000000 -0.400000 0.367978
vt 0.618606 0.596817
vt 0.725031 0.596817
vt 0.725031 0.703242
vt 0.618606 0.703242
vt 0.219745 0.610818
vt 0.289751 0.610818
vt 0.289751 0.703242
vt 0.219745 0.703242
vt 0.618606 0.531081
vt 0.618606 0.503828
vt 0.725031 0.503827
vt 0.725031 0.531081
vt 0.632607 0.509649
vt 0.632607 0.563230
vt 0.725031 0.563230
vt 0.725031 0.509649
vt 0.632607 0.610818
vt 0.725031 0.610818
vt 0.632607 0.464226
vt 0.725031 0.464226
vt 0.725031 0.509649
vt 0.632607 0.509649
vt 0.131394 0.703242
vt 0.131394 0.596817
vt 0.131394 0.437219
vt 0.618606 0.437219
vt 0.618606 0.479222
vt 0.131394 0.479222
vt 0.632607 0.423217
vt 0.632607 0.353211
vt 0.725031 0.353211
vt 0.725031 0.423217
vt 0.313344 0.515007
vt 0.340660 0.474127
vt 0.370361 0.503828
vt 0.352151 0.531081
vt 0.303752 0.596817
vt 0.289751 0.563230
vt 0.303752 0.563230
vt 0.345756 0.563230
vt 0.632607 0.610818
vt 0.632607 0.703242
vt 0.725031 0.703242
vt 0.725031 0.610818
vt 0.345756 0.596817
vt 0.300409 0.509649
vt 0.330760 0.464226
vt 0.618606 0.563230
vt 0.725031 0.563230
vt 0.117393 0.423217
vt 0.024969 0.703242
vt 0.024969 0.596817
vt 0.219745 0.610818
vt 0.219745 0.703242
vt 0.289751 0.703242
vt 0.289751 0.610818
vt 0.131394 0.531081
vt 0.024969 0.531081
vt 0.024969 0.503827
vt 0.131394 0.503827
vt 0.117393 0.509649
vt 0.024969 0.509649
vt 0.024969 0.563230
vt 0.117393 0.563230
vt 0.024969 0.610818
vt 0.117393 0.610818
vt 0.024969 0.423217
vt 0.024969 0.353211
vt 0.117393 0.353211
vt 0.313344 0.515007
vt 0.352151 0.531081
vt 0.370361 0.503827
vt 0.340660 0.474127
vt 0.303752 0.596817
vt 0.303752 0.563230
vt 0.289751 0.563230
vt 0.345756 0.563230
vt 0.024969 0.703242
vt 0.117393 0.703242
vt 0.117393 0.610818
vt 0.024969 0.610818
vt 0.345756 0.596817
vt 0.300409 0.509649
vt 0.330759 0.464226
vt 0.131394 0.563230
vt 0.024969 0.563230
vt 0.117393 0.703242
vt 0.632607 0.703242
vt 0.618606 0.596817
vt 0.618606 0.703242
vt 0.725031 0.703242
vt 0.725031 0.596817
vt 0.477352 0.353211
vt 0.569776 0.353211
vt 0.569776 0.423217
vt 0.477352 0.423217
vt 0.618606 0.531081
vt 0.725031 0.531081
vt 0.725031 0.563230
vt 0.632607 0.563230
vt 0.725031 0.610818
vt 0.632607 0.610818
vt 0.131394 0.596817
vt 0.131394 0.703242
vt 0.131394 0.437219
vt 0.131394 0.479222
vt 0.618606 0.479222
vt 0.618606 0.437219
vt 0.632607 0.423217
vt 0.725031 0.423217
vt 0.725031 0.353211
vt 0.632607 0.353211
vt 0.381541 0.446811
vt 0.397615 0.485617
vt 0.463351 0.437219
vt 0.429763 0.437219
vt 0.429763 0.423217
vt 0.429763 0.479222
vt 0.632607 0.610818
vt 0.725031 0.610818
vt 0.725031 0.703242
vt 0.632607 0.703242
vt 0.463351 0.479222
vt 0.376183 0.433875
vt 0.618606 0.563230
vt 0.725031 0.563230
vt 0.117393 0.423217
vt 0.024969 0.596817
vt 0.024969 0.703242
vt 0.477352 0.353211
vt 0.477352 0.423217
vt 0.569776 0.423217
vt 0.569776 0.353211
vt 0.131394 0.531081
vt 0.024969 0.531081
vt 0.117393 0.509649
vt 0.117393 0.563230
vt 0.024969 0.563230
vt 0.024969 0.509649
vt 0.117393 0.610818
vt 0.024969 0.610818
vt 0.117393 0.353211
vt 0.024969 0.353211
vt 0.024969 0.423217
vt 0.381541 0.446811
vt 0.397615 0.485617
vt 0.463351 0.437219
vt 0.429763 0.423217
vt 0.429763 0.437219
vt 0.429763 0.479222
vt 0.024969 0.703242
vt 0.024969 0.610818
vt 0.117393 0.610818
vt 0.117393 0.703242
vt 0.463351 0.479222
vt 0.376183 0.433875
vt 0.131394 0.563230
vt 0.024969 0.563230
vt 0.117393 0.703242
vt 0.632607 0.703242
vt 0.024969 0.464226
vt 0.117393 0.464226
vn 1.0000 -0.0000 0.0000
vn 0.0000 -0.0000 1.0000
vn 0.9239 0.3827 0.0000
vn 0.7071 0.7071 0.0000
vn -0.9239 -0.3827 -0.0000
vn -0.9952 -0.0980 -0.0000
vn -1.0000 0.0000 -0.0000
vn -0.7071 -0.7071 -0.0000
vn -0.3827 -0.9239 -0.0000
vn -0.0000 -1.0000 -0.0000
vn -0.7071 0.0000 0.7071
vn -0.7055 -0.0666 0.7055
vn -0.7052 -0.0728 0.7052
vn -0.6533 -0.2706 0.7071
vn -0.5000 -0.5000 0.7071
vn 0.9952 0.0980 0.0000
vn 0.0000 -0.0000 -1.0000
vn -0.7071 0.0000 -0.7071
vn -0.7052 -0.0728 -0.7052
vn -0.7055 -0.0666 -0.7055
vn -0.6533 -0.2706 -0.7071
vn -0.5000 -0.5000 -0.7071
vn 0.0000 1.0000 0.0000
vn 0.3827 0.9239 0.0000
vn -0.0980 -0.9952 -0.0000
vn 0.0000 -0.7071 0.7071
vn -0.0728 -0.7052 0.7052
vn -0.0666 -0.7055 0.7055
vn -0.2706 -0.6533 0.7071
vn 0.0980 0.9952 0.0000
vn 0.0000 -0.7071 -0.7071
vn -0.0666 -0.7055 -0.7055
vn -0.0728 -0.7052 -0.7052
vn -0.2706 -0.6533 -0.7071
s 1
f 10/1/1 14/2/1 13/3/1 23/4/1
f 12/5/2 9/6/2 25/7/2 24/8/2
f 4/9/3 52/10/4 19/11/4 20/12/3
f 2/13/5 8/14/6 17/15/6 22/16/5
f 8/14/6 9/17/7 15/18/7 17/15/6
f 3/19/8 21/20/8 70/21/9 51/22/9
f 10/1/1 23/4/1 47/23/1 32/24/1
f 34/25/10 7/26/10 10/27/10 32/28/10
f 9/29/10 12/30/10 16/31/10 15/32/10
f 5/33/2 57/34/2 52/35/2 4/36/2
f 7/37/11 9/6/11 8/38/12 6/39/13
f 6/39/2 5/33/2 4/36/2 1/40/2
f 12/41/7 24/42/7 11/43/7 16/44/7
f 10/45/2 7/37/2 6/39/2 1/40/2
f 2/46/14 3/47/15 57/34/15 5/33/14
f 8/38/12 2/46/14 5/33/14 6/39/13
f 1/48/16 4/9/3 20/12/3 18/49/16
f 36/50/8 9/29/8 7/26/8 34/25/8
f 1/48/16 18/49/16 14/2/1 10/1/1
f 32/24/1 47/23/1 38/51/1 39/52/1
f 37/53/17 48/54/17 49/55/17 36/56/17
f 29/57/3 45/58/3 44/59/4 28/60/4
f 27/61/5 46/62/5 42/63/6 26/64/6
f 26/64/6 42/63/6 40/65/7 36/66/7
f 36/50/10 40/67/10 41/68/10 37/69/10
f 30/70/17 29/71/17 28/72/17 77/73/17
f 34/74/18 33/75/19 26/76/20 36/56/18
f 33/75/17 31/77/17 29/71/17 30/70/17
f 35/78/7 48/79/7 37/80/7 41/81/7
f 32/82/17 31/77/17 33/75/17 34/74/17
f 27/83/21 30/70/21 77/73/22 76/84/22
f 26/76/20 33/75/19 30/70/21 27/83/21
f 31/85/16 43/86/16 45/58/3 29/57/3
f 31/85/16 32/24/1 39/52/1 43/86/16
f 49/87/7 25/88/7 9/17/7 36/66/7
f 60/89/23 71/90/23 63/91/23 64/92/23
f 62/93/2 72/94/2 73/95/2 59/96/2
f 53/97/24 69/98/24 19/11/4 52/10/4
f 51/22/9 70/21/9 67/99/25 58/100/25
f 58/100/25 67/99/25 65/101/10 59/102/10
f 22/16/5 21/20/8 3/19/8 2/13/5
f 60/89/23 81/103/23 96/104/23 71/90/23
f 83/105/7 81/106/7 60/107/7 56/108/7
f 59/109/7 65/110/7 66/111/7 62/112/7
f 54/113/2 53/114/2 52/35/2 57/34/2
f 56/115/26 55/116/27 58/117/28 59/96/26
f 55/116/2 50/118/2 53/114/2 54/113/2
f 62/119/10 66/120/10 61/121/10 72/122/10
f 60/123/2 50/118/2 55/116/2 56/115/2
f 51/124/29 54/113/29 57/34/15 3/47/15
f 58/117/28 55/116/27 54/113/29 51/124/29
f 50/125/30 68/126/30 69/98/24 53/97/24
f 85/127/8 83/105/8 56/108/8 59/109/8
f 50/125/30 60/89/23 64/92/23 68/126/30
f 81/103/23 88/128/23 87/129/23 96/104/23
f 86/130/17 85/131/17 98/132/17 97/133/17
f 78/134/24 28/60/4 44/59/4 93/135/24
f 75/136/9 74/137/25 91/138/25 95/139/9
f 74/137/25 85/140/10 89/141/10 91/138/25
f 85/127/7 86/142/7 90/143/7 89/144/7
f 79/145/17 77/73/17 28/72/17 78/146/17
f 83/147/31 85/131/31 74/148/32 82/149/33
f 82/149/17 79/145/17 78/146/17 80/150/17
f 84/151/10 90/152/10 86/153/10 97/154/10
f 81/155/17 83/147/17 82/149/17 80/150/17
f 75/156/34 76/84/22 77/73/22 79/145/34
f 74/148/32 75/156/34 79/145/34 82/149/33
f 80/157/30 78/134/24 93/135/24 92/158/30
f 80/157/30 92/158/30 88/128/23 81/103/23
f 98/159/10 85/140/10 59/102/10 73/160/10
f 95/139/9 94/161/8 76/162/8 75/136/9
f 76/162/8 94/161/8 46/62/5 27/61/5
