# Blender v3.1.0 Alpha OBJ File: 'BF_Chassis_Parts.blend'
# www.blender.org
o BF_Chassis_Edge
v -0.320000 -0.200000 -0.347978
v -0.384776 -0.276537 -0.367977
v -0.341421 -0.341422 -0.367977
v -0.310866 -0.245922 -0.347977
v -0.366298 -0.268883 -0.347977
v -0.380000 -0.200000 -0.347978
v -0.380000 -0.152022 -0.347978
v -0.400000 -0.200000 -0.367977
v -0.400000 -0.132023 -0.367978
v -0.320000 -0.152022 -0.347978
v -0.500000 0.000000 -0.500000
v -0.500000 -0.132023 -0.367977
v -0.320000 0.000000 -0.500000
v -0.320000 -0.152022 -0.500000
v -0.400000 -0.132022 -0.500000
v -0.500000 -0.132022 -0.500000
v -0.400000 -0.200000 -0.500000
v -0.320000 -0.200000 -0.500000
v -0.284853 -0.284853 -0.500000
v -0.310866 -0.245922 -0.500000
v -0.341421 -0.341422 -0.500000
v -0.384776 -0.276537 -0.500000
v -0.320000 0.000000 -0.347978
v -0.500000 0.000000 -0.367977
v -0.400000 0.000000 -0.367978
v -0.400000 -0.200000 0.367977
v -0.384776 -0.276537 0.367977
v -0.284853 -0.284853 0.347977
v -0.310866 -0.245922 0.347977
v -0.366298 -0.268883 0.347977
v -0.320000 -0.200000 0.347977
v -0.320000 -0.152022 0.347978
v -0.380000 -0.200000 0.347978
v -0.380000 -0.152022 0.347978
v -0.500000 0.000000 0.500000
v -0.400000 -0.132023 0.367978
v -0.499999 -0.132023 0.367977
v -0.320000 -0.000000 0.500000
v -0.320000 -0.152022 0.500000
v -0.400000 -0.132022 0.500000
v -0.500000 -0.132023 0.500000
v -0.400000 -0.200000 0.500000
v -0.320000 -0.200000 0.500000
v -0.284853 -0.284853 0.500000
v -0.310866 -0.245922 0.500000
v -0.384776 -0.276537 0.500000
v -0.320000 0.000000 0.347978
v -0.500000 0.000000 0.367977
v -0.400000 0.000000 0.367978
v -0.200000 -0.320000 -0.347978
v -0.276537 -0.384776 -0.367977
v -0.284853 -0.284853 -0.347977
v -0.245922 -0.310865 -0.347977
v -0.268883 -0.366298 -0.347977
v -0.200000 -0.380000 -0.347978
v -0.152022 -0.380000 -0.347978
v -0.327280 -0.327279 -0.347977
v -0.200000 -0.400000 -0.367978
v -0.132023 -0.400000 -0.367978
v -0.152022 -0.320000 -0.347978
v 0.000000 -0.500000 -0.500000
v -0.132023 -0.499999 -0.367977
v -0.000000 -0.320000 -0.500000
v -0.152022 -0.320000 -0.500000
v -0.132022 -0.400000 -0.500000
v -0.132023 -0.500000 -0.500000
v -0.200000 -0.400000 -0.500000
v -0.200000 -0.320000 -0.500000
v -0.245922 -0.310865 -0.500000
v -0.276537 -0.384776 -0.500000
v 0.000000 -0.320000 -0.347978
v 0.000000 -0.500000 -0.367977
v 0.000000 -0.400000 -0.367978
v -0.200000 -0.400000 0.367977
v -0.276537 -0.384776 0.367977
v -0.341422 -0.341421 0.367977
v -0.327280 -0.327279 0.347977
v -0.245922 -0.310865 0.347977
v -0.268883 -0.366298 0.347977
v -0.200000 -0.320000 0.347977
v -0.152023 -0.320000 0.347978
v -0.200000 -0.380000 0.347978
v -0.152023 -0.380000 0.347978
v -0.000000 -0.500000 0.500000
v -0.132023 -0.400000 0.367978
v -0.132023 -0.499999 0.367977
v -0.000000 -0.320000 0.500000
v -0.152022 -0.320000 0.500000
v -0.132023 -0.400000 0.500000
v -0.132023 -0.500000 0.500000
v -0.200000 -0.400000 0.500000
v -0.200000 -0.320000 0.500000
v -0.245922 -0.310865 0.500000
v -0.341422 -0.341421 0.500000
v -0.276537 -0.384776 0.500000
v -0.000000 -0.320000 0.347978
v -0.000000 -0.500000 0.367977
v -0.000000 -0.400000 0.367978
vt 0.154656 0.157609
vt 0.154656 0.032985
vt 0.030228 0.032985
vt 0.203636 0.604462
vt 0.285613 0.604462
vt 0.285613 0.496233
vt 0.305776 0.157609
vt 0.305776 0.032985
vt 0.267393 0.032985
vt 0.177760 0.496233
vt 0.285989 0.496233
vt 0.285989 0.433049
vt 0.177760 0.433049
vt 0.285989 0.377366
vt 0.285989 0.314624
vt 0.177760 0.314623
vt 0.177760 0.377366
vt 0.154656 0.728136
vt 0.030228 0.157609
vt 0.079376 0.157609
vt 0.030228 0.157609
vt 0.030228 0.728135
vt 0.285989 0.496233
vt 0.204075 0.496233
vt 0.204075 0.604461
vt 0.340200 0.376586
vt 0.328968 0.433054
vt 0.378154 0.433054
vt 0.491206 0.337137
vt 0.474614 0.315618
vt 0.456595 0.363494
vt 0.406967 0.363494
vt 0.372187 0.328714
vt 0.285906 0.496233
vt 0.177760 0.496233
vt 0.177760 0.604461
vt 0.434778 0.335683
vt 0.399998 0.300903
vt 0.444089 0.423748
vt 0.449051 0.487528
vt 0.471699 0.482557
vt 0.478488 0.370928
vt 0.193926 0.157609
vt 0.231932 0.157609
vt 0.231931 0.032985
vt 0.154656 0.728135
vt 0.177843 0.744531
vt 0.177843 0.141214
vt 0.193926 0.032985
vt 0.030228 0.728135
vt 0.030228 0.852759
vt 0.204012 0.496233
vt 0.204012 0.604461
vt 0.285989 0.604461
vt 0.305776 0.157609
vt 0.305776 0.032985
vt 0.267393 0.032985
vt 0.177761 0.433049
vt 0.177760 0.496233
vt 0.285989 0.496233
vt 0.177761 0.377366
vt 0.285989 0.433049
vt 0.203636 0.496233
vt 0.203635 0.604461
vt 0.285550 0.604461
vt 0.328968 0.433054
vt 0.340200 0.489522
vt 0.385643 0.470699
vt 0.520109 0.477286
vt 0.516878 0.438184
vt 0.493770 0.440093
vt 0.372187 0.537394
vt 0.406967 0.502614
vt 0.285906 0.604461
vt 0.285907 0.496233
vt 0.177761 0.496233
vt 0.434778 0.530425
vt 0.449051 0.487528
vt 0.470726 0.545122
vt 0.491206 0.534392
vt 0.497360 0.376376
vt 0.193926 0.728135
vt 0.193926 0.852759
vt 0.231931 0.852759
vt 0.285989 0.744531
vt 0.285989 0.141214
vt 0.154656 0.728135
vt 0.030228 0.728135
vt 0.030228 0.852759
vt 0.203636 0.496233
vt 0.203636 0.604461
vt 0.285613 0.604461
vt 0.231932 0.032985
vt 0.231932 0.157609
vt 0.267393 0.157609
vt 0.177760 0.433049
vt 0.177760 0.496233
vt 0.285989 0.496233
vt 0.177761 0.377366
vt 0.285989 0.433049
vt 0.177760 0.251880
vt 0.154656 0.157609
vt 0.030228 0.157609
vt 0.030228 0.728135
vt 0.079376 0.728136
vt 0.203636 0.496233
vt 0.203635 0.604461
vt 0.285550 0.604461
vt 0.340200 0.489523
vt 0.385643 0.470700
vt 0.520109 0.477286
vt 0.516878 0.438184
vt 0.493770 0.440093
vt 0.372187 0.537395
vt 0.406967 0.502615
vt 0.285907 0.604461
vt 0.285907 0.496233
vt 0.177761 0.496233
vt 0.434778 0.530426
vt 0.470726 0.545122
vt 0.491206 0.534393
vt 0.497360 0.376376
vt 0.193926 0.728135
vt 0.193926 0.852759
vt 0.231931 0.852759
vt 0.177843 0.744531
vt 0.177843 0.141214
vt 0.154657 0.157609
vt 0.154656 0.032985
vt 0.030228 0.032985
vt 0.203636 0.604462
vt 0.285613 0.604462
vt 0.285613 0.496233
vt 0.231932 0.157609
vt 0.267393 0.157609
vt 0.177760 0.496233
vt 0.285989 0.496233
vt 0.285989 0.433049
vt 0.177760 0.433049
vt 0.285989 0.377366
vt 0.285989 0.496233
vt 0.204075 0.496233
vt 0.204075 0.604461
vt 0.340200 0.376585
vt 0.378154 0.433053
vt 0.491206 0.337137
vt 0.474614 0.315618
vt 0.456595 0.363494
vt 0.406967 0.363494
vt 0.372187 0.328714
vt 0.177761 0.604461
vt 0.285907 0.604462
vt 0.285907 0.496233
vt 0.434778 0.335682
vt 0.399998 0.300902
vt 0.467233 0.425156
vt 0.444089 0.423748
vt 0.478488 0.370928
vt 0.193926 0.157609
vt 0.231931 0.032985
vt 0.193926 0.032985
vt 0.285989 0.141214
vt 0.177760 0.251880
vt 0.177760 0.314623
vt 0.285989 0.314624
vt 0.177760 0.377366
vt 0.203636 0.496233
vt 0.177761 0.377366
vt 0.285989 0.377366
vt 0.079376 0.728135
vt 0.285989 0.604461
vt 0.385643 0.395409
vt 0.285906 0.604461
vt 0.467233 0.425156
vt 0.154656 0.157609
vt 0.154656 0.852759
vt 0.285989 0.496233
vt 0.285989 0.377366
vt 0.285550 0.496233
vt 0.498348 0.495495
vt 0.177761 0.604461
vt 0.399998 0.565205
vt 0.471699 0.482558
vt 0.520109 0.380838
vt 0.231932 0.728135
vt 0.154656 0.852759
vt 0.285613 0.496233
vt 0.285989 0.377366
vt 0.285989 0.251880
vt 0.030228 0.157609
vt 0.079376 0.157609
vt 0.285550 0.496233
vt 0.498348 0.495495
vt 0.177761 0.604461
vt 0.399998 0.565206
vt 0.520109 0.380838
vt 0.231932 0.728135
vt 0.154657 0.728135
vt 0.203636 0.496233
vt 0.177760 0.377366
vt 0.285989 0.604461
vt 0.385643 0.395408
vt 0.177761 0.496233
vt 0.285989 0.744531
vt 0.285989 0.251880
vt 0.285989 0.377366
vn 1.0000 -0.0000 0.0000
vn 0.0000 -0.0000 1.0000
vn 0.9239 0.3827 0.0000
vn 0.7071 0.7071 0.0000
vn -0.9239 -0.3827 -0.0000
vn -0.9952 -0.0980 0.0000
vn -1.0000 0.0000 -0.0000
vn -0.7071 -0.7071 -0.0000
vn -0.3827 -0.9239 -0.0000
vn -0.0000 -1.0000 -0.0000
vn -0.7071 0.0000 0.7071
vn -0.7055 -0.0666 0.7055
vn -0.6533 -0.2706 0.7071
vn -0.5000 -0.5000 0.7071
vn -0.7052 -0.0728 0.7052
vn 0.9952 0.0980 0.0000
vn 0.0000 -0.0000 -1.0000
vn -0.7071 0.0000 -0.7071
vn -0.7052 -0.0728 -0.7052
vn -0.7055 -0.0666 -0.7055
vn -0.5000 -0.5000 -0.7071
vn -0.6533 -0.2706 -0.7071
vn 0.0000 1.0000 0.0000
vn 0.3827 0.9239 0.0000
vn -0.0980 -0.9952 -0.0000
vn 0.0000 -0.7071 0.7071
vn -0.0728 -0.7052 0.7052
vn -0.0666 -0.7055 0.7055
vn -0.2706 -0.6533 0.7071
vn 0.0980 0.9952 0.0000
vn 0.0000 -0.7071 -0.7071
vn -0.0666 -0.7055 -0.7055
vn -0.2706 -0.6533 -0.7071
vn -0.0728 -0.7052 -0.7052
s 1
f 10/1/1 14/2/1 13/3/1
f 12/4/2 9/5/2 25/6/2
f 20/7/3 4/8/3 52/9/4
f 22/10/5 2/11/5 8/12/6
f 17/13/6 8/12/6 9/14/7
f 3/15/8 21/16/8 70/17/9
f 32/18/1 10/1/1 23/19/1
f 32/20/10 34/21/10 7/22/10
f 9/23/10 12/24/10 16/25/10
f 5/26/2 57/27/2 52/28/2
f 7/29/11 9/30/11 8/31/12
f 1/32/2 6/33/2 5/26/2
f 12/34/7 24/35/7 11/36/7
f 10/37/2 7/38/2 6/33/2
f 2/39/13 3/40/14 57/41/14
f 6/42/15 8/31/12 2/39/13
f 1/43/16 4/44/3 20/45/3
f 34/46/8 36/47/8 9/48/8
f 10/1/1 1/43/16 18/49/16
f 32/18/1 47/50/1 38/51/1
f 37/52/17 48/53/17 49/54/17
f 29/55/3 45/56/3 44/57/4
f 26/58/6 27/59/5 46/60/5
f 36/61/7 26/58/6 42/62/6
f 36/63/10 40/64/10 41/65/10
f 77/66/17 30/67/17 29/68/17
f 34/69/18 33/70/19 26/71/20
f 30/67/17 33/72/17 31/73/17
f 35/74/7 48/75/7 37/76/7
f 32/77/17 31/73/17 33/72/17
f 76/78/21 27/79/22 30/80/22
f 27/81/22 26/71/20 33/70/19
f 31/82/16 43/83/16 45/84/3
f 43/83/16 31/82/16 32/18/1
f 36/47/7 49/85/7 25/86/7
f 60/87/23 71/88/23 63/89/23
f 62/90/2 72/91/2 73/92/2
f 53/93/24 69/94/24 19/95/4
f 58/96/25 51/97/9 70/98/9
f 59/99/10 58/96/25 67/100/25
f 22/101/5 21/16/8 3/15/8
f 71/88/23 60/87/23 81/102/23
f 56/103/7 83/104/7 81/105/7
f 59/106/7 65/107/7 66/108/7
f 54/109/2 53/110/2 52/28/2
f 56/111/26 55/112/27 58/113/28
f 54/109/2 55/114/2 50/115/2
f 62/116/10 66/117/10 61/118/10
f 60/119/2 50/115/2 55/114/2
f 3/40/14 51/120/29 54/121/29
f 51/122/29 58/113/28 55/112/27
f 50/123/30 68/124/30 69/125/24
f 59/126/8 85/127/8 83/128/8
f 68/124/30 50/123/30 60/87/23
f 81/102/23 88/129/23 87/130/23
f 86/131/17 85/132/17 98/133/17
f 78/134/24 28/135/4 44/57/4
f 95/136/9 75/137/9 74/138/25
f 91/139/25 74/138/25 85/140/10
f 85/141/7 86/142/7 90/143/7
f 79/144/17 77/66/17 28/145/17
f 83/146/31 85/147/31 74/148/32
f 80/149/17 82/150/17 79/144/17
f 84/151/10 90/152/10 86/153/10
f 81/154/17 83/155/17 82/150/17
f 79/156/33 75/157/33 76/78/21
f 82/158/34 74/148/32 75/157/33
f 80/159/30 78/134/24 93/160/24
f 81/102/23 80/159/30 92/161/30
f 98/162/10 85/127/10 59/126/10
f 95/163/9 94/164/8 76/165/8
f 76/165/8 94/164/8 46/166/5
f 10/1/1 13/3/1 23/19/1
f 12/4/2 25/6/2 24/167/2
f 20/7/3 52/9/4 19/95/4
f 22/10/5 8/12/6 17/13/6
f 17/13/6 9/14/7 15/168/7
f 3/15/8 70/17/9 51/169/9
f 32/18/1 23/19/1 47/50/1
f 32/20/10 7/22/10 10/170/10
f 9/23/10 16/25/10 15/171/10
f 5/26/2 52/28/2 4/172/2
f 7/29/11 8/31/12 6/42/15
f 1/32/2 5/26/2 4/172/2
f 12/34/7 11/36/7 16/173/7
f 10/37/2 6/33/2 1/32/2
f 2/39/13 57/41/14 5/174/13
f 6/42/15 2/39/13 5/174/13
f 1/43/16 20/45/3 18/49/16
f 34/46/8 9/48/8 7/175/8
f 10/1/1 18/49/16 14/2/1
f 32/18/1 38/51/1 39/176/1
f 37/52/17 49/54/17 36/177/17
f 29/55/3 44/57/4 28/135/4
f 26/58/6 46/60/5 42/62/6
f 36/61/7 42/62/6 40/178/7
f 36/63/10 41/65/10 37/179/10
f 77/66/17 29/68/17 28/145/17
f 34/69/18 26/71/20 36/180/18
f 30/67/17 31/73/17 29/68/17
f 35/74/7 37/76/7 41/181/7
f 32/77/17 33/72/17 34/182/17
f 76/78/21 30/80/22 77/183/21
f 27/81/22 33/70/19 30/184/22
f 31/82/16 45/84/3 29/185/3
f 43/83/16 32/18/1 39/176/1
f 36/47/7 25/86/7 9/48/7
f 60/87/23 63/89/23 64/186/23
f 62/90/2 73/92/2 59/187/2
f 53/93/24 19/95/4 52/9/4
f 58/96/25 70/98/9 67/100/25
f 59/99/10 67/100/25 65/188/10
f 22/101/5 3/15/8 2/189/5
f 71/88/23 81/102/23 96/190/23
f 56/103/7 81/105/7 60/191/7
f 59/106/7 66/108/7 62/192/7
f 54/109/2 52/28/2 57/27/2
f 56/111/26 58/113/28 59/193/26
f 54/109/2 50/115/2 53/110/2
f 62/116/10 61/118/10 72/194/10
f 60/119/2 55/114/2 56/195/2
f 3/40/14 54/121/29 57/41/14
f 51/122/29 55/112/27 54/196/29
f 50/123/30 69/125/24 53/197/24
f 59/126/8 83/128/8 56/198/8
f 68/124/30 60/87/23 64/186/23
f 81/102/23 87/130/23 96/190/23
f 86/131/17 98/133/17 97/199/17
f 78/134/24 44/57/4 93/160/24
f 95/136/9 74/138/25 91/139/25
f 91/139/25 85/140/10 89/200/10
f 85/141/7 90/143/7 89/201/7
f 79/144/17 28/145/17 78/202/17
f 83/146/31 74/148/32 82/158/34
f 80/149/17 79/144/17 78/202/17
f 84/151/10 86/153/10 97/203/10
f 81/154/17 82/150/17 80/149/17
f 79/156/33 76/78/21 77/183/21
f 82/158/34 75/157/33 79/156/33
f 80/159/30 93/160/24 92/161/30
f 81/102/23 92/161/30 88/129/23
f 98/162/10 59/126/10 73/204/10
f 95/163/9 76/165/8 75/205/9
f 76/165/8 46/166/5 27/206/5
