# Blender v2.83.0 OBJ File: 'RR_Default_Parts.blend'
# www.blender.org
o RR_Corner
v -0.500000 -0.460000 -0.340000
v -0.478563 -0.460000 -0.420000
v -0.399998 -0.499999 -0.443921
v -0.420000 -0.460000 -0.478565
v -0.459997 -0.500000 -0.340000
v -0.443920 -0.499999 -0.399999
v -0.339999 -0.500000 -0.459997
v -0.339999 -0.460000 -0.500000
v -0.459997 -0.500000 -0.000000
v -0.500000 -0.460000 -0.000000
v -0.000000 -0.500000 -0.000000
v -0.000000 -0.500000 -0.459997
v -0.000000 -0.460000 -0.500000
v -0.420000 0.000000 -0.478564
v -0.478563 0.000000 -0.420000
v 0.000000 0.000000 -0.500000
v -0.500000 0.000000 -0.340000
v -0.339999 0.000000 -0.500000
v -0.500000 0.000000 0.000000
vt 0.260523 0.835235
vt 0.260523 0.781593
vt 0.180069 0.760036
vt 0.153248 0.806491
vt 0.074718 0.727960
vt 0.121172 0.701139
vt 0.099615 0.620685
vt 0.045973 0.620685
vt 0.153248 0.781597
vt 0.153248 0.164765
vt 0.260523 0.164765
vt 0.260523 0.781597
vt 0.609167 0.781597
vt 0.609167 0.164765
vt 0.687698 0.164765
vt 0.687698 0.781597
vt 0.099615 0.164766
vt 0.045973 0.164766
vt 0.716442 0.781597
vt 0.716442 0.164765
vt 0.716442 0.781593
vt 0.716442 0.835235
vt 0.716442 0.164766
vt 0.501892 0.781597
vt 0.501892 0.164765
vt 0.045973 0.781597
vt 0.045973 0.164765
vn -0.0877 -0.7044 -0.7044
vn -0.0987 -0.7037 -0.7036
vn -0.3535 -0.7071 -0.6123
vn -0.6124 -0.7071 -0.3535
vn -0.7036 -0.7037 -0.0987
vn -0.7044 -0.7044 -0.0877
vn -0.5000 0.0000 -0.8660
vn -0.1305 0.0000 -0.9914
vn -0.8660 0.0000 -0.5000
vn -0.7071 -0.7071 -0.0000
vn 0.0000 0.0000 -1.0000
vn 0.0000 -0.7071 -0.7071
vn -0.0000 -1.0000 0.0000
vn -0.9914 0.0000 -0.1305
vn -1.0000 -0.0000 0.0000
s 1
f 8/1/1 7/2/2 3/3/3 4/4/3
f 2/5/4 6/6/4 5/7/5 1/8/6
f 4/9/7 14/10/7 18/11/8 8/12/8
f 4/4/3 3/3/3 6/6/4 2/5/4
f 2/13/9 15/14/9 14/15/7 4/16/7
f 1/8/6 5/7/5 9/17/10 10/18/10
f 13/19/11 8/12/8 18/11/8 16/20/11
f 12/21/12 7/2/2 8/1/1 13/22/12
f 7/2/13 12/21/13 11/23/13
f 15/14/9 2/13/9 1/24/14 17/25/14
f 17/25/14 1/24/14 10/26/15 19/27/15
f 11/23/13 3/3/13 7/2/13
f 11/23/13 6/6/13 3/3/13
f 6/6/13 11/23/13 5/7/13
f 9/17/13 5/7/13 11/23/13
