# Blender v2.83.0 OBJ File: 'BF_Faired_Parts.blend'
# www.blender.org
o BF_Corner_Top
v -0.450000 0.400000 -0.500000
v -0.500000 0.400000 -0.450000
v -0.500000 0.450000 -0.500000
v -0.500000 0.500000 -0.500000
v -0.450000 0.000000 -0.500000
v -0.500000 -0.000000 -0.450000
v -0.500000 0.500000 -0.000000
v -0.500000 0.450000 -0.000000
v -0.500000 0.400000 -0.000000
v -0.500000 -0.000000 -0.000000
v 0.000000 0.500000 -0.500000
v 0.000000 0.500000 -0.000000
v 0.000000 0.450000 -0.500000
v -0.000000 0.000000 -0.500000
v 0.000000 0.400000 -0.500000
vt 0.016448 0.981872
vt 0.651651 0.417246
vt 0.016448 0.417246
vt 0.016447 0.918351
vt 0.016447 0.981872
vt 0.079968 0.918351
vt 0.079968 0.918351
vt 0.651652 0.981872
vt 0.783241 0.164613
vt 0.985493 0.144388
vt 0.783241 0.144388
vt 0.651652 0.417246
vt 0.016448 0.981872
vt 0.651652 0.981872
vt 0.087026 0.417246
vt 0.016447 0.981872
vt 0.087026 0.981872
vt 0.857400 0.292706
vt 0.837175 0.090454
vt 0.837175 0.292706
vt 0.985493 0.292706
vt 0.783241 0.090454
vt 0.783241 0.292706
vt 0.651652 0.981872
vt 0.651652 0.981872
vt 0.651652 0.918351
vt 0.985493 0.164613
vt 0.016448 0.417246
vt 0.016447 0.417246
vt 0.857400 0.090454
vt 0.985493 0.090454
vt 0.651652 0.918351
vn 0.0000 0.0000 -1.0000
vn -0.5774 -0.5773 -0.5774
vn -1.0000 0.0000 0.0000
vn -0.7071 0.0000 -0.7071
vn -0.0000 1.0000 0.0000
s 1
f 1/1/1 14/2/1 5/3/1
f 2/4/2 3/5/2 1/6/2
f 2/7/3 8/8/3 3/5/3
f 4/9/1 13/10/1 3/11/1
f 6/12/3 9/13/3 2/14/3
f 5/15/4 2/16/4 1/17/4
f 7/18/3 3/19/3 8/20/3
f 12/21/5 4/22/5 7/23/5
f 13/24/1 1/6/1 3/5/1
f 1/1/1 15/25/1 14/2/1
f 2/7/3 9/26/3 8/8/3
f 4/9/1 11/27/1 13/10/1
f 6/12/3 10/28/3 9/13/3
f 5/15/4 6/29/4 2/16/4
f 7/18/3 4/30/3 3/19/3
f 12/21/5 11/31/5 4/22/5
f 13/24/1 15/32/1 1/6/1
