# Blender v2.79 (sub 0) OBJ File: ''
# www.blender.org
mtllib Procedural Block.mtl
o Cube_Cube.001
v -0.500000 -0.500000 0.500000
v -0.500000 0.500000 0.500000
v -0.500000 -0.500000 -0.500000
v -0.500000 0.500000 -0.500000
v 0.500000 -0.500000 0.500000
v 0.500000 0.500000 0.500000
v 0.500000 -0.500000 -0.500000
v 0.500000 0.500000 -0.500000
vt 0.749950 0.749950
vt 0.250050 0.749950
vt 0.250050 0.250050
vt 0.749950 0.250050
vt 0.749950 0.250050
vt 0.749950 0.749950
vt 0.250050 0.749950
vt 0.250050 0.250050
vt 0.749950 0.250050
vt 0.749950 0.749950
vt 0.250050 0.749950
vt 0.250050 0.250050
vt 0.749950 0.749950
vt 0.250050 0.749950
vt 0.749950 0.250050
vt 0.250050 0.250050
vt 0.749950 0.250050
vt 0.250050 0.749950
vt 0.749950 0.749950
vt 0.250050 0.250050
vt 0.749950 0.749950
vn 0.0000 0.0000 -1.0000
vn 1.0000 0.0000 0.0000
vn 0.0000 0.0000 1.0000
vn -1.0000 0.0000 0.0000
vn 0.0000 1.0000 0.0000
vn 0.0000 -1.0000 0.0000
usemtl None
s off
f 3/1/1 4/2/1 8/3/1
f 7/4/1 3/1/1 8/3/1
f 7/5/2 8/6/2 6/7/2
f 5/8/2 7/5/2 6/7/2
f 5/9/3 6/10/3 2/11/3
f 2/11/3 1/12/3 5/9/3
f 3/13/4 1/14/4 4/15/4
f 2/16/4 4/15/4 1/14/4
f 2/16/5 6/17/5 4/18/5
f 8/19/5 4/18/5 6/17/5
f 3/20/6 7/5/6 1/14/6
f 5/21/6 1/14/6 7/5/6
