# Blender v2.79 (sub 0) OBJ File: ''
# www.blender.org
mtllib Procedural Rounded Half Block.mtl
o Cylinder_Cylinder.003
v -0.500000 0.500000 0.500000
v -0.500000 0.500000 -0.500000
v -0.500000 -0.500000 0.500000
v -0.500000 -0.500000 -0.500000
v 0.500000 -0.500000 -0.500000
v 0.500000 -0.500000 0.500000
v -0.190983 0.451057 -0.500000
v -0.190983 0.451057 0.500000
v 0.087785 0.309017 0.500000
v 0.087785 0.309017 -0.500000
v 0.309017 0.087785 0.500000
v 0.309017 0.087785 -0.500000
v 0.451057 -0.190983 0.500000
v 0.451057 -0.190983 -0.500000
vt 0.500000 0.125053
vt 0.749965 0.375018
vt 0.250035 0.375018
vt 0.762525 0.118773
vt 0.500000 0.381298
vt 0.237475 0.118773
vt 0.749965 0.375018
vt 0.500000 0.125053
vt 0.500000 0.350021
vt 0.300028 0.150049
vt 0.699972 0.150049
vt 0.779129 0.104666
vt 0.779129 0.044675
vt 0.970872 0.044675
vt 0.970872 0.104666
vt 0.970871 0.164656
vt 0.779129 0.164656
vt 0.970871 0.224647
vt 0.779129 0.224647
vt 0.970871 0.284637
vt 0.779129 0.284637
vt 0.970871 0.344628
vt 0.779128 0.344628
vt 0.500086 0.174664
vt 0.749958 0.424709
vt 0.660460 0.489685
vt 0.555265 0.523825
vt 0.444667 0.523787
vt 0.339494 0.489574
vt 0.250042 0.424536
vt 0.000084 0.499999
vt 0.500000 0.000084
vt 0.630015 0.179034
vt 0.698368 0.389402
vt 0.698368 0.610598
vt 0.630015 0.820966
vt 0.499999 0.999916
vn -1.0000 0.0000 0.0000
vn -0.0000 -1.0000 0.0000
vn 0.1564 0.9877 0.0000
vn 0.4540 0.8910 -0.0000
vn 0.7071 0.7071 -0.0000
vn 0.8910 0.4540 -0.0000
vn 0.9877 0.1564 -0.0000
vn 0.0000 -0.0000 -1.0000
vn 0.0000 -0.0000 1.0000
usemtl None.007
s 1
f 1/1/1 2/2/1 3/3/1
f 2/4/1 4/5/1 3/6/1
f 5/7/2 3/3/2 4/8/2
f 6/9/2 3/10/2 5/11/2
f 7/12/3 2/13/3 1/14/3 8/15/3
f 7/12/4 8/15/4 9/16/4 10/17/4
f 10/17/5 9/16/5 11/18/5 12/19/5
f 12/19/6 11/18/6 13/20/6 14/21/6
f 14/21/7 13/20/7 6/22/7 5/23/7
f 4/24/8 2/25/8 7/26/8 10/27/8 12/28/8 14/29/8 5/30/8
f 3/31/9 6/32/9 13/33/9 11/34/9 9/35/9 8/36/9 1/37/9
