# Blender v2.79 (sub 0) OBJ File: ''
# www.blender.org
mtllib Procedural Inside Convex Corner (3-way).mtl
o Cylinder_Cylinder.002
v 0.451057 0.451057 -0.190983
v 0.500000 0.500000 -0.500000
v 0.500000 0.451057 -0.190983
v 0.451057 0.500000 -0.190983
v 0.500000 0.309017 0.087785
v 0.309017 0.309017 0.087785
v 0.500000 -0.500000 -0.500000
v -0.500000 0.500000 -0.500000
v -0.500000 -0.500000 -0.500000
v 0.309017 0.500000 0.087785
v 0.087785 0.500000 0.309017
v 0.087785 0.309017 0.309017
v 0.198401 0.195000 0.198401
v -0.190983 0.451057 0.451057
v -0.190983 0.451057 0.451057
v -0.190983 0.500000 0.451057
v -0.500000 0.500000 0.500000
v -0.500000 0.500000 0.500000
v -0.190983 0.451057 0.500000
v 0.087785 0.309017 0.500000
v -0.500000 -0.500000 0.500000
v 0.500000 -0.500000 0.500000
v 0.451057 -0.190983 0.500000
v 0.309017 0.087785 0.500000
v 0.500000 0.087785 0.309016
v 0.500000 -0.190983 0.451056
v 0.500000 -0.500000 0.499999
v 0.500000 -0.500000 -0.500000
v 0.500000 0.500000 -0.500000
v 0.451057 -0.190983 0.451057
v 0.451057 -0.190983 0.451056
v 0.309017 0.087785 0.309016
v 0.087785 0.309017 0.087785
v -0.500000 -0.500000 -0.500000
v -0.500000 0.500000 -0.500000
v 0.500000 0.500000 -0.500000
vt 0.456116 0.345522
vt 0.595472 0.274517
vt 0.749950 0.250050
vt 0.749950 0.749950
vt 0.250050 0.749950
vt 0.274517 0.595472
vt 0.345522 0.456116
vt 0.654478 0.543883
vt 0.543884 0.654477
vt 0.404528 0.725483
vt 0.250050 0.749949
vt 0.250050 0.250050
vt 0.749950 0.250050
vt 0.725483 0.404527
vt 0.907066 0.055780
vt 0.907075 0.255764
vt 0.875782 0.055781
vt 0.873803 0.303882
vt 0.853691 0.008192
vt 0.899947 0.005047
vt 0.849925 0.265699
vt 0.849925 0.065730
vt 0.881207 0.065730
vt 0.971991 0.265699
vt 0.839299 0.300224
vt 0.801761 0.300224
vt 0.801760 0.060261
vt 0.948240 0.060261
vt 0.955405 0.132337
vt 0.955405 0.224983
vt 0.803632 0.224983
vt 0.803632 0.025017
vt 0.779610 0.174131
vt 0.890923 0.019928
vt 0.985053 0.087877
vt 0.982777 0.320791
vt 0.500000 0.000071
vt 0.500000 0.999929
vt 0.000071 0.500000
vt 0.500000 0.500000
vt 0.000071 0.999929
vt 0.000071 0.000071
vt 0.500000 0.375534
vt 0.249002 0.124536
vt 0.750998 0.124536
vt 0.250035 0.375018
vt 0.500000 0.125053
vt 0.749965 0.375018
vt 0.000071 0.999929
vt 0.000071 0.000071
vt 0.500000 0.500000
vt 0.749950 0.749950
vt 0.250050 0.250050
vt 0.873527 0.225791
vt 0.821768 0.032627
vt 0.851986 0.024531
vt 0.857744 0.030204
vt 0.826580 0.032931
vt 0.844009 0.232147
vt 0.888252 0.037125
vt 0.879610 0.015716
vt 0.794093 0.333839
vt 0.974748 0.304025
vt 0.925907 0.008075
vt 0.500000 0.125053
vt 0.749965 0.375018
vt 0.250035 0.375018
vt 0.762525 0.118773
vt 0.500000 0.381298
vt 0.237475 0.118773
vt 0.779129 0.164656
vt 0.970871 0.164656
vt 0.970871 0.224647
vt 0.779129 0.224647
vt 0.779129 0.194651
vt 0.904887 0.279397
vt 0.904670 0.278852
vt 0.814133 0.079428
vt 0.935867 0.079428
vt 0.935867 0.278853
vt 0.000084 0.499999
vt 0.500000 0.000084
vt 0.630015 0.179034
vt 0.698368 0.389402
vt 0.698368 0.610598
vt 0.630015 0.820966
vt 0.499999 0.999916
vt 0.883232 0.026049
vt 0.802736 0.003838
vt 0.985835 0.003838
vt 0.849659 0.303791
vt 0.802737 0.303791
vt 0.861344 0.245699
vt 0.831401 0.245198
vt 0.825200 0.045730
vt 0.946960 0.045730
vt 0.862604 0.245198
vn -0.0000 0.0000 1.0000
vn 1.0000 -0.0000 0.0000
vn 0.9877 0.1564 0.0000
vn 0.0000 0.1564 0.9877
vn 0.8910 0.4540 0.0000
vn -0.0000 0.4540 0.8910
vn 0.0000 0.7071 0.7071
vn 0.7071 0.7071 0.0000
vn 0.0000 -0.0000 -1.0000
vn -1.0000 0.0000 -0.0000
vn -0.0000 -1.0000 -0.0000
vn 0.1564 0.9877 -0.0000
vn 0.0000 0.9877 0.1564
vn 0.9877 0.0000 0.1564
vn 0.0000 0.8910 0.4540
vn 0.7071 -0.0000 0.7071
vn 0.4540 -0.0000 0.8910
vn 0.0000 1.0000 0.0000
vn 0.1564 0.0000 0.9877
vn 0.8910 0.0000 0.4540
vn 0.4540 0.8910 0.0000
usemtl None.008
s 1
f 20/1/1 19/2/1 18/3/1 21/4/1 22/5/1 23/6/1 24/7/1
f 5/8/2 25/9/2 26/10/2 27/11/2 28/12/2 29/13/2 3/14/2
f 23/15/3 22/16/3 30/17/3
f 22/18/4 26/19/4 30/20/4
f 24/21/5 23/22/5 31/23/5 32/24/5
f 31/25/6 26/26/6 25/27/6 32/28/6
f 32/29/7 25/30/7 5/31/7 33/32/7
f 20/33/8 24/34/8 32/35/8 33/36/8
f 34/37/9 29/38/9 28/39/9
f 35/40/9 36/41/9 34/42/9
f 34/43/10 21/44/10 35/45/10
f 21/46/10 18/47/10 35/48/10
f 28/49/11 21/50/11 34/51/11
f 28/52/11 27/11/11 21/53/11
f 18/54/12 19/55/12 14/56/12
usemtl None.009
s off
f 1/57/13 3/58/13 2/59/13
f 1/57/14 2/59/14 4/60/14
f 1/61/15 6/62/15 5/63/15 3/64/15
s 1
f 2/65/9 7/66/9 8/67/9
f 7/68/9 9/69/9 8/70/9
f 6/71/16 10/72/16 11/73/16 12/74/16 13/75/16
f 14/76/17 15/77/17 12/78/17 11/79/17 16/80/17
f 8/81/18 17/82/18 16/83/18 11/84/18 10/85/18 4/86/18 2/87/18
f 16/88/19 18/54/19 14/56/19
f 10/89/20 6/90/20 1/91/20 4/92/20
f 14/93/21 19/94/21 20/95/21 12/96/21 15/97/21
l 29 35
