# Blender v2.79 (sub 0) OBJ File: ''
# www.blender.org
mtllib Procedural Filled Inverse Rounded Corner (3-way).mtl
o Cylinder_Cylinder.009
v 0.087785 0.309017 0.500000
v -0.190983 0.451057 0.500000
v -0.500000 0.500000 0.500000
v -0.500000 -0.500000 0.500000
v 0.500000 -0.500000 0.500000
v 0.451057 -0.190983 0.500000
v 0.309017 0.087785 0.500000
v 0.500000 0.309017 0.087785
v 0.500000 0.087785 0.309016
v 0.500000 -0.190983 0.451056
v 0.500000 -0.500000 0.499999
v 0.500000 -0.500000 -0.500000
v 0.500000 0.500000 -0.500000
v 0.500000 0.451057 -0.190983
v -0.500000 -0.500000 -0.500000
v -0.500000 0.500000 -0.500000
v 0.500000 0.500000 -0.500000
v -0.190814 0.500000 0.451058
v 0.087954 0.500000 0.309018
v 0.309186 0.500000 0.087786
v 0.451226 0.500000 -0.190982
vt 0.456116 0.345522
vt 0.595472 0.274517
vt 0.749950 0.250050
vt 0.749950 0.749950
vt 0.250050 0.749950
vt 0.274517 0.595472
vt 0.345522 0.456116
vt 0.654478 0.543883
vt 0.543884 0.654477
vt 0.404528 0.725483
vt 0.250050 0.749949
vt 0.250050 0.250050
vt 0.749950 0.250050
vt 0.725483 0.404527
vt 0.500000 0.000071
vt 0.500000 0.999929
vt 0.000071 0.500000
vt 0.500000 0.500000
vt 0.000071 0.999929
vt 0.000071 0.000071
vt 0.500000 0.375534
vt 0.249002 0.124536
vt 0.750998 0.124536
vt 0.250035 0.375018
vt 0.500000 0.125053
vt 0.749965 0.375018
vt 0.000071 0.999929
vt 0.000071 0.000071
vt 0.500000 0.500000
vt 0.749950 0.749950
vt 0.250050 0.250050
vt 0.274516 0.595388
vt 0.345521 0.456033
vt 0.456115 0.345438
vt 0.595472 0.274432
vt 0.749950 0.250050
vt 0.749950 0.749950
vt 0.250050 0.749950
vt 0.825060 0.060009
vt 0.868995 0.254996
vt 0.825060 0.259991
vt 0.971409 0.050273
vt 0.971409 0.232505
vt 0.771527 0.164622
vt 0.771448 0.117922
vt 0.993552 0.185364
vt 0.944956 0.269584
vt 0.832272 0.269584
vt 0.783591 0.185364
vt 0.839933 0.087777
vt 0.937210 0.087777
vt 0.895970 0.259961
vt 0.849342 0.259981
vt 0.781596 0.060019
vt 0.963775 0.060019
vt 0.900280 0.265343
vt 0.846155 0.276219
vt 0.824368 0.027194
vt 0.793418 0.068547
vt 0.980974 0.068547
vt 0.911229 0.274310
vt 0.863164 0.274310
vt 0.902625 0.256195
vt 0.870465 0.018383
vt 0.923541 0.017131
vn -0.0000 0.0000 1.0000
vn 1.0000 -0.0000 0.0000
vn 0.0000 -0.0000 -1.0000
vn -1.0000 0.0000 -0.0000
vn -0.0000 -1.0000 -0.0000
vn 0.0000 1.0000 -0.0000
vn 0.1113 0.7025 0.7029
vn 0.3390 0.6650 0.6655
vn 0.5774 0.5772 0.5774
vn 0.6657 0.6648 0.3390
vn 0.7039 0.7015 0.1111
vn 0.6652 0.3390 0.6652
vn 0.7027 0.1113 0.7027
usemtl None.021
s 1
f 1/1/1 2/2/1 3/3/1 4/4/1 5/5/1 6/6/1 7/7/1
f 8/8/2 9/9/2 10/10/2 11/11/2 12/12/2 13/13/2 14/14/2
f 15/15/3 13/16/3 12/17/3
f 16/18/3 17/19/3 15/20/3
f 15/21/4 4/22/4 16/23/4
f 4/24/4 3/25/4 16/26/4
f 12/27/5 4/28/5 15/29/5
f 12/30/5 11/11/5 4/31/5
f 18/32/6 19/33/6 20/34/6 21/35/6 17/36/6 16/37/6 3/38/6
f 3/39/7 2/40/7 18/41/7
f 1/42/8 19/43/8 18/44/8 2/45/8
f 8/46/9 20/47/9 19/48/9 1/49/9 7/50/9 9/51/9
f 14/52/10 21/53/10 20/54/10 8/55/10
f 21/56/11 14/57/11 17/58/11
f 9/59/12 7/60/12 6/61/12 10/62/12
f 11/63/13 10/64/13 6/65/13
