# Blender v2.79 (sub 0) OBJ File: ''
# www.blender.org
mtllib Procedural Rounded Corner (3-way).mtl
o RenderObject.007_RenderObject.006
v -0.190983 -0.500000 0.451048
v -0.500000 -0.500000 0.499991
v -0.500000 -0.500000 -0.500000
v 0.500000 -0.500000 -0.500000
v 0.451057 -0.500000 -0.190986
v 0.309017 -0.500000 0.087780
v 0.087786 -0.500000 0.309010
v -0.190983 0.451057 -0.500000
v 0.087786 0.309018 -0.500000
v 0.309017 0.087789 -0.500000
v 0.451057 -0.190977 -0.500000
v 0.500000 -0.499991 -0.500000
v -0.500000 -0.499991 -0.500000
v -0.500000 0.500000 -0.500000
v -0.500000 0.451057 -0.190977
v -0.500000 0.500000 -0.499991
v -0.500000 -0.499991 -0.499991
v -0.500000 -0.499991 0.500000
v -0.500000 -0.190977 0.451057
v -0.500000 0.087789 0.309019
v -0.500000 0.309018 0.087789
v -0.190339 -0.499991 0.450847
v -0.205494 -0.190977 0.404310
v 0.060425 -0.190977 0.268400
v 0.269518 -0.190977 0.058894
v 0.404734 -0.190977 -0.206777
v 0.269614 0.087789 -0.250569
v 0.154592 0.087789 -0.024576
v -0.023273 0.087789 0.153641
v -0.249478 0.087789 0.269254
v -0.317984 0.309018 0.058898
v -0.153636 0.309018 -0.025100
v -0.024409 0.309018 -0.154582
v 0.059160 0.309018 -0.318777
v -0.404307 0.451057 -0.206166
v -0.317903 0.451057 -0.250327
v -0.249963 0.451057 -0.318401
v -0.206028 0.451057 -0.404724
v -0.499991 0.500000 -0.499997
v -0.499997 0.500000 -0.499991
v -0.499997 -0.499991 -0.499992
v -0.499995 0.500000 -0.499992
v 0.089265 -0.499991 0.307943
v -0.499995 -0.499991 -0.499993
v -0.499993 0.500000 -0.499994
v 0.309118 -0.499991 0.087655
v -0.499993 -0.499991 -0.499995
v 0.451293 -0.499991 -0.191687
v -0.499992 -0.499991 -0.499997
vt 0.327283 0.487695
vt 0.250075 0.499924
vt 0.250075 0.250075
vt 0.499926 0.250075
vt 0.487698 0.327283
vt 0.452209 0.396933
vt 0.396934 0.452207
vt 0.262303 0.672717
vt 0.297792 0.603066
vt 0.353066 0.547791
vt 0.422716 0.512302
vt 0.499924 0.500074
vt 0.499924 0.749925
vt 0.250075 0.749925
vt 0.672717 0.262303
vt 0.749925 0.250075
vt 0.749925 0.499924
vt 0.500076 0.499924
vt 0.512305 0.422716
vt 0.547793 0.353066
vt 0.603068 0.297792
vt 0.801118 0.209729
vt 0.777614 0.181625
vt 0.806348 0.158768
vt 0.827214 0.187462
vt 0.837349 0.138934
vt 0.854595 0.169800
vt 0.871097 0.123359
vt 0.883774 0.156765
vt 0.907072 0.112528
vt 0.915276 0.148234
vt 0.944850 0.106144
vt 0.949713 0.144099
vt 0.949713 0.181428
vt 0.920910 0.182169
vt 0.894457 0.188310
vt 0.870350 0.199042
vt 0.848171 0.214514
vt 0.828136 0.234965
vt 0.857958 0.255805
vt 0.870856 0.239641
vt 0.886606 0.227577
vt 0.904369 0.219742
vt 0.923980 0.216232
vt 0.944676 0.217775
vt 0.889749 0.272392
vt 0.895792 0.263299
vt 0.904045 0.256434
vt 0.913743 0.252219
vt 0.924411 0.250855
vt 0.935174 0.252620
vt 0.922710 0.286109
vn -0.0000 -1.0000 -0.0000
vn 0.0000 0.0000 -1.0000
vn -1.0000 0.0000 0.0000
vn 0.1549 0.1545 0.9758
vn 0.4492 0.1550 0.8799
vn 0.6990 0.1541 0.6983
vn 0.8804 0.1547 0.4483
vn 0.9759 0.1544 0.1544
vn 0.8823 0.4496 0.1394
vn 0.7961 0.4495 0.4052
vn 0.6322 0.4496 0.6310
vn 0.4065 0.4495 0.7954
vn 0.1400 0.4495 0.8822
vn 0.1115 0.7027 0.7027
vn 0.3238 0.7027 0.6336
vn 0.5035 0.7028 0.5026
vn 0.6341 0.7027 0.3227
vn 0.7027 0.7027 0.1110
vn 0.0719 0.8887 0.4528
vn 0.2087 0.8887 0.4083
vn 0.3245 0.8887 0.3238
vn 0.4086 0.8887 0.2080
vn 0.4528 0.8887 0.0715
vn 0.1564 0.9874 0.0247
vn 0.1411 0.9874 0.0718
vn 0.1121 0.9874 0.1118
vn 0.0721 0.9874 0.1410
vn 0.0248 0.9874 0.1564
usemtl None_NONE.007
s off
f 1/1/1 2/2/1 3/3/1 4/4/1 5/5/1 6/6/1 7/7/1
f 8/8/2 9/9/2 10/10/2 11/11/2 12/12/2 13/13/2 14/14/2
f 15/15/3 16/16/3 17/17/3 18/18/3 19/19/3 20/20/3 21/21/3
f 19/22/4 18/23/4 22/24/4 23/25/4
f 22/24/5 7/26/5 24/27/5 23/25/5
f 7/26/6 6/28/6 25/29/6 24/27/6
f 6/28/7 5/30/7 26/31/7 25/29/7
f 12/32/8 11/33/8 26/31/8 5/30/8
f 10/34/9 27/35/9 26/31/9 11/33/9
f 28/36/10 25/29/10 26/31/10 27/35/10
f 29/37/11 24/27/11 25/29/11 28/36/11
f 30/38/12 23/25/12 24/27/12 29/37/12
f 20/39/13 19/22/13 23/25/13 30/38/13
f 21/40/14 20/39/14 30/38/14 31/41/14
f 31/41/15 30/38/15 29/37/15 32/42/15
f 32/42/16 29/37/16 28/36/16 33/43/16
f 33/43/17 28/36/17 27/35/17 34/44/17
f 9/45/18 34/44/18 27/35/18 10/34/18
f 15/46/19 21/40/19 31/41/19 35/47/19
f 35/47/20 31/41/20 32/42/20 36/48/20
f 36/48/21 32/42/21 33/43/21 37/49/21
f 37/49/22 33/43/22 34/44/22 38/50/22
f 8/51/23 38/50/23 34/44/23 9/45/23
f 38/50/24 8/51/24 39/52/24
f 38/50/25 39/52/25 37/49/25
f 37/49/26 39/52/26 36/48/26
f 36/48/27 39/52/27 35/47/27
f 35/47/28 39/52/28 15/46/28
l 45 47
l 48 26
l 37 45
l 44 43
l 39 49
l 43 24
l 42 44
l 49 48
l 36 42
l 46 25
l 40 41
l 41 22
l 47 46
l 35 40
