# Blender v3.1.0 Alpha OBJ File: ''
# www.blender.org
o RenderObject.004
v 0.500001 -0.500000 -0.500001
v -0.500001 -0.500000 -0.500001
v -0.500001 0.500000 -0.500001
v -0.500001 -0.500000 0.500001
vt 0.822667 0.022667
vt 0.022667 0.022667
vt 0.022667 0.822666
vt 0.022667 0.822667
vt 0.822666 0.022667
vt 0.883789 0.868164
vt 0.991211 0.868164
vt 0.883789 0.760742
vn 0.0000 0.0000 -1.0000
vn -1.0000 -0.0000 0.0000
vn 0.0000 -1.0000 -0.0000
vn 0.5773 0.5774 0.5773
s 1
f 1/1/1 2/2/1 3/3/1
f 4/4/2 3/5/2 2/2/2
f 4/4/3 2/2/3 1/1/3
f 3/6/4 4/7/4 1/8/4
