# Blender v3.1.0 Alpha OBJ File: ''
# www.blender.org
o RenderObject.008
v -0.500001 -0.500000 0.500001
v 0.500000 -0.500000 0.500000
v -0.500001 0.500000 -0.500001
v 0.500001 -0.500000 -0.500001
v -0.500001 -0.500000 -0.500001
vt 0.882812 0.868164
vt 0.882812 0.755859
vt 0.995117 0.868164
vt 0.882812 0.868164
vt 0.679688 0.679688
vt 0.012695 0.012695
vt 0.679688 0.012695
vt 0.679688 0.012695
vt 0.012695 0.679688
vt 0.012695 0.679688
vn 0.0000 0.7071 0.7071
vn 0.7071 0.7071 0.0000
vn -0.0000 -1.0000 -0.0000
vn -1.0000 0.0000 0.0000
vn 0.0000 0.0000 -1.0000
s 1
f 1/1/1 2/2/1 3/3/1
f 2/2/2 4/4/2 3/3/2
f 2/5/3 5/6/3 4/7/3
f 3/8/4 5/6/4 1/9/4
f 4/7/5 5/6/5 3/10/5
f 2/5/3 1/9/3 5/6/3
