# Blender v3.1.0 Alpha OBJ File: ''
# www.blender.org
o Cylinder_Cylinder.003
v -0.500000 0.500000 0.500000
v -0.500000 0.500000 -0.500000
v -0.500000 -0.500000 0.500000
v -0.500000 -0.500000 -0.500000
v 0.500000 -0.500000 -0.500000
v 0.500000 -0.500000 0.500000
v -0.190983 0.451057 -0.500000
v -0.190983 0.451057 0.500000
v 0.087785 0.309017 0.500000
v 0.087785 0.309017 -0.500000
v 0.309017 0.087785 0.500000
v 0.309017 0.087785 -0.500000
v 0.451057 -0.190983 0.500000
v 0.451057 -0.190983 -0.500000
vt 0.022667 0.022667
vt 0.022667 0.822667
vt 0.822667 0.022667
vt 0.822667 0.022667
vt 0.022667 0.022667
vt 0.022667 0.822667
vt 0.822667 0.022667
vt 0.022667 0.022667
vt 0.022667 0.822667
vt 0.886014 0.832651
vt 0.990333 0.865289
vt 0.886014 0.865289
vt 0.990333 0.832651
vt 0.886014 0.865289
vt 0.886014 0.832651
vt 0.990333 0.832651
vt 0.886014 0.865289
vt 0.886014 0.832651
vt 0.990333 0.832651
vt 0.886014 0.865289
vt 0.886014 0.832651
vt 0.990333 0.832651
vt 0.886014 0.865289
vt 0.886014 0.832651
vt 0.492895 0.669880
vt 0.669880 0.492895
vt 0.669880 0.492895
vt 0.492895 0.669880
vt 0.022667 0.022667
vt 0.990333 0.832651
vt 0.990333 0.865289
vt 0.990333 0.865289
vt 0.990333 0.865289
vt 0.990333 0.865289
vt 0.783512 0.269880
vt 0.269880 0.783512
vt 0.022667 0.822667
vt 0.269880 0.783512
vt 0.822667 0.022667
vt 0.783512 0.269880
vn -1.0000 -0.0000 0.0000
vn 0.0000 -1.0000 -0.0000
vn 0.1564 0.9877 0.0000
vn 0.3090 0.9511 0.0000
vn 0.5878 0.8090 0.0000
vn 0.8090 0.5878 0.0000
vn 0.9511 0.3090 0.0000
vn 0.9877 0.1564 0.0000
vn 0.0000 0.0000 -1.0000
vn -0.0000 -0.0000 1.0000
s 1
f 1/1/1 2/2/1 3/3/1
f 2/4/1 4/5/1 3/6/1
f 5/7/2 3/6/2 4/5/2
f 6/8/2 3/3/2 5/9/2
f 2/10/3 8/11/4 7/12/4
f 8/13/4 10/14/5 7/15/4
f 9/16/5 12/17/6 10/18/5
f 11/19/6 14/20/7 12/21/6
f 13/22/7 5/23/8 14/24/7
f 10/25/9 12/26/9 4/5/9
f 11/27/10 9/28/10 3/29/10
f 2/10/3 1/30/3 8/11/4
f 8/13/4 9/31/5 10/14/5
f 9/16/5 11/32/6 12/17/6
f 11/19/6 13/33/7 14/20/7
f 13/22/7 6/34/8 5/23/8
f 5/7/9 4/5/9 14/35/9
f 4/5/9 2/2/9 7/36/9
f 14/35/9 4/5/9 12/26/9
f 7/36/9 10/25/9 4/5/9
f 1/37/10 3/29/10 8/38/10
f 3/29/10 6/39/10 13/40/10
f 8/38/10 3/29/10 9/28/10
f 13/40/10 11/27/10 3/29/10
