# Blender v3.1.0 Alpha OBJ File: ''
# www.blender.org
o RenderObject.007
v 0.500000 0.500000 -0.500000
v -0.500000 0.500000 -0.500000
v -0.500000 0.500000 0.500000
v 0.000000 0.000000 0.000000
v 0.500000 -0.500000 0.500000
v -0.500000 -0.500000 0.500000
v -0.500000 -0.500000 -0.500000
v 0.500000 -0.500000 -0.500000
vt 0.822266 0.022461
vt 0.022461 0.022461
vt 0.022461 0.822266
vt 0.886719 0.863281
vt 0.886719 0.764648
vt 0.986328 0.764648
vt 0.986328 0.764648
vt 0.886719 0.863281
vt 0.022461 0.022461
vt 0.822266 0.022461
vt 0.022461 0.822266
vt 0.822266 0.022461
vt 0.022461 0.022461
vt 0.022461 0.822266
vt 0.822266 0.022461
vt 0.022461 0.022461
vt 0.822266 0.022461
vt 0.022461 0.022461
vt 0.022461 0.822266
vt 0.022461 0.822266
vt 0.022461 0.022461
vt 0.022461 0.022461
vn 0.0000 1.0000 0.0000
vn 0.7071 -0.0000 0.7071
vn 0.0000 0.7071 0.7071
vn 0.7071 0.7071 0.0000
vn 0.0000 -0.0000 1.0000
vn -1.0000 0.0000 0.0000
vn 0.0000 0.0000 -1.0000
vn 1.0000 0.0000 0.0000
vn 0.0000 -1.0000 -0.0000
s 1
f 1/1/1 2/2/1 3/3/1
f 3/4/2 4/5/2 1/6/2
f 5/7/3 1/8/3 4/5/3
f 5/7/4 4/5/4 3/4/4
f 3/3/5 6/9/5 5/10/5
f 2/11/6 6/12/6 3/13/6
f 6/14/6 2/15/6 7/16/6
f 8/17/7 7/16/7 2/11/7
f 2/15/7 1/18/7 8/19/7
f 1/1/8 5/20/8 8/21/8
f 6/14/9 7/16/9 8/17/9
f 6/12/9 8/19/9 5/22/9
l 5 2
