# Blender v2.83.0 OBJ File: ''
# www.blender.org
mtllib Procedural Rounded Corner (2-way).mtl
o Cylinder_Cylinder.001_Cylinder_Cylinder.006
v -0.500000 0.500000 -0.500000
v -0.500000 -0.500000 -0.500000
v 0.500000 -0.500000 -0.500000
v -0.190983 0.451057 -0.500000
v 0.087785 0.309017 -0.500000
v 0.309017 0.087785 -0.500000
v 0.451057 -0.190983 -0.500000
v -0.500000 -0.500000 0.500000
v -0.500000 0.451057 -0.190983
v -0.500000 0.309017 0.087785
v -0.500000 0.087785 0.309017
v -0.500000 -0.190983 0.451057
v -0.500000 -0.500000 -0.500000
v 0.500000 -0.500000 -0.500000
v -0.500000 -0.500000 0.500000
v 0.500000 -0.500000 0.500000
v 0.087785 0.309017 0.087785
v 0.309017 0.087785 0.309017
v 0.451057 -0.190983 0.451057
v -0.190983 0.451057 -0.190983
vt 0.499497 0.286388
vt 0.707361 0.000000
vt 0.421261 0.208073
vt 0.353721 0.000000
vt 0.371030 0.109391
vt 0.598080 0.336670
vt 0.707361 0.353995
vt 0.000000 0.000000
vt 0.000000 0.000000
vt 0.000000 0.000000
vt 0.864096 0.250229
vt 0.995200 0.183859
vt 0.995200 0.250229
vt 0.814750 0.183859
vt 0.995200 0.114074
vt 0.783068 0.114074
vt 0.995200 0.047705
vt 0.926275 0.306686
vt 0.995200 0.306686
vt 0.995200 0.281335
vt 0.814750 0.211550
vt 0.995200 0.211550
vt 0.864096 0.145181
vt 0.995200 0.145181
vt 0.926274 0.088723
vt 0.995200 0.088723
vt 0.995200 0.047705
vt 0.995200 0.347705
vt 0.783068 0.281335
vt 0.995200 0.347705
vt 0.000000 0.000000
vt 0.772152 0.047705
vt 0.772152 0.347705
vt 0.353721 0.354269
vt 0.000000 0.353722
vt 0.353721 0.353722
vt 0.421260 0.499917
vt 0.707361 0.707990
vt 0.499497 0.421602
vt 0.353721 0.000000
vt 0.353721 0.000190
vt 0.707361 0.353995
vt 0.598080 0.371321
vt 0.371029 0.598600
vt 0.353721 0.707990
vn -0.0000 0.0000 -1.0000
vn 0.0000 0.0000 1.0000
vn 0.6430 0.7658 -0.0000
vn 0.8090 0.5878 -0.0000
vn 0.5878 0.8090 -0.0000
vn 0.8406 0.5417 -0.0000
vn 0.9511 0.3090 -0.0000
vn 0.9605 0.2784 -0.0000
vn 0.9877 0.1564 -0.0000
vn 0.3813 0.9244 -0.0000
vn 0.3090 0.9511 -0.0000
vn 0.0000 0.3090 0.9511
vn 0.0000 0.5417 0.8406
vn 0.0000 0.5878 0.8090
vn 0.0000 0.7658 0.6430
vn 0.0000 0.8090 0.5878
vn 0.0000 0.9244 0.3813
vn 0.0000 0.9511 0.3090
vn 0.0000 0.9877 0.1564
vn 0.0000 0.1564 0.9877
vn 0.0000 0.2784 0.9605
vn 0.1564 0.9877 -0.0000
vn -0.0000 -1.0000 0.0000
vn -1.0000 -0.0000 0.0000
usemtl None.005
s 1
f 6/1/1 2/2/1 5/3/1
f 1/4/1 4/5/1 2/2/1
f 2/2/1 7/6/1 3/7/1
f 3/8/2 13/9/2 14/10/2
f 17/11/3 6/12/4 5/13/5
f 18/14/6 7/15/7 6/12/4
f 19/16/8 3/17/9 7/15/7
f 20/18/10 5/13/5 4/19/11
f 12/20/12 18/21/13 11/22/14
f 11/22/14 17/23/15 10/24/16
f 10/24/16 20/25/17 9/26/18
f 1/27/19 9/26/18 20/25/17
f 8/28/20 19/29/21 12/20/12
f 1/30/22 20/18/10 4/19/11
f 4/5/1 5/3/1 2/2/1
f 7/6/1 2/2/1 6/1/1
f 3/8/2 2/31/2 13/9/2
f 17/11/3 18/14/6 6/12/4
f 18/14/6 19/16/8 7/15/7
f 19/16/8 16/32/9 3/17/9
f 20/18/10 17/11/3 5/13/5
f 12/20/12 19/29/21 18/21/13
f 11/22/14 18/21/13 17/23/15
f 10/24/16 17/23/15 20/25/17
f 8/28/20 16/33/20 19/29/21
f 15/34/23 3/8/23 16/35/23 8/36/23
usemtl None.004
f 10/37/24 2/38/24 11/39/24
f 2/40/23 13/41/23 3/8/23 15/34/23 8/36/23
f 8/42/24 12/43/24 2/38/24
f 2/38/24 9/44/24 1/45/24
f 12/43/24 11/39/24 2/38/24
f 9/44/24 2/38/24 10/37/24
