# Blender v3.1.0 Alpha OBJ File: ''
# www.blender.org
o RenderObject.006
v 0.500000 -0.500000 0.500000
v 0.500000 -0.500000 -0.500000
v 0.500000 0.500000 -0.500000
v -0.500000 0.500000 0.500000
v -0.500000 -0.500000 0.500000
v -0.500000 0.500000 -0.500000
v -0.500000 -0.500000 -0.500000
vt 0.022461 0.822266
vt 0.022461 0.022461
vt 0.822266 0.022461
vt 0.822266 0.022461
vt 0.022461 0.822266
vt 0.022461 0.022461
vt 0.887695 0.862305
vt 0.987305 0.862305
vt 0.887695 0.762695
vt 0.887695 0.862305
vt 0.022461 0.022461
vt 0.022461 0.822266
vt 0.822266 0.022461
vt 0.022461 0.822266
vt 0.822266 0.022461
vt 0.022461 0.022461
vt 0.022461 0.822266
vt 0.822266 0.022461
vt 0.022461 0.022461
vt 0.022461 0.822266
vt 0.822266 0.022461
vn 1.0000 0.0000 0.0000
vn 0.0000 -0.0000 1.0000
vn 0.7071 0.7071 0.0000
vn 0.0000 0.7071 0.7071
vn 0.0000 0.0000 -1.0000
vn -1.0000 -0.0000 0.0000
vn 0.0000 -1.0000 -0.0000
s 1
f 1/1/1 2/2/1 3/3/1
f 1/4/2 4/5/2 5/6/2
f 4/7/3 1/8/3 6/9/3
f 3/10/4 6/9/4 1/8/4
f 3/11/5 2/12/5 6/13/5
f 6/14/5 2/15/5 7/16/5
f 6/13/6 7/16/6 5/17/6
f 6/14/6 5/18/6 4/19/6
f 2/2/7 1/4/7 7/20/7
f 5/6/7 7/21/7 1/1/7
