# Blender v3.1.0 Alpha OBJ File: 'RR_Default_Parts.blend'
# www.blender.org
o RR_Corner
v -0.500000 -0.460000 -0.340000
v -0.478563 -0.460000 -0.420000
v -0.399998 -0.499999 -0.443921
v -0.420000 -0.460000 -0.478565
v -0.459997 -0.500000 -0.340000
v -0.443920 -0.499999 -0.399999
v -0.339999 -0.500000 -0.459997
v -0.339999 -0.460000 -0.500000
v -0.459997 -0.500000 -0.000000
v -0.500000 -0.460000 -0.000000
v -0.000000 -0.500000 -0.000000
v -0.000000 -0.500000 -0.459997
v -0.000000 -0.460000 -0.500000
v -0.420000 0.000000 -0.478564
v -0.478563 0.000000 -0.420000
v 0.000000 0.000000 -0.500000
v -0.500000 0.000000 -0.340000
v -0.339999 0.000000 -0.500000
v -0.500000 0.000000 0.000000
vt 0.140239 0.395638
vt 0.140239 0.365704
vt 0.095342 0.353674
vt 0.036552 0.335774
vt 0.062475 0.320807
vt 0.050445 0.275910
vt 0.140239 0.365706
vt 0.080375 0.365706
vt 0.080375 0.021489
vt 0.080375 0.379597
vt 0.334796 0.365706
vt 0.334796 0.021489
vt 0.378620 0.021489
vt 0.020511 0.275910
vt 0.050445 0.021489
vt 0.394660 0.021489
vt 0.394660 0.365706
vt 0.394660 0.365704
vt 0.394660 0.021489
vt 0.274932 0.021489
vt 0.274932 0.365706
vt 0.020511 0.365706
vt 0.140239 0.021489
vt 0.378620 0.365706
vt 0.020511 0.021489
vt 0.394660 0.395638
vt 0.020511 0.021489
vn -0.0877 -0.7044 -0.7044
vn -0.0987 -0.7037 -0.7036
vn -0.3535 -0.7071 -0.6123
vn -0.6124 -0.7071 -0.3535
vn -0.7036 -0.7037 -0.0987
vn -0.1305 0.0000 -0.9914
vn -0.5000 0.0000 -0.8660
vn -0.8660 0.0000 -0.5000
vn -0.7044 -0.7044 -0.0877
vn -0.7071 -0.7071 -0.0000
vn 0.0000 0.0000 -1.0000
vn 0.0000 -0.7071 -0.7071
vn -0.0000 -1.0000 0.0000
vn -0.9914 -0.0000 -0.1305
vn -1.0000 -0.0000 0.0000
s 1
f 8/1/1 7/2/2 3/3/3
f 2/4/4 6/5/4 5/6/5
f 8/7/6 4/8/7 14/9/7
f 4/10/3 3/3/3 6/5/4
f 2/11/8 15/12/8 14/13/7
f 1/14/9 5/6/5 9/15/10
f 16/16/11 13/17/11 8/7/6
f 12/18/12 7/2/2 8/1/1
f 7/2/13 12/18/13 11/19/13
f 17/20/14 15/12/8 2/11/8
f 17/20/14 1/21/14 10/22/15
f 11/19/13 3/3/13 7/2/13
f 11/19/13 6/5/13 3/3/13
f 6/5/13 11/19/13 5/6/13
f 9/15/13 5/6/13 11/19/13
f 8/1/1 3/3/3 4/10/3
f 2/4/4 5/6/5 1/14/9
f 8/7/6 14/9/7 18/23/6
f 4/10/3 6/5/4 2/4/4
f 2/11/8 14/13/7 4/24/7
f 1/14/9 9/15/10 10/25/10
f 16/16/11 8/7/6 18/23/6
f 12/18/12 8/1/1 13/26/12
f 17/20/14 2/11/8 1/21/14
f 17/20/14 10/22/15 19/27/15
