# Blender v3.1.0 Alpha OBJ File: 'RR_Armored_Parts.blend'
# www.blender.org
o RR_Edge_V_m_RR_Block_Armoured_112
v -0.000000 0.500000 -0.500000
v -0.130000 0.370000 -0.460000
v -0.130000 0.370000 -0.500000
v -0.500000 0.500000 -0.000000
v -0.500000 0.370000 -0.130000
v -0.460000 0.370000 -0.130000
v 0.000000 -0.500000 -0.500000
v -0.130000 -0.370000 -0.460000
v -0.130000 -0.370000 -0.500000
v -0.500000 -0.500000 0.000000
v -0.500000 -0.370000 -0.130000
v -0.460000 -0.370000 -0.130000
v 0.000000 -0.370000 -0.500000
v 0.000000 -0.370000 -0.460000
v 0.000000 0.370000 -0.460000
v 0.000000 0.370000 -0.500000
v -0.500000 -0.370000 0.000000
v -0.460000 0.370000 0.000000
v -0.460000 -0.370000 0.000000
v -0.500000 0.370000 0.000000
v -0.399999 -0.500000 -0.443920
v -0.443921 -0.500000 -0.399998
v -0.340001 -0.500000 -0.459997
v -0.130000 -0.500000 -0.460000
v -0.460000 -0.500000 -0.130000
v -0.459997 -0.500000 -0.340000
v -0.500000 -0.500000 -0.130000
v -0.130000 -0.500000 -0.500000
v -0.443921 0.500000 -0.399999
v -0.399998 0.500000 -0.443921
v -0.459997 0.500000 -0.340000
v -0.340000 0.500000 -0.459998
v -0.460000 0.500000 -0.130000
v -0.500000 0.500000 -0.130000
v -0.130000 0.500000 -0.500000
v -0.130000 0.500000 -0.460000
vt 0.024212 0.021509
vt 0.089206 0.086502
vt 0.024212 0.086502
vt 0.089206 0.086502
vt 0.024212 0.021509
vt 0.024212 0.086502
vt 0.024212 0.021509
vt 0.089206 0.086502
vt 0.024212 0.086502
vt 0.044210 0.086503
vt 0.024212 0.021509
vt 0.044210 0.021509
vt 0.024212 0.086503
vt 0.044210 0.021509
vt 0.044210 0.086503
vt 0.024212 0.021509
vt 0.044210 0.021509
vt 0.044210 0.021509
vt 0.024212 0.086503
vt 0.044210 0.086503
vt 0.044210 0.021509
vt 0.024212 0.086503
vt 0.024212 0.021509
vt 0.024212 0.021509
vt 0.044210 0.086503
vt 0.044210 0.021509
vt 0.164199 0.521460
vt 0.194195 0.021508
vt 0.194195 0.521460
vt 0.186158 0.521460
vt 0.164199 0.021508
vt 0.164199 0.521460
vt 0.164199 0.521460
vt 0.194195 0.021508
vt 0.164199 0.021508
vt 0.024212 0.086503
vt 0.044210 0.021509
vt 0.044210 0.086503
vt 0.024212 0.021509
vt 0.044210 0.021509
vt 0.024212 0.021509
vt 0.089206 0.086502
vt 0.089206 0.021508
vt 0.024212 0.456466
vt 0.089206 0.086502
vt 0.089206 0.456466
vt 0.089206 0.456466
vt 0.089206 0.521460
vt 0.194196 0.521460
vt 0.194196 0.021508
vt 0.089206 0.021508
vt 0.089206 0.086502
vt 0.194196 0.521460
vt 0.194196 0.021508
vt 0.089206 0.021508
vt 0.089206 0.521460
vt 0.024212 0.086502
vt 0.089206 0.021508
vt 0.089206 0.021509
vt 0.089206 0.021509
vt 0.024212 0.086503
vt 0.044210 0.086503
vt 0.024212 0.086503
vt 0.024212 0.021509
vt 0.044210 0.086503
vt 0.024212 0.086503
vt 0.164199 0.021508
vt 0.186158 0.021508
vt 0.194195 0.521460
vt 0.024212 0.021509
vt 0.024212 0.086502
vt 0.024212 0.086502
vt 0.024212 0.456466
vn -1.0000 0.0000 0.0000
vn -0.0000 -0.0000 -1.0000
vn -0.0000 1.0000 -0.0000
vn -0.0000 -1.0000 0.0000
vn -0.9914 0.0000 -0.1305
vn -0.8660 -0.0000 -0.5000
vn -0.5000 -0.0000 -0.8660
vn -0.1305 -0.0000 -0.9914
s 1
f 4/1/1 5/2/1 20/3/1
f 28/4/2 13/5/2 7/6/2
f 17/7/1 27/8/1 10/9/1
f 3/10/1 36/11/1 35/12/1
f 9/13/3 14/14/3 13/5/3
f 5/15/4 18/16/4 20/17/4
f 11/18/2 25/19/2 27/20/2
f 15/21/4 3/22/4 16/23/4
f 19/24/3 11/25/3 17/26/3
f 26/27/5 29/28/6 22/29/6
f 22/30/6 30/31/7 21/32/7
f 23/33/8 30/34/7 32/35/8
f 24/36/1 9/37/1 28/38/1
f 33/39/2 5/15/2 34/40/2
f 1/41/2 3/42/2 35/43/2
f 19/44/1 6/45/1 12/46/1
f 8/47/2 24/48/2 23/49/8
f 32/50/8 36/51/2 2/52/2
f 26/53/5 6/45/1 31/54/5
f 23/49/8 2/52/2 8/47/2
f 6/45/1 33/55/1 31/54/5
f 26/53/5 25/56/1 12/46/1
f 15/57/2 8/47/2 2/52/2
f 4/1/1 34/58/1 5/2/1
f 28/4/2 9/59/2 13/5/2
f 17/7/1 11/60/1 27/8/1
f 3/10/1 2/61/1 36/11/1
f 9/13/3 8/62/3 14/14/3
f 5/15/4 6/63/4 18/16/4
f 11/18/2 12/64/2 25/19/2
f 15/21/4 2/65/4 3/22/4
f 19/24/3 12/66/3 11/25/3
f 26/27/5 31/67/5 29/28/6
f 22/30/6 29/68/6 30/31/7
f 23/33/8 21/69/7 30/34/7
f 24/36/1 8/70/1 9/37/1
f 33/39/2 6/63/2 5/15/2
f 1/41/2 16/71/2 3/42/2
f 19/44/1 18/72/1 6/45/1
f 26/53/5 12/46/1 6/45/1
f 23/49/8 32/50/8 2/52/2
f 15/57/2 14/73/2 8/47/2
