# Blender v2.83.0 OBJ File: 'RR_Armored_Parts.blend'
# www.blender.org
o RR_Face_V_m_RR_Block_Armoured_112.005
v -0.500000 -0.370000 0.370000
v -0.500000 -0.500000 0.500000
v -0.460000 -0.370000 0.370000
v -0.460000 -0.370000 0.500000
v -0.500000 -0.370000 0.500000
v -0.460000 -0.500000 0.370000
v -0.500000 -0.500000 0.370000
v -0.500000 -0.370000 -0.370000
v -0.500000 -0.500000 -0.500000
v -0.460000 -0.370000 -0.370000
v -0.460000 -0.370000 -0.500000
v -0.500000 -0.370000 -0.500000
v -0.460000 -0.500001 -0.370000
v -0.500000 -0.500001 -0.370000
v -0.500000 0.370000 0.370000
v -0.500000 0.500000 0.500000
v -0.460000 0.370000 0.370000
v -0.460000 0.370000 0.500000
v -0.500000 0.370000 0.500000
v -0.460000 0.500001 0.370000
v -0.500000 0.500001 0.370000
v -0.500000 0.370000 -0.370000
v -0.500000 0.500000 -0.500000
v -0.460000 0.370000 -0.370000
v -0.460000 0.370000 -0.500000
v -0.500000 0.370000 -0.500000
v -0.460000 0.500000 -0.370000
v -0.500000 0.500000 -0.370000
v -0.460000 -0.370000 -0.370000
v -0.460000 -0.370000 -0.500000
v -0.460000 0.370000 -0.370000
v -0.460000 0.370000 -0.500000
vt 0.053872 0.830000
vt 0.053872 0.744200
vt 0.139672 0.744200
vt 0.139672 0.830000
vt 0.713871 0.255800
vt 0.713871 0.170000
vt 0.687471 0.170000
vt 0.687471 0.255800
vt 0.713871 0.830000
vt 0.713871 0.744200
vt 0.687471 0.744200
vt 0.687471 0.830000
vt 0.713871 0.830000
vt 0.628071 0.830000
vt 0.628071 0.744200
vt 0.713871 0.744200
vt 0.713871 0.744200
vt 0.687471 0.744200
vt 0.687471 0.830000
vt 0.713871 0.830000
vt 0.713871 0.830000
vt 0.687471 0.830000
vt 0.628071 0.830000
vt 0.139672 0.830000
vt 0.139672 0.744200
vt 0.628071 0.744200
vt 0.053872 0.170000
vt 0.139672 0.170000
vt 0.139672 0.255800
vt 0.053872 0.255800
vt 0.713871 0.255800
vt 0.687471 0.255800
vt 0.687471 0.170000
vt 0.713871 0.170000
vt 0.713871 0.170000
vt 0.687471 0.170000
vt 0.713871 0.170000
vt 0.713871 0.255800
vt 0.628071 0.255800
vt 0.628071 0.170000
vt 0.713871 0.744200
vt 0.713871 0.830000
vt 0.687471 0.830000
vt 0.687471 0.744200
vt 0.713871 0.170000
vt 0.713871 0.255800
vt 0.687471 0.255800
vt 0.687471 0.170000
vt 0.628071 0.170000
vt 0.628071 0.255800
vt 0.139672 0.255800
vt 0.139672 0.170000
vt 0.687471 0.830000
vt 0.687471 0.744200
vt 0.687471 0.744200
vt 0.687471 0.830000
vt 0.628071 0.744200
vt 0.628071 0.255800
vt 0.713871 0.255800
vt 0.713871 0.744200
vt 0.053872 0.744200
vt 0.053872 0.255800
vn -1.0000 -0.0000 0.0000
vn 0.0000 1.0000 0.0000
vn -0.0000 0.0000 -1.0000
vn -0.0000 0.0000 1.0000
vn 0.0000 -1.0000 0.0000
vn 0.0000 0.0000 0.0000
s 1
f 2/1/1 5/2/1 1/3/1 7/4/1
f 1/5/2 5/6/2 4/7/2 3/8/2
f 7/9/3 1/10/3 3/11/3 6/12/3
f 9/13/1 14/14/1 8/15/1 12/16/1
f 8/17/2 10/18/2 11/19/2 12/20/2
f 14/21/4 13/22/4 10/18/4 8/17/4
f 13/23/1 6/24/1 3/25/1 10/26/1
f 16/27/1 21/28/1 15/29/1 19/30/1
f 15/31/5 17/32/5 18/33/5 19/34/5
f 21/35/3 20/36/3 17/32/3 15/31/3
f 23/37/1 26/38/1 22/39/1 28/40/1
f 22/41/5 26/42/5 25/43/5 24/44/5
f 28/45/4 22/46/4 24/47/4 27/48/4
f 27/49/1 24/50/1 17/51/1 20/52/1
f 25/43/6 32/53/6 31/54/6 24/44/6
f 10/18/6 29/55/6 30/56/6 11/19/6
f 29/57/1 31/58/1 32/59/1 30/60/1
f 3/25/1 4/61/1 18/62/1 17/51/1
f 31/58/1 29/57/1 3/25/1 17/51/1
