# Blender v3.1.0 Alpha OBJ File: 'RR_Armored_Parts.blend'
# www.blender.org
o RR_Corner_m_RR_Block_Armoured_112.002
v -0.443921 -0.260000 -0.399998
v -0.000000 -0.000000 -0.500000
v -0.130000 -0.130000 -0.460000
v -0.130000 -0.130000 -0.500000
v -0.500000 -0.130000 -0.130000
v -0.500000 -0.000000 0.000000
v -0.460000 -0.130000 -0.130000
v -0.500000 -0.300000 -0.340000
v -0.340000 -0.300000 -0.500000
v -0.340000 -0.460000 -0.500000
v -0.420000 -0.300000 -0.478564
v -0.478564 -0.300000 -0.420000
v -0.459997 -0.260000 -0.340000
v -0.399999 -0.260000 -0.443920
v -0.340001 -0.260000 -0.459997
v -0.500000 -0.460000 -0.340000
v -0.459997 -0.500000 -0.340000
v -0.340000 -0.500000 -0.459997
v -0.420000 -0.460000 -0.478564
v -0.478564 -0.460000 -0.419999
v -0.443921 -0.500000 -0.399999
v -0.399999 -0.500000 -0.443920
v -0.000000 -0.460000 -0.500000
v -0.000000 -0.500000 -0.459997
v -0.000000 -0.300000 -0.500000
v -0.000000 -0.260000 -0.459997
v -0.000000 -0.130000 -0.460000
v -0.000000 -0.130000 -0.500000
v -0.000000 -0.500000 0.000000
v -0.459997 -0.500000 0.000000
v -0.500000 -0.460000 0.000000
v -0.500000 -0.300000 0.000000
v -0.459997 -0.260000 0.000000
v -0.460000 -0.130000 0.000000
v -0.500000 -0.130000 0.000000
v -0.399999 -0.000000 -0.443921
v -0.443921 -0.000000 -0.399999
v -0.340001 0.000000 -0.459997
v -0.130000 0.000000 -0.460000
v -0.460000 -0.000000 -0.130000
v -0.459997 0.000000 -0.340000
v -0.130000 -0.000000 -0.500000
v -0.500000 0.000000 -0.130000
vt 0.903995 0.761203
vt 0.888155 0.792882
vt 0.903995 0.792882
vt 0.979234 0.761203
vt 0.987154 0.828522
vt 0.979234 0.828522
vt 0.899750 0.761203
vt 0.888154 0.792882
vt 0.888154 0.761203
vt 0.987154 0.828522
vt 0.976051 0.840402
vt 0.982910 0.844362
vt 0.976051 0.840402
vt 0.971314 0.855958
vt 0.967354 0.849099
vt 0.982910 0.844362
vt 0.987154 0.761203
vt 0.979234 0.828522
vt 0.955474 0.852282
vt 0.022131 0.018512
vt 0.292531 0.064191
vt 0.292531 0.018512
vt 0.157331 0.060112
vt 0.022131 0.018512
vt 0.157331 0.018512
vt 0.022131 0.372112
vt 0.157331 0.236912
vt 0.157331 0.372112
vt 0.292531 0.080911
vt 0.022131 0.018512
vt 0.292531 0.080910
vt 0.292531 0.018512
vt 0.955474 0.860202
vt 0.888154 0.852282
vt 0.888154 0.792883
vt 0.955474 0.761203
vt 0.955474 0.792883
vt 0.903994 0.792882
vt 0.888154 0.761203
vt 0.903994 0.761203
vt 0.971314 0.855958
vt 0.967354 0.849099
vt 0.157331 0.018512
vt 0.022131 0.060112
vt 0.022131 0.018512
vt 0.955474 0.852282
vt 0.955474 0.860202
vt 0.888154 0.792882
vt 0.955474 0.761203
vt 0.888154 0.761203
vt 0.888154 0.852282
vt 0.888154 0.761203
vt 0.022131 0.018512
vt 0.157331 0.060112
vt 0.022131 0.060112
vt 0.022131 0.018512
vt 0.157331 0.236913
vt 0.292531 0.018512
vt 0.022131 0.060112
vt 0.022131 0.018512
vt 0.022132 0.372113
vt 0.157331 0.236913
vt 0.022131 0.236913
vt 0.292531 0.372113
vt 0.157331 0.372113
vt 0.022131 0.018512
vt 0.157331 0.236912
vt 0.022131 0.236912
vt 0.292531 0.372112
vt 0.292531 0.018513
vt 0.888154 0.761203
vt 0.987154 0.761203
vt 0.899750 0.792882
vt 0.979234 0.761203
vt 0.022131 0.064191
vt 0.022131 0.060112
vt 0.022131 0.236912
vt 0.022131 0.080911
vt 0.022131 0.080910
vt 0.888154 0.860202
vt 0.888154 0.761203
vt 0.888154 0.792883
vt 0.157331 0.060112
vt 0.955474 0.792882
vt 0.888154 0.860202
vt 0.157331 0.018512
vt 0.022131 0.236913
vt 0.157331 0.372113
vt 0.157331 0.372112
vn -0.5000 -0.0000 -0.8660
vn -0.1305 -0.0000 -0.9914
vn -0.7071 -0.7071 0.0000
vn -0.7044 -0.7044 -0.0877
vn -0.7036 -0.7037 -0.0987
vn -0.8660 -0.0000 -0.5000
vn -0.7044 0.7044 -0.0877
vn -0.6124 0.7071 -0.3535
vn -0.6124 -0.7071 -0.3535
vn -0.3535 -0.7071 -0.6124
vn -0.7071 0.7071 -0.0000
vn -0.7036 0.7037 -0.0987
vn -0.0987 -0.7037 -0.7036
vn -1.0000 0.0000 0.0000
vn -0.9914 -0.0000 -0.1305
vn -0.0877 -0.7044 -0.7044
vn -0.0000 -0.7071 -0.7071
vn -0.3535 0.7071 -0.6124
vn 0.0000 -1.0000 0.0000
vn -0.0987 0.7037 -0.7036
vn -0.0877 0.7044 -0.7044
vn -0.0000 -0.0000 -1.0000
vn -0.0000 0.7071 -0.7071
s 1
f 11/1/1 10/2/2 19/3/1
f 30/4/3 16/5/4 17/6/5
f 11/7/1 20/8/6 12/9/6
f 8/10/7 1/11/8 12/12/8
f 21/13/9 19/14/10 22/15/10
f 17/6/5 20/16/9 21/13/9
f 32/17/11 13/18/12 8/10/7
f 19/14/10 18/19/13 22/15/10
f 37/20/6 14/21/1 1/22/6
f 3/23/14 42/24/14 4/25/14
f 6/26/14 5/27/14 35/28/14
f 13/29/15 37/20/6 1/22/6
f 36/30/1 15/31/2 14/32/1
f 10/33/16 24/34/17 18/19/13
f 31/35/14 8/36/15 16/37/15
f 20/38/6 8/39/15 12/40/6
f 11/41/18 1/11/8 14/42/18
f 5/43/19 34/44/19 35/45/19
f 11/41/18 15/46/20 9/47/21
f 23/48/22 9/49/2 25/50/22
f 26/51/23 9/47/21 15/46/20
f 18/19/19 29/52/19 17/6/19
f 27/53/19 4/54/19 28/55/19
f 38/56/2 3/57/22 15/58/2
f 40/59/22 5/43/22 43/60/22
f 2/61/22 4/62/22 42/63/22
f 26/64/22 3/57/22 27/65/22
f 41/66/15 7/67/14 40/68/14
f 33/69/14 7/67/14 13/70/15
f 11/1/1 9/71/2 10/2/2
f 30/4/3 31/72/3 16/5/4
f 11/7/1 19/73/1 20/8/6
f 8/10/7 13/18/12 1/11/8
f 21/13/9 20/16/9 19/14/10
f 17/6/5 16/5/4 20/16/9
f 32/17/11 33/74/11 13/18/12
f 19/14/10 10/33/16 18/19/13
f 37/20/6 36/75/1 14/21/1
f 3/23/14 39/76/14 42/24/14
f 6/26/14 43/77/14 5/27/14
f 13/29/15 41/78/15 37/20/6
f 36/30/1 38/79/2 15/31/2
f 10/33/16 23/80/17 24/34/17
f 31/35/14 32/81/14 8/36/15
f 20/38/6 16/82/15 8/39/15
f 11/41/18 12/12/8 1/11/8
f 5/43/19 7/83/19 34/44/19
f 11/41/18 14/42/18 15/46/20
f 23/48/22 10/84/2 9/49/2
f 26/51/23 25/85/23 9/47/21
f 18/19/19 24/34/19 29/52/19
f 29/52/19 30/4/19 17/6/19
f 17/6/19 21/13/19 22/15/19
f 22/15/19 18/19/19 17/6/19
f 27/53/19 3/86/19 4/54/19
f 38/56/2 39/87/22 3/57/22
f 40/59/22 7/83/22 5/43/22
f 2/61/22 28/88/22 4/62/22
f 26/64/22 15/58/2 3/57/22
f 41/66/15 13/70/15 7/67/14
f 33/69/14 34/89/14 7/67/14
