# Blender v2.83.0 OBJ File: 'GC_Parts.blend'
# www.blender.org
o GC_Edge
v -0.500002 -0.420000 -0.310001
v -0.460001 -0.460000 -0.280001
v -0.500001 -0.420000 -0.100001
v -0.460001 -0.460000 -0.120001
v -0.460001 -0.460000 0.280000
v -0.500001 -0.420000 0.310000
v -0.500002 -0.420000 0.099999
v -0.460002 -0.460000 0.119999
v -0.000000 -0.500001 0.367976
v -0.000000 -0.500001 -0.367978
v -0.500002 0.000000 -0.310001
v -0.460001 0.000000 -0.280001
v -0.460001 0.000000 -0.120001
v -0.500001 0.000000 -0.100001
v -0.500002 0.000000 0.099999
v -0.460001 0.000000 0.280000
v -0.460002 0.000000 0.119999
v -0.500001 0.000000 0.309999
v -0.420002 -0.500000 -0.500000
v -0.500002 0.000000 -0.500000
v -0.500002 -0.420000 -0.500000
v -0.000000 -0.500000 -0.500000
v -0.500001 0.000000 0.500000
v -0.500001 -0.420000 0.500000
v -0.420001 -0.500000 0.500000
v -0.000000 -0.500000 0.500000
vt 0.005013 0.994987
vt 0.005013 0.005013
vt 0.112184 0.091098
vt 0.100874 0.091098
vt 0.005018 0.005013
vt 0.005018 0.994987
vt 0.005013 0.539598
vt 0.005013 0.994986
vt 0.163409 0.994986
vt 0.100874 0.091098
vt 0.100874 0.994986
vt 0.005018 0.994987
vt 0.112185 0.091098
vt 0.005013 0.005013
vt 0.005013 0.994987
vt 0.163409 0.994986
vt 0.163409 0.539598
vt 0.005013 0.539598
vt 0.701764 0.916158
vt 0.436998 0.955573
vt 0.269778 0.955572
vt 0.005013 0.994987
vt 0.210304 0.994987
vt 0.210304 0.541186
vt 0.005013 0.555530
vt 0.005013 0.994987
vt 0.214278 0.994987
vt 0.210303 0.994987
vt 0.210303 0.541186
vt 0.005013 0.541186
vt 0.196643 0.994987
vt 0.196643 0.538728
vt 0.005013 0.538728
vt 0.112184 0.994987
vt 0.100874 0.994987
vt 0.163409 0.539598
vt 0.005018 0.005013
vt 0.112185 0.994987
vt 0.005013 0.994986
vt 0.548479 0.955572
vt 0.569381 0.994987
vt 0.701764 0.994987
vt 0.005013 0.916158
vt 0.137395 0.994987
vt 0.005013 0.994987
vt 0.158298 0.955572
vt 0.283713 0.994987
vt 0.423063 0.994987
vt 0.005013 0.541186
vt 0.214278 0.555530
vt 0.005013 0.994987
vt 0.005013 0.994987
vn -0.6000 -0.0000 -0.8000
vn -0.4472 -0.0000 0.8944
vn -1.0000 -0.0000 0.0000
vn -0.4472 -0.0000 -0.8944
vn -0.6000 -0.0000 0.8000
vn -0.7071 -0.7071 0.0000
vn -0.0000 -1.0000 0.0000
s 1
f 16/1/1 5/2/1 6/3/1
f 7/4/2 8/5/2 17/6/2
f 17/7/3 8/8/3 5/9/3
f 3/10/4 14/11/4 13/12/4
f 1/13/5 2/14/5 12/15/5
f 4/16/3 13/17/3 12/18/3
f 25/19/6 8/20/6 4/21/6
f 23/22/3 18/23/3 6/24/3
f 14/25/3 3/26/3 7/27/3
f 20/28/3 21/29/3 1/30/3
f 25/31/7 19/32/7 22/33/7
f 16/1/1 6/3/1 18/34/1
f 7/4/2 17/6/2 15/35/2
f 17/7/3 5/9/3 16/36/3
f 3/10/4 13/12/4 4/37/4
f 1/13/5 12/15/5 11/38/5
f 4/16/3 12/18/3 2/39/3
f 5/40/6 25/19/6 6/41/6
f 6/41/6 25/19/6 24/42/6
f 19/43/6 1/44/6 21/45/6
f 19/43/6 2/46/6 1/44/6
f 3/47/6 8/20/6 7/48/6
f 8/20/6 25/19/6 5/40/6
f 25/19/6 4/21/6 19/43/6
f 19/43/6 4/21/6 2/46/6
f 4/21/6 8/20/6 3/47/6
f 23/22/3 6/24/3 24/49/3
f 14/25/3 7/27/3 15/50/3
f 20/28/3 1/30/3 11/51/3
f 25/31/7 22/33/7 26/52/7
l 9 10
