# Blender v3.1.0 Alpha OBJ File: 'BF_Default_Parts.blend'
# www.blender.org
o BF_Edge
v -0.500000 -0.450000 -0.500000
v -0.500000 0.000000 -0.500000
v -0.450000 -0.500000 -0.500000
v -0.000000 -0.500000 -0.500000
v -0.500000 0.000000 0.500000
v -0.500000 -0.450000 0.500000
v -0.450000 -0.500000 0.500000
v -0.000000 -0.500000 0.500000
vt 0.174930 0.018716
vt 0.156930 0.378716
vt 0.156930 0.018716
vt 0.336930 0.018716
vt 0.174930 0.378716
vt 0.336930 0.018716
vt 0.174930 0.378716
vt 0.336930 0.378716
vt 0.336930 0.378716
vt 0.174930 0.018716
vn -0.7071 -0.7071 -0.0000
vn -0.0000 -1.0000 -0.0000
vn -1.0000 -0.0000 -0.0000
s 1
f 3/1/1 6/2/1 1/3/1
f 4/4/2 7/5/2 3/1/2
f 2/6/3 6/7/3 5/8/3
f 3/1/1 7/5/1 6/2/1
f 4/4/2 8/9/2 7/5/2
f 2/6/3 1/10/3 6/7/3
