# Blender v3.1.0 Alpha OBJ File: 'GSO_Parts.blend'
# www.blender.org
o GSO_Corner
v -0.300000 -0.411111 -0.477778
v -0.361728 -0.398765 -0.477778
v -0.300000 -0.300000 -0.500001
v -0.398766 -0.361728 -0.477778
v -0.411111 -0.300000 -0.477778
v -0.458025 -0.398765 -0.411112
v -0.398766 -0.458025 -0.411112
v -0.477778 -0.300000 -0.411112
v -0.300000 -0.477778 -0.411112
v -0.300000 -0.500000 -0.300001
v -0.411111 -0.477778 -0.300001
v -0.477778 -0.411111 -0.300001
v -0.500000 -0.300000 -0.300001
v -0.500000 0.000000 -0.300001
v -0.300000 0.000000 -0.500001
v -0.411111 0.000000 -0.477778
v -0.477778 0.000000 -0.411112
v -0.000000 -0.500000 -0.300001
v -0.000000 -0.300000 -0.500001
v 0.000000 0.000000 -0.500001
v -0.000000 -0.477778 -0.411112
v -0.000000 -0.411111 -0.477778
v -0.300000 -0.500000 0.000000
v -0.477778 -0.411111 0.000000
v -0.411111 -0.477778 0.000000
v -0.500000 -0.300000 0.000000
v -0.000000 -0.500000 0.000000
v -0.500000 0.000000 0.000000
v -0.411111 -0.132023 -0.477778
v -0.500000 -0.132023 -0.300001
v -0.300000 -0.132023 -0.500001
v -0.477778 -0.132023 -0.411112
v -0.000000 -0.132023 -0.500001
v -0.500000 -0.132023 0.000000
vt 0.016752 0.171559
vt 0.083122 0.119708
vt 0.033344 0.088597
vt 0.166085 0.078226
vt 0.114233 0.088596
vt 0.166085 0.171559
vt 0.072752 0.171559
vt 0.083122 0.038819
vt 0.893154 0.856605
vt 0.980289 0.658605
vt 0.893154 0.658605
vt 0.114233 0.022226
vt 0.166085 0.078226
vt 0.083122 0.078226
vt 0.166085 0.171559
vt 0.072752 0.171559
vt 0.033344 0.078226
vt 0.072752 0.171559
vt 0.083122 0.078226
vt 0.418084 0.078226
vt 0.166085 0.171559
vt 0.166085 0.078226
vt 0.166085 0.423559
vt 0.980289 0.658605
vt 0.893154 0.856604
vt 0.980289 0.856604
vt 0.166085 0.022226
vt 0.292085 0.078226
vt 0.292085 0.171559
vt 0.166085 0.297559
vt 0.072752 0.297559
vt 0.016752 0.297559
vt 0.418084 0.171559
vt 0.418084 0.078226
vt 0.072752 0.423559
vt 0.016752 0.423559
vt 0.016752 0.171559
vt 0.418084 0.423559
vt 0.893154 0.739271
vt 0.980289 0.783271
vt 0.980289 0.739271
vt 0.893154 0.856604
vt 0.893154 0.783271
vt 0.980289 0.783271
vt 0.893154 0.856604
vt 0.980289 0.856604
vt 0.418084 0.171559
vt 0.292085 0.423559
vt 0.980289 0.856605
vt 0.166085 0.022226
vt 0.072752 0.423559
vt 0.893154 0.658605
vt 0.418084 0.022226
vt 0.166085 0.423559
vt 0.980289 0.856604
vt 0.893154 0.783271
vt 0.418084 0.297559
vn -0.8784 -0.0917 -0.4691
vn -0.4021 -0.2133 -0.8904
vn -0.7698 -0.4105 -0.4888
vn -0.0469 -0.4707 -0.8810
vn -0.2132 -0.4019 -0.8905
vn -0.0953 -0.0953 -0.9909
vn -0.4846 -0.0329 -0.8741
vn -0.4105 -0.7698 -0.4888
vn -1.0000 0.0000 -0.0000
vn -0.9951 0.0000 -0.0985
vn -0.9951 0.0003 -0.0987
vn -0.0871 -0.8780 -0.4707
vn -0.0982 -0.9903 -0.0982
vn -0.4693 -0.8770 -0.1030
vn -0.8770 -0.4693 -0.1030
vn 0.0000 -0.4719 -0.8817
vn -0.9906 -0.0969 -0.0970
vn -0.0985 -0.9951 -0.0000
vn -0.0881 0.0003 -0.9961
vn 0.0000 0.0000 -1.0000
vn -0.8828 -0.0035 -0.4698
vn -0.4769 -0.0056 -0.8789
vn 0.0000 -0.9951 -0.0985
vn 0.0000 -0.8817 -0.4719
vn -0.8817 -0.4719 -0.0000
vn -0.4719 -0.8817 -0.0000
vn 0.0000 -1.0000 0.0000
vn -0.8817 0.0000 -0.4719
vn -0.0985 0.0000 -0.9951
vn -0.4719 0.0000 -0.8817
vn 0.0000 -0.0985 -0.9951
vn -0.9951 -0.0985 -0.0000
s 1
f 8/1/1 4/2/2 6/3/3
f 1/4/4 2/5/5 3/6/6
f 2/5/5 4/2/2 3/6/6
f 4/2/2 5/7/7 3/6/6
f 6/3/3 2/5/5 7/8/8
f 34/9/9 14/10/10 30/11/11
f 2/12/5 9/13/12 7/14/8
f 7/14/8 10/15/13 11/16/14
f 7/17/8 12/18/15 6/19/3
f 3/6/6 22/20/16 1/4/4
f 6/19/3 13/21/17 8/22/1
f 23/23/18 11/16/14 10/15/13
f 31/24/19 20/25/20 33/26/20
f 22/20/16 9/27/12 1/4/4
f 32/28/21 13/21/17 30/29/11
f 31/30/19 5/7/7 29/31/22
f 29/31/22 8/1/1 32/32/21
f 18/33/23 9/13/12 21/34/24
f 24/35/25 13/21/17 12/18/15
f 25/36/26 12/18/15 11/37/14
f 23/23/18 18/33/23 27/38/27
f 17/39/28 29/40/22 32/41/21
f 15/42/29 29/40/22 16/43/30
f 17/44/28 30/45/11 14/46/10
f 31/30/19 19/47/31 3/6/6
f 13/21/17 34/48/9 30/29/11
f 8/1/1 5/7/7 4/2/2
f 6/3/3 4/2/2 2/5/5
f 34/9/9 28/49/9 14/10/10
f 2/12/5 1/50/4 9/13/12
f 7/14/8 9/13/12 10/15/13
f 7/17/8 11/37/14 12/18/15
f 3/6/6 19/47/31 22/20/16
f 6/19/3 12/18/15 13/21/17
f 23/23/18 25/51/26 11/16/14
f 31/24/19 15/52/29 20/25/20
f 22/20/16 21/53/24 9/27/12
f 32/28/21 8/22/1 13/21/17
f 31/30/19 3/6/6 5/7/7
f 29/31/22 5/7/7 8/1/1
f 18/33/23 10/15/13 9/13/12
f 24/35/25 26/54/32 13/21/17
f 25/36/26 24/35/25 12/18/15
f 23/23/18 10/15/13 18/33/23
f 17/39/28 16/43/30 29/40/22
f 15/42/29 31/55/19 29/40/22
f 17/44/28 32/56/21 30/45/11
f 31/30/19 33/57/20 19/47/31
f 13/21/17 26/54/32 34/48/9
