# Blender v3.1.0 Alpha OBJ File: 'GSO_Parts.blend'
# www.blender.org
o GSO_Face_V
v -0.500000 -0.367977 -0.500000
v -0.500000 -0.367977 0.500000
v -0.500000 -0.500000 -0.500000
v -0.500000 0.367977 0.500000
v -0.500000 0.367976 -0.500000
v -0.500000 0.500000 0.500000
v -0.500000 0.500000 -0.500000
v -0.500000 -0.500000 0.500000
vt 0.228784 0.031621
vt 0.030077 0.571621
vt 0.030077 0.031621
vt 0.915487 0.855641
vt 0.958359 0.530912
vt 0.958359 0.855641
vt 0.958359 0.530912
vt 0.915487 0.855641
vt 0.915487 0.530912
vt 0.228784 0.571621
vt 0.915487 0.530912
vt 0.958359 0.855641
vn -1.0000 -0.0000 0.0000
s 1
f 4/1/1 1/2/1 2/3/1
f 5/4/1 6/5/1 7/6/1
f 2/7/1 3/8/1 8/9/1
f 4/1/1 5/10/1 1/2/1
f 5/4/1 4/11/1 6/5/1
f 2/7/1 1/12/1 3/8/1
