# Blender v2.83.0 OBJ File: ''
# www.blender.org
mtllib Procedural Cylinder.mtl
o Cylinder
v -0.293893 0.500000 0.404508
v -0.404509 0.500000 0.293892
v -0.293893 -0.500000 0.404508
v -0.475528 0.500000 0.154508
v -0.404509 -0.500000 0.293892
v -0.475528 -0.500000 0.154508
v -0.154509 0.500000 0.475528
v -0.154509 -0.500000 0.475528
v 0.000000 0.500000 0.500000
v 0.000000 -0.500000 0.500000
v 0.154508 0.500000 0.475528
v 0.154508 -0.500000 0.475528
v 0.293893 0.500000 0.404509
v 0.293893 -0.500000 0.404509
v 0.404509 0.500000 0.293893
v 0.404509 -0.500000 0.293893
v 0.475528 0.500000 0.154509
v 0.475528 -0.500000 0.154509
v 0.500000 0.500000 0.000000
v 0.500000 -0.500000 -0.000000
v 0.475528 0.500000 -0.154508
v 0.475528 -0.500000 -0.154508
v 0.404509 0.500000 -0.293893
v 0.404509 -0.500000 -0.293893
v 0.293893 0.500000 -0.404509
v 0.293893 -0.500000 -0.404509
v 0.154509 0.500000 -0.475528
v 0.154509 -0.500000 -0.475528
v 0.000000 0.500000 -0.500000
v 0.000000 -0.500000 -0.500000
v -0.154508 0.500000 -0.475528
v -0.154508 -0.500000 -0.475528
v -0.293892 0.500000 -0.404509
v -0.293892 -0.500000 -0.404509
v -0.404508 0.500000 -0.293893
v -0.404508 -0.500000 -0.293893
v -0.475528 0.500000 -0.154509
v -0.475528 -0.500000 -0.154509
v -0.500000 0.500000 0.000000
v -0.500000 -0.500000 -0.000000
v 0.000000 0.500000 0.000000
v -0.500000 -0.500000 -0.000000
v 0.000000 -0.500000 -0.000000
v -0.475528 -0.500000 0.154508
v -0.404509 -0.500000 0.293892
v -0.293893 -0.500000 0.404508
v -0.154509 -0.500000 0.475528
v 0.000000 -0.500000 0.500000
v 0.154508 -0.500000 0.475528
v 0.293893 -0.500000 0.404509
v 0.404509 -0.500000 0.293893
v 0.500000 -0.500000 -0.000000
v 0.475528 -0.500000 0.154509
v 0.475528 -0.500000 -0.154508
v 0.404509 -0.500000 -0.293893
v 0.293893 -0.500000 -0.404509
v 0.154509 -0.500000 -0.475528
v 0.000000 -0.500000 -0.500000
v -0.154508 -0.500000 -0.475528
v -0.293892 -0.500000 -0.404509
v -0.404508 -0.500000 -0.293893
v -0.475528 -0.500000 -0.154509
vt 0.906746 0.224982
vt 0.875465 0.224982
vt 0.906746 0.025018
vt 0.844184 0.224982
vt 0.875465 0.025018
vt 0.844184 0.025018
vt 0.938028 0.224982
vt 0.938028 0.025018
vt 0.969309 0.224982
vt 0.969309 0.025018
vt 0.844184 0.224982
vt 0.812902 0.224982
vt 0.844184 0.025018
vt 0.875465 0.224982
vt 0.875465 0.025018
vt 0.906746 0.224982
vt 0.906746 0.025018
vt 0.938028 0.224982
vt 0.938028 0.025018
vt 0.969309 0.224982
vt 0.969309 0.025018
vt 0.844184 0.224982
vt 0.812902 0.224982
vt 0.844184 0.025018
vt 0.875465 0.224982
vt 0.875465 0.025018
vt 0.906746 0.224982
vt 0.906746 0.025018
vt 0.938028 0.224982
vt 0.938028 0.025018
vt 0.969309 0.224982
vt 0.969309 0.025018
vt 0.844183 0.224982
vt 0.812902 0.224982
vt 0.844183 0.025018
vt 0.875465 0.224982
vt 0.875465 0.025018
vt 0.906746 0.224982
vt 0.906746 0.025018
vt 0.938027 0.224982
vt 0.938027 0.025018
vt 0.969309 0.224982
vt 0.969309 0.025018
vt 0.812902 0.224982
vt 0.812902 0.025018
vt 0.812902 0.025018
vt 0.812902 0.025018
vt 0.812902 0.025018
vt 0.274517 0.385111
vt 0.321056 0.321056
vt 0.500000 0.500000
vt 0.385111 0.274517
vt 0.460412 0.250050
vt 0.539588 0.250050
vt 0.614890 0.274517
vt 0.678945 0.321056
vt 0.725483 0.385111
vt 0.749950 0.460412
vt 0.725483 0.614890
vt 0.749950 0.539589
vt 0.678944 0.678945
vt 0.614889 0.725483
vt 0.539588 0.749950
vt 0.460411 0.749950
vt 0.385110 0.725483
vt 0.321056 0.678944
vt 0.274517 0.614889
vt 0.250050 0.539588
vt 0.250050 0.460412
vt 0.274517 0.385110
vt 0.500000 0.500000
vt 0.250050 0.460412
vt 0.250050 0.539588
vt 0.274517 0.614889
vt 0.321055 0.678944
vt 0.385110 0.725483
vt 0.460412 0.749950
vt 0.539588 0.749950
vt 0.614889 0.725483
vt 0.725483 0.614889
vt 0.678944 0.678944
vt 0.749950 0.539588
vt 0.749950 0.460412
vt 0.725483 0.385111
vt 0.678944 0.321056
vt 0.614889 0.274517
vt 0.539588 0.250050
vt 0.460412 0.250050
vt 0.385111 0.274517
vt 0.321056 0.321055
vn -0.5878 -0.0000 0.8090
vn -0.8090 -0.0000 0.5878
vn -0.9511 0.0000 0.3090
vn -0.3090 -0.0000 0.9511
vn 0.0000 -0.0000 1.0000
vn 0.3090 -0.0000 0.9511
vn 0.5878 -0.0000 0.8090
vn 0.8090 -0.0000 0.5878
vn 0.9511 -0.0000 0.3090
vn 1.0000 -0.0000 -0.0000
vn 0.9511 0.0000 -0.3090
vn 0.8090 0.0000 -0.5878
vn 0.5878 0.0000 -0.8090
vn 0.3090 0.0000 -0.9511
vn -0.0000 0.0000 -1.0000
vn -0.3090 0.0000 -0.9511
vn -0.5878 0.0000 -0.8090
vn -0.8090 0.0000 -0.5878
vn -0.9511 0.0000 -0.3090
vn -1.0000 0.0000 0.0000
vn 0.0000 1.0000 0.0000
vn 0.0000 -1.0000 0.0000
usemtl None
s 1
f 1/1/1 2/2/2 3/3/1
f 2/2/2 4/4/3 5/5/2
f 6/6/3 5/5/2 4/4/3
f 5/5/2 3/3/1 2/2/2
f 7/7/4 1/1/1 8/8/4
f 9/9/5 7/7/4 10/10/5
f 11/11/6 9/12/5 12/13/6
f 13/14/7 11/11/6 14/15/7
f 15/16/8 13/14/7 16/17/8
f 17/18/9 15/16/8 18/19/9
f 19/20/10 17/18/9 20/21/10
f 21/22/11 19/23/10 22/24/11
f 23/25/12 21/22/11 24/26/12
f 25/27/13 23/25/12 26/28/13
f 27/29/14 25/27/13 28/30/14
f 29/31/15 27/29/14 30/32/15
f 31/33/16 29/34/15 32/35/16
f 33/36/17 31/33/16 34/37/17
f 35/38/18 33/36/17 36/39/18
f 37/40/19 35/38/18 38/41/19
f 39/42/20 37/40/19 40/43/20
f 4/4/3 39/44/20 6/6/3
f 3/3/1 8/8/4 1/1/1
f 8/8/4 10/10/5 7/7/4
f 10/45/5 12/13/6 9/12/5
f 12/13/6 14/15/7 11/11/6
f 14/15/7 16/17/8 13/14/7
f 16/17/8 18/19/9 15/16/8
f 18/19/9 20/21/10 17/18/9
f 20/46/10 22/24/11 19/23/10
f 22/24/11 24/26/12 21/22/11
f 24/26/12 26/28/13 23/25/12
f 26/28/13 28/30/14 25/27/13
f 30/32/15 27/29/14 28/30/14
f 30/47/15 32/35/16 29/34/15
f 32/35/16 34/37/17 31/33/16
f 34/37/17 36/39/18 33/36/17
f 36/39/18 38/41/19 35/38/18
f 38/41/19 40/43/20 37/40/19
f 40/48/20 6/6/3 39/44/20
f 39/49/21 4/50/21 41/51/21
f 2/52/21 41/51/21 4/50/21
f 1/53/21 41/51/21 2/52/21
f 7/54/21 41/51/21 1/53/21
f 9/55/21 41/51/21 7/54/21
f 11/56/21 41/51/21 9/55/21
f 13/57/21 41/51/21 11/56/21
f 15/58/21 41/51/21 13/57/21
f 19/59/21 41/51/21 17/60/21
f 17/60/21 41/51/21 15/58/21
f 21/61/21 41/51/21 19/59/21
f 23/62/21 41/51/21 21/61/21
f 25/63/21 41/51/21 23/62/21
f 27/64/21 41/51/21 25/63/21
f 29/65/21 41/51/21 27/64/21
f 31/66/21 41/51/21 29/65/21
f 33/67/21 41/51/21 31/66/21
f 35/68/21 41/51/21 33/67/21
f 37/69/21 41/51/21 35/68/21
f 39/49/21 41/51/21 37/69/21
f 42/70/22 43/71/22 44/72/22
f 45/73/22 44/72/22 43/71/22
f 46/74/22 45/73/22 43/71/22
f 47/75/22 46/74/22 43/71/22
f 48/76/22 47/75/22 43/71/22
f 49/77/22 48/76/22 43/71/22
f 50/78/22 49/77/22 43/71/22
f 51/79/22 50/78/22 43/71/22
f 52/80/22 53/81/22 43/71/22
f 53/81/22 51/79/22 43/71/22
f 54/82/22 52/80/22 43/71/22
f 55/83/22 54/82/22 43/71/22
f 56/84/22 55/83/22 43/71/22
f 57/85/22 56/84/22 43/71/22
f 58/86/22 57/85/22 43/71/22
f 59/87/22 58/86/22 43/71/22
f 60/88/22 59/87/22 43/71/22
f 61/89/22 60/88/22 43/71/22
f 62/90/22 61/89/22 43/71/22
f 42/70/22 62/90/22 43/71/22
