# Blender v3.1.0 Alpha OBJ File: ''
# www.blender.org
o RenderObject.007_RenderObject.003_RenderObject.007_RenderObject.004
v -0.500000 -0.190983 0.451056
v -0.500000 -0.500000 0.500000
v 0.309017 -0.500000 0.087785
v 0.500000 -0.500000 -0.500000
v 0.087785 0.309017 -0.500000
v -0.206107 0.404509 -0.190983
v -0.250000 0.269421 0.087785
v -0.318364 0.059017 0.309017
v -0.404508 -0.206107 0.451056
v 0.059017 0.269421 -0.190983
v -0.024471 0.154508 0.087785
v -0.154508 -0.024472 0.309017
v -0.318364 -0.250000 0.451056
v 0.269421 0.059017 -0.190983
v 0.154509 -0.024472 0.087785
v -0.024472 -0.154509 0.309017
v -0.250000 -0.318364 0.451056
v 0.404509 -0.206107 -0.190983
v 0.269421 -0.250000 0.087785
v 0.059017 -0.318365 0.309017
v -0.206107 -0.404509 0.451056
v -0.190983 -0.500000 0.451057
v 0.087785 -0.500000 0.309017
v 0.451056 -0.500000 -0.190983
v 0.451056 -0.190983 -0.500000
v -0.190983 0.451056 -0.500000
v -0.500000 0.451056 -0.190983
v -0.190983 -0.206107 0.404509
v 0.087785 -0.250000 0.269421
v 0.309017 -0.318364 0.059017
v 0.451056 -0.404508 -0.206107
v -0.190983 0.059017 0.269421
v 0.087785 -0.024472 0.154508
v 0.309017 -0.154509 -0.024472
v 0.451056 -0.318364 -0.250000
v -0.190983 0.269421 0.059017
v 0.087785 0.154508 -0.024472
v 0.309017 -0.024472 -0.154509
v 0.451056 -0.250000 -0.318364
v -0.190983 0.404508 -0.206107
v 0.087785 0.269421 -0.250000
v 0.309017 0.059017 -0.318364
v 0.451056 -0.206107 -0.404509
v 0.309017 0.087785 -0.500000
v -0.500000 0.500000 -0.500000
v -0.500000 0.309017 0.087785
v -0.500000 0.087785 0.309017
v 0.404509 -0.190983 -0.206107
v 0.269421 0.087785 -0.250000
v 0.059017 0.309017 -0.318364
v -0.206107 0.451056 -0.404508
v 0.269421 -0.190983 0.059017
v 0.154508 0.087785 -0.024472
v -0.024472 0.309017 -0.154509
v -0.250000 0.451057 -0.318364
v 0.059017 -0.190983 0.269421
v -0.024472 0.087785 0.154508
v -0.154509 0.309017 -0.024472
v -0.318364 0.451056 -0.250000
v -0.206107 -0.190983 0.404509
v -0.250000 0.087785 0.269421
v -0.318364 0.309017 0.059017
v -0.404509 0.451056 -0.206107
v -0.500000 -0.500000 -0.500000
vt 0.922924 0.773786
vt 0.924796 0.761967
vt 0.886549 0.761967
vt 0.917491 0.784448
vt 0.909030 0.792909
vt 0.898368 0.798342
vt 0.886549 0.800213
vt 0.886549 0.800213
vt 0.886549 0.761967
vt 0.898368 0.798342
vt 0.909030 0.792909
vt 0.917491 0.784448
vt 0.922924 0.773786
vt 0.924796 0.761967
vt 0.924796 0.761967
vt 0.922924 0.773786
vt 0.886549 0.761967
vt 0.917491 0.784448
vt 0.909030 0.792909
vt 0.898368 0.798342
vt 0.886549 0.800213
vt 0.955738 0.784448
vt 0.959298 0.761967
vt 0.955738 0.784448
vt 0.959298 0.761967
vt 0.909030 0.831155
vt 0.886549 0.834716
vt 0.955738 0.784448
vt 0.959298 0.761967
vt 0.909030 0.831155
vt 0.886549 0.834716
vt 0.909030 0.831155
vt 0.886549 0.834716
vt 0.922924 0.800213
vt 0.922924 0.800213
vt 0.922924 0.800213
vt 0.886549 0.862097
vt 0.909030 0.862097
vt 0.924796 0.798342
vt 0.929310 0.820822
vt 0.945404 0.804728
vt 0.924796 0.831155
vt 0.955738 0.800213
vt 0.924796 0.798341
vt 0.986679 0.761967
vt 0.909030 0.862097
vt 0.945404 0.804728
vt 0.929310 0.820822
vt 0.955738 0.800213
vt 0.917491 0.834716
vt 0.924796 0.831155
vt 0.924796 0.798342
vt 0.929310 0.820822
vt 0.945404 0.804728
vt 0.959298 0.792909
vt 0.955738 0.800213
vt 0.924796 0.831155
vt 0.981779 0.792909
vt 0.917491 0.834716
vt 0.917491 0.857197
vt 0.924796 0.857197
vt 0.981779 0.792909
vt 0.959298 0.792909
vt 0.917491 0.857197
vt 0.924796 0.857197
vt 0.945404 0.842974
vt 0.945404 0.834716
vt 0.981779 0.800213
vt 0.959298 0.820822
vt 0.959298 0.820822
vt 0.981779 0.800213
vt 0.945404 0.834716
vt 0.959298 0.820822
vt 0.945404 0.834716
vt 0.959298 0.842974
vt 0.967556 0.820822
vt 0.917491 0.834716
vt 0.959298 0.792909
vt 0.506395 0.687357
vt 0.278370 0.803542
vt 0.025602 0.025602
vt 0.506395 0.687357
vt 0.687357 0.506395
vt 0.506395 0.687357
vt 0.687357 0.506395
vt 0.986679 0.784448
vt 0.886549 0.862097
vt 0.967556 0.820822
vt 0.967556 0.834716
vt 0.025602 0.843577
vt 0.843577 0.025602
vt 0.803542 0.278370
vt 0.687357 0.506395
vt 0.803542 0.278370
vt 0.025602 0.843576
vt 0.278370 0.803542
vt 0.843576 0.025602
vt 0.803542 0.278370
vt 0.278370 0.803542
vn 0.0920 0.3048 0.9480
vn 0.0511 0.3226 0.9452
vn 0.1014 0.1014 0.9897
vn 0.1588 0.2364 0.9586
vn 0.2364 0.1588 0.9586
vn 0.3048 0.0920 0.9480
vn 0.3226 0.0511 0.9452
vn 0.9452 0.0511 0.3226
vn 0.9897 0.1014 0.1014
vn 0.9480 0.0920 0.3048
vn 0.9586 0.1588 0.2364
vn 0.9586 0.2364 0.1588
vn 0.9480 0.3048 0.0920
vn 0.9452 0.3226 0.0511
vn 0.0511 0.9452 0.3226
vn 0.0920 0.9480 0.3048
vn 0.1014 0.9897 0.1014
vn 0.1588 0.9586 0.2364
vn 0.2364 0.9586 0.1588
vn 0.3048 0.9480 0.0920
vn 0.3226 0.9452 0.0511
vn 0.1467 0.5599 0.8155
vn 0.0943 0.5952 0.7981
vn 0.1467 0.8155 0.5599
vn 0.0943 0.7981 0.5952
vn 0.5599 0.8155 0.1467
vn 0.5952 0.7981 0.0943
vn 0.8155 0.5599 0.1467
vn 0.7981 0.5952 0.0943
vn 0.8155 0.1467 0.5599
vn 0.7981 0.0943 0.5952
vn 0.5599 0.1467 0.8155
vn 0.5952 0.0943 0.7981
vn 0.3554 0.2687 0.8953
vn 0.8953 0.2687 0.3554
vn 0.3554 0.8953 0.2687
vn 0.8953 0.3554 0.2687
vn 0.8147 0.3512 0.4614
vn 0.8147 0.4614 0.3512
vn 0.7485 0.3284 0.5762
vn 0.7485 0.5762 0.3284
vn 0.2687 0.3554 0.8953
vn 0.3512 0.4614 0.8147
vn 0.4614 0.3512 0.8147
vn 0.3284 0.5762 0.7485
vn 0.6343 0.2278 0.7387
vn 0.5762 0.3284 0.7485
vn 0.2687 0.8953 0.3554
vn 0.4614 0.8147 0.3512
vn 0.3512 0.8147 0.4614
vn 0.2278 0.7387 0.6343
vn 0.3284 0.7485 0.5762
vn 0.5762 0.7485 0.3284
vn 0.2278 0.6343 0.7387
vn 0.6343 0.7387 0.2278
vn 0.7387 0.2278 0.6343
vn 0.7387 0.6343 0.2278
vn 0.6671 0.4653 0.5818
vn 0.5818 0.4653 0.6671
vn 0.6671 0.5818 0.4653
vn 0.4653 0.5818 0.6671
vn 0.4653 0.6671 0.5818
vn 0.5818 0.6671 0.4653
vn 0.0000 -0.0000 -1.0000
vn -1.0000 -0.0000 0.0000
vn -0.0000 -1.0000 0.0000
s 1
f 9/1/1 1/2/2 2/3/3
f 13/4/4 9/1/1 2/3/3
f 17/5/5 13/4/4 2/3/3
f 2/3/3 21/6/6 17/5/5
f 22/7/7 21/6/6 2/3/3
f 24/8/8 4/9/9 31/10/10
f 31/10/10 4/9/9 35/11/11
f 4/9/9 39/12/12 35/11/11
f 39/12/12 4/9/9 43/13/13
f 25/14/14 43/13/13 4/9/9
f 27/15/15 63/16/16 45/17/17
f 45/17/17 63/16/16 59/18/18
f 59/18/18 55/19/19 45/17/17
f 55/19/19 51/20/20 45/17/17
f 45/17/17 51/20/20 26/21/21
f 8/22/22 47/23/23 1/2/2
f 62/24/24 27/15/15 46/25/25
f 50/26/26 5/27/27 26/21/21
f 42/28/28 25/14/14 44/29/29
f 30/30/30 3/31/31 24/8/8
f 20/32/32 22/7/7 23/33/33
f 28/34/34 13/4/4 17/5/5
f 1/2/2 9/1/1 8/22/22
f 22/7/7 20/32/32 21/6/6
f 24/8/8 31/10/10 30/30/30
f 25/14/14 42/28/28 43/13/13
f 26/21/21 51/20/20 50/26/26
f 27/15/15 62/24/24 63/16/16
f 39/12/12 18/35/35 35/11/11
f 59/18/18 40/36/36 55/19/19
f 44/37/29 50/26/26 42/38/28
f 31/10/10 35/11/11 18/35/35
f 39/12/12 43/13/13 48/39/37
f 42/28/28 48/39/37 43/13/13
f 30/30/30 31/10/10 18/35/35
f 18/35/35 34/40/38 30/30/30
f 38/41/39 48/39/37 42/28/28
f 48/39/37 34/40/38 18/35/35
f 30/30/30 34/40/38 52/42/40
f 14/43/41 38/41/39 42/28/28
f 17/5/5 21/6/6 28/34/34
f 13/4/4 60/44/42 9/1/1
f 20/32/32 28/34/34 21/6/6
f 8/22/22 9/1/1 60/44/42
f 47/45/23 62/24/24 46/25/25
f 23/33/33 30/46/30 20/32/32
f 12/47/43 28/34/34 16/48/44
f 28/34/34 20/32/32 16/48/44
f 60/44/42 12/47/43 8/22/22
f 8/22/22 12/47/43 32/49/45
f 20/32/32 29/50/46 56/51/47
f 59/18/18 63/16/16 6/52/48
f 55/19/19 40/36/36 51/20/20
f 62/24/24 6/52/48 63/16/16
f 50/26/26 51/20/20 40/36/36
f 54/53/49 6/52/48 58/54/50
f 40/36/36 54/53/49 50/26/26
f 6/52/48 62/24/24 58/54/50
f 62/24/24 7/55/51 36/56/52
f 50/26/26 54/53/49 10/57/53
f 62/24/24 61/58/54 7/55/51
f 41/59/55 42/38/28 50/26/26
f 19/60/56 20/32/32 30/46/30
f 52/61/40 29/50/46 19/60/56
f 32/49/45 7/62/51 61/63/54
f 49/64/57 10/57/53 14/65/41
f 56/51/47 15/66/58 33/67/59
f 10/68/53 53/69/60 14/43/41
f 57/70/61 36/71/52 32/49/45
f 32/49/45 12/47/43 57/70/61
f 56/51/47 33/67/59 16/48/44
f 52/42/40 34/40/38 15/72/58
f 14/43/41 53/69/60 38/41/39
f 36/56/52 11/73/62 58/54/50
f 10/57/53 54/53/49 37/74/63
f 33/67/59 12/47/43 16/48/44
f 38/41/39 15/72/58 34/40/38
f 54/53/49 11/73/62 37/74/63
f 53/75/60 11/76/62 33/67/59
f 30/30/30 52/42/40 19/77/56
f 14/43/41 42/28/28 49/78/57
f 8/22/22 32/49/45 61/63/54
f 20/32/32 56/51/47 16/48/44
f 62/24/24 36/56/52 58/54/50
f 50/26/26 10/57/53 41/59/55
f 44/79/64 25/80/64 64/81/64
f 47/82/65 46/83/65 64/81/65
f 3/84/66 23/85/66 64/81/66
f 28/34/34 60/44/42 13/4/4
f 39/12/12 48/39/37 18/35/35
f 59/18/18 6/52/48 40/36/36
f 44/37/29 5/27/27 50/26/26
f 48/39/37 38/41/39 34/40/38
f 47/45/23 8/86/22 62/24/24
f 23/33/33 3/87/31 30/46/30
f 12/47/43 60/44/42 28/34/34
f 54/53/49 40/36/36 6/52/48
f 62/24/24 8/86/22 61/58/54
f 41/59/55 49/64/57 42/38/28
f 19/60/56 29/50/46 20/32/32
f 52/61/40 56/51/47 29/50/46
f 32/49/45 36/71/52 7/62/51
f 49/64/57 41/59/55 10/57/53
f 56/51/47 52/61/40 15/66/58
f 10/68/53 37/88/63 53/69/60
f 57/70/61 11/76/62 36/71/52
f 33/67/59 57/70/61 12/47/43
f 38/41/39 53/69/60 15/72/58
f 54/53/49 58/54/50 11/73/62
f 33/67/59 15/66/58 53/75/60
f 53/75/60 37/89/63 11/76/62
f 11/76/62 57/70/61 33/67/59
f 25/80/64 4/90/64 64/81/64
f 64/81/64 45/91/64 26/92/64
f 26/92/64 5/93/64 64/81/64
f 5/93/64 44/79/64 64/81/64
f 45/91/65 64/81/65 27/94/65
f 64/81/65 2/95/65 1/96/65
f 27/94/65 64/81/65 46/83/65
f 1/96/65 47/82/65 64/81/65
f 2/97/66 64/81/66 22/98/66
f 64/81/66 4/90/66 24/99/66
f 22/98/66 64/81/66 23/85/66
f 24/99/66 3/84/66 64/81/66
