# Blender v3.1.0 Alpha OBJ File: ''
# www.blender.org
o Circle.002
v -0.293893 0.500000 0.404509
v -0.349200 0.500000 0.349201
v -0.404508 0.500000 0.293893
v -0.500000 -0.500000 0.500000
v 0.404509 0.500000 0.293892
v 0.475528 0.500000 0.154508
v 0.349201 0.500000 0.349200
v 0.500000 0.500000 0.000000
v -0.500000 -0.500000 -0.500000
v 0.500000 -0.500000 0.500000
v 0.000000 0.500000 0.500000
v 0.000000 0.500000 -0.500000
v 0.500000 -0.500000 -0.500000
v -0.500000 0.500000 0.000000
v -0.475529 0.500000 0.154508
v 0.154508 0.500000 -0.475529
v 0.293892 0.500000 -0.404509
v 0.475528 0.500000 -0.154509
v 0.404508 0.500000 -0.293893
v -0.154508 0.500000 0.475528
v 0.154509 0.500000 0.475528
v -0.154508 0.500000 -0.475528
v -0.475528 0.500000 -0.154509
v -0.404508 0.500000 -0.293893
v -0.293892 0.500000 -0.404509
v 0.293893 0.500000 0.404508
v -0.349200 0.500000 -0.349201
v 0.349200 0.500000 -0.349201
vt 0.899199 0.809721
vt 0.985130 0.812316
vt 0.899000 0.816294
vt 0.978455 0.844908
vt 0.985841 0.830412
vt 0.972703 0.850660
vt 0.988386 0.814343
vt 0.884386 0.762343
vt 0.988386 0.866343
vt 0.884386 0.866343
vt 0.936386 0.866343
vt 0.900069 0.850660
vt 0.887868 0.808741
vt 0.971832 0.766702
vt 0.971832 0.850781
vt 0.887868 0.808741
vt 0.971832 0.850781
vt 0.887760 0.821732
vt 0.897775 0.828772
vt 0.899000 0.816294
vt 0.985130 0.812316
vt 0.887760 0.795750
vt 0.971832 0.850781
vt 0.887760 0.821732
vt 0.887868 0.808741
vt 0.899397 0.803147
vt 0.898928 0.790618
vt 0.887868 0.808741
vt 0.971832 0.766702
vt 0.971832 0.850781
vt 0.971832 0.766702
vt 0.887760 0.795750
vt 0.988386 0.762343
vt 0.897775 0.828772
vt 0.899397 0.803147
vt 0.898927 0.790618
vt 0.887760 0.821732
vt 0.887760 0.821732
vt 0.887760 0.795750
vt 0.898927 0.790618
vt 0.899397 0.803147
vt 0.985130 0.812316
vt 0.899000 0.816294
vt 0.897775 0.828772
vt 0.887760 0.795750
vt 0.971832 0.766702
vt 0.897775 0.828772
vt 0.899000 0.816294
vt 0.985130 0.812316
vt 0.899397 0.803147
vt 0.898928 0.790618
vt 0.899199 0.809721
vt 0.985841 0.798274
vt 0.978455 0.783778
vt 0.972703 0.778026
vt 0.899199 0.809721
vt 0.966951 0.772274
vt 0.952455 0.764888
vt 0.899199 0.809721
vt 0.936386 0.762343
vt 0.920317 0.764888
vt 0.900069 0.778026
vt 0.905821 0.772274
vt 0.894317 0.783778
vt 0.886931 0.798274
vt 0.884386 0.814343
vt 0.886931 0.830412
vt 0.894317 0.844908
vt 0.905821 0.856412
vt 0.920317 0.863798
vt 0.952455 0.863798
vt 0.966951 0.856412
vn -0.6916 0.2086 0.6916
vn -0.6979 0.1610 0.6979
vn -0.5679 0.1934 0.8001
vn 0.0000 1.0000 0.0000
vn 0.0000 -1.0000 -0.0000
vn 0.0000 0.0000 -1.0000
vn -0.9847 0.0780 0.1560
vn -0.9534 0.1191 0.2772
vn 0.2772 0.1191 -0.9534
vn 0.5679 0.1934 -0.8001
vn 0.6979 0.1610 -0.6979
vn 0.1560 0.0780 -0.9847
vn 0.9534 0.1191 -0.2772
vn 0.9847 0.0780 -0.1560
vn 0.8001 0.1934 -0.5679
vn 0.0000 -0.0000 1.0000
vn -1.0000 0.0000 0.0000
vn -0.2772 0.1191 0.9534
vn -0.1560 0.0780 0.9847
vn -0.8001 0.1934 0.5679
vn 0.1560 0.0780 0.9847
vn 0.6979 0.1610 0.6979
vn 0.2772 0.1191 0.9534
vn -0.6979 0.1610 -0.6979
vn -0.2772 0.1191 -0.9534
vn -0.1560 0.0780 -0.9847
vn -0.9847 0.0780 -0.1560
vn -0.9534 0.1191 -0.2772
vn -0.8001 0.1934 -0.5679
vn -0.5679 0.1934 -0.8001
vn 0.9534 0.1191 0.2772
vn 0.9847 0.0780 0.1560
vn 0.8001 0.1934 0.5679
vn 0.5679 0.1934 0.8001
vn 1.0000 0.0000 0.0000
vn -0.6916 0.2086 -0.6916
vn 0.6916 0.2086 -0.6916
vn 0.6916 0.2086 0.6916
s 1
f 2/1/1 4/2/2 1/3/3
f 5/4/4 6/5/4 7/6/4
f 6/5/4 8/7/4 7/6/4
f 9/8/5 10/9/5 4/10/5
f 11/11/4 7/6/4 2/12/4
f 12/13/6 13/14/6 9/15/6
f 14/16/7 4/17/2 15/18/8
f 16/19/9 17/20/10 13/21/11
f 12/13/12 16/22/9 13/14/11
f 13/23/11 18/24/13 8/25/14
f 19/26/15 18/27/13 13/21/11
f 11/28/16 4/29/16 10/30/16
f 14/16/17 9/31/17 4/17/17
f 20/32/18 4/29/2 11/28/19
f 9/8/5 13/33/5 10/9/5
f 20/34/18 1/3/3 4/2/2
f 3/35/20 15/36/8 4/2/2
f 11/28/21 10/30/22 21/37/23
f 9/15/24 22/38/25 12/13/26
f 14/16/27 23/39/28 9/31/24
f 23/40/28 24/41/29 9/42/24
f 25/43/30 22/44/25 9/42/24
f 6/45/31 10/46/22 8/25/32
f 6/47/31 5/48/33 10/49/22
f 26/50/34 21/51/23 10/49/22
f 13/23/35 8/25/35 10/46/35
f 27/52/36 9/42/24 24/41/29
f 18/53/4 19/54/4 28/55/4
f 8/7/4 18/53/4 28/55/4
f 28/56/37 13/21/11 17/20/10
f 28/55/4 17/57/4 16/58/4
f 10/49/22 7/59/38 26/50/34
f 8/7/4 28/55/4 7/6/4
f 16/58/4 12/60/4 28/55/4
f 12/60/4 22/61/4 27/62/4
f 22/61/4 25/63/4 27/62/4
f 27/62/4 24/64/4 23/65/4
f 14/66/4 27/62/4 23/65/4
f 14/66/4 15/67/4 2/12/4
f 15/67/4 3/68/4 2/12/4
f 2/12/4 1/69/4 20/70/4
f 27/62/4 14/66/4 2/12/4
f 7/6/4 28/55/4 2/12/4
f 21/71/4 26/72/4 7/6/4
f 20/70/4 11/11/4 2/12/4
f 11/11/4 21/71/4 7/6/4
f 27/62/4 28/55/4 12/60/4
f 2/12/4 28/55/4 27/62/4
f 2/1/1 3/35/20 4/2/2
f 27/52/36 25/43/30 9/42/24
f 28/56/37 19/26/15 13/21/11
f 10/49/22 5/48/33 7/59/38
