# Blender v3.1.0 Alpha OBJ File: ''
# www.blender.org
o Cylinder
v -0.293893 0.500000 0.404508
v -0.404509 0.500000 0.293892
v -0.293893 -0.500000 0.404508
v -0.475528 0.500000 0.154508
v -0.404509 -0.500000 0.293892
v -0.475528 -0.500000 0.154508
v -0.154509 0.500000 0.475528
v -0.154509 -0.500000 0.475528
v 0.000000 0.500000 0.500000
v 0.000000 -0.500000 0.500000
v 0.154508 0.500000 0.475528
v 0.154508 -0.500000 0.475528
v 0.293893 0.500000 0.404509
v 0.293893 -0.500000 0.404509
v 0.404509 0.500000 0.293893
v 0.404509 -0.500000 0.293893
v 0.475528 0.500000 0.154509
v 0.475528 -0.500000 0.154509
v 0.500000 0.500000 0.000000
v 0.500000 -0.500000 -0.000000
v 0.475528 0.500000 -0.154508
v 0.475528 -0.500000 -0.154508
v 0.404509 0.500000 -0.293893
v 0.404509 -0.500000 -0.293893
v 0.293893 0.500000 -0.404509
v 0.293893 -0.500000 -0.404509
v 0.154509 0.500000 -0.475528
v 0.154509 -0.500000 -0.475528
v 0.000000 0.500000 -0.500000
v 0.000000 -0.500000 -0.500000
v -0.154508 0.500000 -0.475528
v -0.154508 -0.500000 -0.475528
v -0.293892 0.500000 -0.404509
v -0.293892 -0.500000 -0.404509
v -0.404508 0.500000 -0.293893
v -0.404508 -0.500000 -0.293893
v -0.475528 0.500000 -0.154509
v -0.475528 -0.500000 -0.154509
v -0.500000 0.500000 0.000000
v -0.500000 -0.500000 -0.000000
v 0.000000 0.500000 0.000000
v -0.500000 -0.500000 -0.000000
v 0.000000 -0.500000 -0.000000
v -0.475528 -0.500000 0.154508
v -0.404509 -0.500000 0.293892
v -0.293893 -0.500000 0.404508
v -0.154509 -0.500000 0.475528
v 0.000000 -0.500000 0.500000
v 0.154508 -0.500000 0.475528
v 0.293893 -0.500000 0.404509
v 0.404509 -0.500000 0.293893
v 0.500000 -0.500000 -0.000000
v 0.475528 -0.500000 0.154509
v 0.475528 -0.500000 -0.154508
v 0.404509 -0.500000 -0.293893
v 0.293893 -0.500000 -0.404509
v 0.154509 -0.500000 -0.475528
v 0.000000 -0.500000 -0.500000
v -0.154508 -0.500000 -0.475528
v -0.293892 -0.500000 -0.404509
v -0.404508 -0.500000 -0.293893
v -0.475528 -0.500000 -0.154509
vt 0.965820 0.762695
vt 0.976562 0.762695
vt 0.965820 0.860352
vt 0.888672 0.782227
vt 0.888672 0.795898
vt 0.986328 0.782227
vt 0.986328 0.795898
vt 0.976562 0.860352
vt 0.952148 0.762695
vt 0.952148 0.860352
vt 0.937500 0.762695
vt 0.937500 0.860352
vt 0.922852 0.762695
vt 0.922852 0.860352
vt 0.909180 0.762695
vt 0.909180 0.860352
vt 0.898438 0.762695
vt 0.898438 0.860352
vt 0.888672 0.795898
vt 0.888672 0.782227
vt 0.986328 0.795898
vt 0.888672 0.811523
vt 0.986328 0.811523
vt 0.888672 0.826172
vt 0.986328 0.826172
vt 0.888672 0.839844
vt 0.986328 0.839844
vt 0.909180 0.762695
vt 0.898438 0.762695
vt 0.909180 0.860352
vt 0.922852 0.762695
vt 0.922852 0.860352
vt 0.937500 0.762695
vt 0.937500 0.860352
vt 0.952148 0.762695
vt 0.952148 0.860352
vt 0.965820 0.762695
vt 0.965820 0.860352
vt 0.976562 0.762695
vt 0.976562 0.860352
vt 0.888672 0.826172
vt 0.888672 0.839844
vt 0.986328 0.826172
vt 0.888672 0.811523
vt 0.986328 0.811523
vt 0.986328 0.782227
vt 0.898438 0.860352
vt 0.986328 0.839844
vt 0.986328 0.811523
vt 0.983398 0.795898
vt 0.937500 0.811523
vt 0.976562 0.782227
vt 0.965820 0.771484
vt 0.952148 0.764648
vt 0.922852 0.764648
vt 0.909180 0.771484
vt 0.898438 0.782227
vt 0.891602 0.795898
vt 0.891602 0.826172
vt 0.898438 0.839844
vt 0.909180 0.850586
vt 0.922852 0.857422
vt 0.937500 0.860352
vt 0.952148 0.857422
vt 0.965820 0.850586
vt 0.976562 0.839844
vt 0.983398 0.826172
vt 0.986328 0.811523
vt 0.937500 0.811523
vt 0.983398 0.795898
vt 0.976562 0.782227
vt 0.965820 0.771484
vt 0.952148 0.764648
vt 0.937500 0.762695
vt 0.922852 0.764648
vt 0.909180 0.771484
vt 0.898438 0.782227
vt 0.888672 0.811523
vt 0.891602 0.795898
vt 0.891602 0.826172
vt 0.898438 0.839844
vt 0.909180 0.850586
vt 0.922852 0.857422
vt 0.937500 0.860352
vt 0.952148 0.857422
vt 0.965820 0.850586
vt 0.976562 0.839844
vt 0.983398 0.826172
vn -0.5878 -0.0000 0.8090
vn -0.8090 -0.0000 0.5878
vn -0.9511 0.0000 0.3090
vn -0.3090 -0.0000 0.9511
vn 0.0000 -0.0000 1.0000
vn 0.3090 -0.0000 0.9511
vn 0.5878 -0.0000 0.8090
vn 0.8090 -0.0000 0.5878
vn 0.9511 -0.0000 0.3090
vn 1.0000 -0.0000 -0.0000
vn 0.9511 0.0000 -0.3090
vn 0.8090 0.0000 -0.5878
vn 0.5878 0.0000 -0.8090
vn 0.3090 0.0000 -0.9511
vn -0.0000 0.0000 -1.0000
vn -0.3090 0.0000 -0.9511
vn -0.5878 0.0000 -0.8090
vn -0.8090 0.0000 -0.5878
vn -0.9511 0.0000 -0.3090
vn -1.0000 0.0000 0.0000
vn 0.0000 1.0000 0.0000
vn 0.0000 -1.0000 0.0000
s 1
f 1/1/1 2/2/2 3/3/1
f 2/4/2 4/5/3 5/6/2
f 6/7/3 5/6/2 4/5/3
f 5/8/2 3/3/1 2/2/2
f 7/9/4 1/1/1 8/10/4
f 9/11/5 7/9/4 10/12/5
f 11/13/6 9/11/5 12/14/6
f 13/15/7 11/13/6 14/16/7
f 15/17/8 13/15/7 16/18/8
f 17/19/9 15/20/8 18/21/9
f 19/22/10 17/19/9 20/23/10
f 21/24/11 19/22/10 22/25/11
f 23/26/12 21/24/11 24/27/12
f 25/28/13 23/29/12 26/30/13
f 27/31/14 25/28/13 28/32/14
f 29/33/15 27/31/14 30/34/15
f 31/35/16 29/33/15 32/36/16
f 33/37/17 31/35/16 34/38/17
f 35/39/18 33/37/17 36/40/18
f 37/41/19 35/42/18 38/43/19
f 39/44/20 37/41/19 40/45/20
f 4/5/3 39/44/20 6/7/3
f 3/3/1 8/10/4 1/1/1
f 8/10/4 10/12/5 7/9/4
f 10/12/5 12/14/6 9/11/5
f 12/14/6 14/16/7 11/13/6
f 14/16/7 16/18/8 13/15/7
f 16/46/8 18/21/9 15/20/8
f 18/21/9 20/23/10 17/19/9
f 20/23/10 22/25/11 19/22/10
f 22/25/11 24/27/12 21/24/11
f 24/47/12 26/30/13 23/29/12
f 26/30/13 28/32/14 25/28/13
f 30/34/15 27/31/14 28/32/14
f 30/34/15 32/36/16 29/33/15
f 32/36/16 34/38/17 31/35/16
f 34/38/17 36/40/18 33/37/17
f 36/48/18 38/43/19 35/42/18
f 38/43/19 40/45/20 37/41/19
f 40/45/20 6/7/3 39/44/20
f 39/49/21 4/50/21 41/51/21
f 2/52/21 41/51/21 4/50/21
f 1/53/21 41/51/21 2/52/21
f 7/54/21 41/51/21 1/53/21
f 9/11/21 41/51/21 7/54/21
f 11/55/21 41/51/21 9/11/21
f 13/56/21 41/51/21 11/55/21
f 15/57/21 41/51/21 13/56/21
f 19/22/21 41/51/21 17/58/21
f 17/58/21 41/51/21 15/57/21
f 21/59/21 41/51/21 19/22/21
f 23/60/21 41/51/21 21/59/21
f 25/61/21 41/51/21 23/60/21
f 27/62/21 41/51/21 25/61/21
f 29/63/21 41/51/21 27/62/21
f 31/64/21 41/51/21 29/63/21
f 33/65/21 41/51/21 31/64/21
f 35/66/21 41/51/21 33/65/21
f 37/67/21 41/51/21 35/66/21
f 39/49/21 41/51/21 37/67/21
f 42/68/22 43/69/22 44/70/22
f 45/71/22 44/70/22 43/69/22
f 46/72/22 45/71/22 43/69/22
f 47/73/22 46/72/22 43/69/22
f 48/74/22 47/73/22 43/69/22
f 49/75/22 48/74/22 43/69/22
f 50/76/22 49/75/22 43/69/22
f 51/77/22 50/76/22 43/69/22
f 52/78/22 53/79/22 43/69/22
f 53/79/22 51/77/22 43/69/22
f 54/80/22 52/78/22 43/69/22
f 55/81/22 54/80/22 43/69/22
f 56/82/22 55/81/22 43/69/22
f 57/83/22 56/82/22 43/69/22
f 58/84/22 57/83/22 43/69/22
f 59/85/22 58/84/22 43/69/22
f 60/86/22 59/85/22 43/69/22
f 61/87/22 60/86/22 43/69/22
f 62/88/22 61/87/22 43/69/22
f 42/68/22 62/88/22 43/69/22
