# Blender v3.1.0 Alpha OBJ File: ''
# www.blender.org
o RenderObject.005
v -0.500000 -0.500000 -0.500000
v -0.500000 -0.500000 0.500000
v -0.500000 0.500000 0.500000
v -0.500000 0.500000 -0.500000
v 0.500000 -0.500000 -0.500000
v 0.500000 -0.500000 0.500000
vt 0.822266 0.022461
vt 0.022461 0.022461
vt 0.022461 0.822266
vt 0.822266 0.022461
vt 0.022461 0.022461
vt 0.022461 0.822266
vt 0.022461 0.822266
vt 0.886719 0.761719
vt 0.886719 0.862305
vt 0.987305 0.761719
vt 0.886719 0.761719
vt 0.886719 0.862305
vt 0.987305 0.761719
vt 0.822266 0.022461
vt 0.022461 0.822266
vt 0.022461 0.022461
vn -1.0000 0.0000 0.0000
vn 0.0000 0.0000 -1.0000
vn 0.7071 0.7071 0.0000
vn 0.0000 -0.0000 1.0000
vn 0.0000 -1.0000 -0.0000
s 1
f 1/1/1 2/2/1 3/3/1
f 3/4/1 4/5/1 1/6/1
f 4/5/2 5/7/2 1/1/2
f 4/8/3 3/9/3 5/10/3
f 6/11/3 5/12/3 3/13/3
f 3/3/4 2/2/4 6/14/4
f 6/15/5 2/2/5 1/1/5
f 6/16/5 1/1/5 5/7/5
