# Blender v2.83.0 OBJ File: 'GSO_Parts.blend'
# www.blender.org
o GSO_Face_V
v -0.500000 -0.500000 -0.500000
v -0.500000 -0.500000 0.500000
v -0.500000 0.500000 0.500000
v -0.500000 0.500000 -0.500000
v -0.500000 -0.132023 0.500000
v -0.500000 -0.132023 -0.500000
v -0.500000 0.132024 0.500000
v -0.500000 0.132024 -0.500000
vt 0.225560 0.046933
vt 0.556739 0.046933
vt 0.556739 0.946933
vt 0.225560 0.946933
vt 0.556739 0.046933
vt 0.556739 0.946933
vt 0.225560 0.946933
vt 0.225560 0.046933
vt 0.920583 0.396797
vt 0.920583 0.696797
vt 0.841369 0.696797
vt 0.841369 0.396797
vn -1.0000 -0.0000 0.0000
s 1
f 7/1/1 3/2/1 4/3/1 8/4/1
f 5/5/1 6/6/1 1/7/1 2/8/1
f 7/9/1 8/10/1 6/11/1 5/12/1
