# Blender v2.83.0 OBJ File: 'GSO_Parts.blend'
# www.blender.org
o GSO_Corner
v -0.300000 -0.411111 -0.477778
v -0.361728 -0.398765 -0.477778
v -0.300000 -0.300000 -0.500001
v -0.398766 -0.361728 -0.477778
v -0.411111 -0.300000 -0.477778
v -0.458025 -0.398765 -0.411112
v -0.398766 -0.458025 -0.411112
v -0.477778 -0.300000 -0.411112
v -0.300000 -0.477778 -0.411112
v -0.300000 -0.500000 -0.300001
v -0.411111 -0.477778 -0.300001
v -0.477778 -0.411111 -0.300001
v -0.500000 -0.300000 -0.300001
v -0.500000 0.000000 -0.300001
v -0.300000 0.000000 -0.500001
v -0.411111 0.000000 -0.477778
v -0.477778 0.000000 -0.411112
v -0.000000 -0.500000 -0.300001
v -0.000000 -0.300000 -0.500001
v 0.000000 0.000000 -0.500001
v -0.000000 -0.477778 -0.411112
v -0.000000 -0.411111 -0.477778
v -0.300000 -0.500000 0.000000
v -0.477778 -0.411111 0.000000
v -0.411111 -0.477778 0.000000
v -0.500000 -0.300000 0.000000
v -0.000000 -0.500000 0.000000
v -0.500000 0.000000 0.000000
vt 0.070299 0.273451
vt 0.042645 0.411722
vt 0.135978 0.411722
vt 0.153262 0.325302
vt 0.291533 0.256167
vt 0.205113 0.273450
vt 0.291533 0.411722
vt 0.153261 0.190488
vt 0.291533 0.411721
vt 0.291533 0.831722
vt 0.711532 0.831722
vt 0.711532 0.411721
vt 0.205113 0.162833
vt 0.291533 0.162833
vt 0.291533 0.256166
vt 0.153261 0.256166
vt 0.291533 0.411721
vt 0.135978 0.411721
vt 0.153262 0.256166
vt 0.070299 0.256166
vt 0.042644 0.411721
vt 0.135978 0.411721
vt 0.711532 0.411722
vt 0.711532 0.256167
vt 0.291533 0.256166
vt 0.291533 0.831722
vt 0.135977 0.831722
vt 0.291533 0.831721
vt 0.711532 0.831721
vt 0.711532 0.162834
vt 0.291533 0.162834
vt 0.711532 0.256166
vt 0.135978 0.831721
vt 0.042645 0.831721
vt 0.711532 0.256166
vt 0.711532 0.411721
vt 0.135978 0.831722
vt 0.042644 0.831722
vt 0.711532 0.831722
vn -0.7700 -0.4107 -0.4883
vn -0.8780 -0.0871 -0.4707
vn -0.4707 -0.0469 -0.8810
vn -0.4025 -0.2135 -0.8901
vn -0.0469 -0.4707 -0.8810
vn -0.2135 -0.4025 -0.8901
vn -0.0952 -0.0952 -0.9909
vn -0.4107 -0.7700 -0.4883
vn -0.9903 -0.0980 -0.0980
vn -0.9951 -0.0985 -0.0000
vn -1.0000 0.0000 -0.0000
vn -0.9951 0.0000 -0.0985
vn -0.0871 -0.8780 -0.4707
vn -0.0982 -0.9903 -0.0982
vn -0.4693 -0.8770 -0.1030
vn -0.8770 -0.4693 -0.1030
vn 0.0000 -0.0985 -0.9951
vn 0.0000 -0.4719 -0.8817
vn -0.0985 -0.9951 -0.0000
vn -0.4719 -0.8817 -0.0000
vn -0.0985 0.0000 -0.9951
vn 0.0000 0.0000 -1.0000
vn 0.0000 -0.8817 -0.4719
vn -0.8817 0.0000 -0.4719
vn -0.4719 0.0000 -0.8817
vn 0.0000 -0.9951 -0.0985
vn -0.8817 -0.4719 -0.0000
vn 0.0000 -1.0000 -0.0000
s 1
f 6/1/1 8/2/2 5/3/3 4/4/4
f 1/5/5 2/6/6 3/7/7
f 2/6/6 4/4/4 3/7/7
f 4/4/4 5/3/3 3/7/7
f 7/8/8 6/1/1 4/4/4 2/6/6
f 13/9/9 26/10/10 28/11/11 14/12/12
f 2/13/6 1/14/5 9/15/13 7/16/8
f 7/16/8 9/15/13 10/17/14 11/18/15
f 6/19/1 7/20/8 11/21/15 12/22/16
f 3/7/7 19/23/17 22/24/18 1/5/5
f 8/25/2 6/19/1 12/22/16 13/9/9
f 10/17/14 23/26/19 25/27/20 11/18/15
f 3/7/7 15/28/21 20/29/22 19/23/17
f 1/5/5 22/24/18 21/30/23 9/31/13
f 14/12/12 17/32/24 8/25/2 13/9/9
f 16/33/25 15/28/21 3/7/7 5/3/3
f 17/34/24 16/33/25 5/3/3 8/2/2
f 21/35/23 18/36/26 10/17/14 9/15/13
f 24/37/27 26/10/10 13/9/9 12/22/16
f 25/38/20 24/37/27 12/22/16 11/21/15
f 27/39/28 23/26/19 10/17/14 18/36/26
