# Blender v2.83.0 OBJ File: 'GSO_Parts.blend'
# www.blender.org
o GSO_Edge_V
v -0.500000 -0.500000 -0.300000
v -0.411111 -0.500000 -0.477778
v -0.477778 -0.500000 -0.411111
v -0.300000 -0.500000 -0.500000
v -0.500000 -0.500000 -0.000000
v -0.000000 -0.500000 -0.500000
v -0.500000 0.500000 -0.300000
v -0.500000 0.500000 -0.000000
v -0.477778 0.500000 -0.411112
v -0.411111 0.500000 -0.477778
v -0.300000 0.500000 -0.500000
v -0.000000 0.500000 -0.500000
v -0.500000 -0.132023 -0.000000
v -0.500000 -0.132023 -0.300000
v -0.300000 -0.132023 -0.500000
v -0.477778 -0.132023 -0.411111
v -0.411111 -0.132023 -0.477778
v -0.000000 -0.132023 -0.500000
v -0.000000 0.132024 -0.500000
v -0.500000 0.132024 -0.000000
v -0.500000 0.132023 -0.300000
v -0.300000 0.132024 -0.500000
v -0.477778 0.132024 -0.411111
v -0.411111 0.132024 -0.477778
vt 0.787266 0.511508
vt 0.787266 0.433730
vt 0.972099 0.433730
vt 0.972099 0.511508
vt 0.787266 0.387064
vt 0.787266 0.433730
vt 0.972099 0.433730
vt 0.972099 0.387064
vt 0.787266 0.511508
vt 0.972099 0.511508
vt 0.221896 0.334779
vt 0.333007 0.334779
vt 0.333007 0.702756
vt 0.221896 0.702756
vt 0.633007 0.334779
vt 0.333007 0.334779
vt 0.333007 0.702756
vt 0.633007 0.702756
vt 0.787266 0.721508
vt 0.972099 0.721508
vt 0.633007 0.702756
vt 0.333007 0.702756
vt 0.333007 0.334779
vt 0.633007 0.334779
vt 0.221896 0.702755
vt 0.333007 0.702755
vt 0.333007 0.334779
vt 0.221896 0.334779
vt 0.155230 0.702755
vt 0.155230 0.334779
vt 0.221896 0.334779
vt 0.221896 0.702755
vt 0.633007 0.702756
vt 0.633007 0.334779
vt 0.155230 0.702756
vt 0.221896 0.702756
vt 0.221896 0.334779
vt 0.155230 0.334779
vt 0.633007 0.334779
vt 0.633007 0.702755
vt 0.787266 0.721508
vt 0.972099 0.721508
vn -0.9951 -0.0000 -0.0985
vn -0.8817 -0.0000 -0.4719
vn -0.4719 -0.0000 -0.8817
vn -0.0985 -0.0000 -0.9951
vn 0.0000 -0.0000 -1.0000
vn -1.0000 -0.0000 0.0000
s 1
f 21/1/1 23/2/2 16/3/2 14/4/1
f 23/5/2 24/6/3 17/7/3 16/8/2
f 24/6/3 22/9/4 15/10/4 17/7/3
f 3/11/2 1/12/1 14/13/1 16/14/2
f 6/15/5 4/16/4 15/17/4 18/18/5
f 19/19/5 18/20/5 15/10/4 22/9/4
f 8/21/6 7/22/1 21/23/1 20/24/6
f 10/25/3 11/26/4 22/27/4 24/28/3
f 9/29/2 10/25/3 24/28/3 23/30/2
f 23/31/2 21/23/1 7/22/1 9/32/2
f 13/33/6 14/13/1 1/12/1 5/34/6
f 16/35/2 17/36/3 2/37/3 3/38/2
f 17/36/3 15/17/4 4/16/4 2/37/3
f 19/39/5 22/27/4 11/26/4 12/40/5
f 20/41/6 21/1/1 14/4/1 13/42/6
