# Blender v3.1.0 Alpha OBJ File: 'GSO_Parts.blend'
# www.blender.org
o GSO_Edge_V
v -0.500000 -0.500000 -0.300000
v -0.411111 -0.500000 -0.477778
v -0.477778 -0.500000 -0.411111
v -0.300000 -0.500000 -0.500000
v -0.500000 -0.500000 -0.000000
v -0.000000 -0.500000 -0.500000
v -0.500000 0.500000 -0.300000
v -0.500000 0.500000 -0.000000
v -0.477778 0.500000 -0.411112
v -0.411111 0.500000 -0.477778
v -0.300000 0.500000 -0.500000
v -0.000000 0.500000 -0.500000
v -0.500000 -0.132023 -0.000000
v -0.500000 -0.132023 -0.300000
v -0.300000 -0.132023 -0.500000
v -0.477778 -0.132023 -0.411111
v -0.411111 -0.132023 -0.477778
v -0.000000 -0.132023 -0.500000
v -0.000000 0.132024 -0.500000
v -0.500000 0.132024 -0.000000
v -0.500000 0.132023 -0.300000
v -0.300000 0.132024 -0.500000
v -0.477778 0.132024 -0.411111
v -0.411111 0.132024 -0.477778
vt 0.890983 0.756330
vt 0.983399 0.717441
vt 0.983399 0.756330
vt 0.890983 0.717441
vt 0.983399 0.694108
vt 0.890983 0.694108
vt 0.983399 0.756330
vt 0.983399 0.717441
vt 0.087131 0.020326
vt 0.198242 0.388303
vt 0.087131 0.388303
vt 0.498242 0.020326
vt 0.198242 0.388303
vt 0.498242 0.388303
vt 0.983399 0.861330
vt 0.890983 0.756330
vt 0.890983 0.861330
vt 0.198242 0.388302
vt 0.498242 0.020326
vt 0.498242 0.388302
vt 0.198242 0.388302
vt 0.087131 0.020326
vt 0.087131 0.388302
vt 0.020464 0.388302
vt 0.020464 0.020326
vt 0.198242 0.020326
vt 0.087130 0.388302
vt 0.087131 0.020326
vt 0.498242 0.388303
vt 0.198242 0.020326
vt 0.498242 0.020326
vt 0.020464 0.388303
vt 0.087131 0.020326
vt 0.020464 0.020326
vt 0.087131 0.388303
vt 0.198242 0.020326
vt 0.498242 0.020326
vt 0.498242 0.388302
vt 0.890983 0.861330
vt 0.983399 0.861330
vt 0.890983 0.717441
vt 0.198242 0.020326
vn -0.9951 -0.0000 -0.0985
vn -0.8817 -0.0000 -0.4719
vn -0.4719 -0.0000 -0.8817
vn -0.0985 -0.0000 -0.9951
vn 0.0000 -0.0000 -1.0000
vn -1.0000 -0.0000 0.0000
s 1
f 21/1/1 16/2/2 14/3/1
f 24/4/3 16/5/2 23/6/2
f 24/4/3 15/7/4 17/8/3
f 3/9/2 14/10/1 16/11/2
f 6/12/5 15/13/4 18/14/5
f 18/15/5 22/16/4 19/17/5
f 7/18/1 20/19/6 8/20/6
f 11/21/4 24/22/3 10/23/3
f 9/24/2 24/22/3 23/25/2
f 21/26/1 9/27/2 23/28/2
f 13/29/6 1/30/1 5/31/6
f 16/32/2 2/33/3 3/34/2
f 17/35/3 4/36/4 2/33/3
f 19/37/5 11/21/4 12/38/5
f 20/39/6 14/3/1 13/40/6
f 21/1/1 23/41/2 16/2/2
f 24/4/3 17/8/3 16/5/2
f 24/4/3 22/16/4 15/7/4
f 3/9/2 1/30/1 14/10/1
f 6/12/5 4/36/4 15/13/4
f 18/15/5 15/7/4 22/16/4
f 7/18/1 21/26/1 20/19/6
f 11/21/4 22/42/4 24/22/3
f 9/24/2 10/23/3 24/22/3
f 21/26/1 7/18/1 9/27/2
f 13/29/6 14/10/1 1/30/1
f 16/32/2 17/35/3 2/33/3
f 17/35/3 15/13/4 4/36/4
f 19/37/5 22/42/4 11/21/4
f 20/39/6 21/1/1 14/3/1
