# Blender v2.83.0 OBJ File: 'GC_Parts.blend'
# www.blender.org
o AP
v 0.000000 -0.600000 -0.000000
v -0.132024 -0.500000 -0.132023
v -0.132024 -0.500000 0.132022
v 0.132024 -0.500000 -0.132023
v 0.132024 -0.500000 0.132022
vt 0.989059 0.776794
vt 0.881621 0.884231
vt 0.989059 0.991669
vt 0.774182 0.991669
vt 0.774182 0.776794
vn -0.6038 -0.7971 0.0000
vn 0.0000 -0.7971 0.6038
vn 0.6038 -0.7971 0.0000
vn 0.0000 -0.7971 -0.6038
s 1
f 2/1/1 1/2/1 3/3/1
f 3/3/2 1/2/2 5/4/2
f 1/2/3 4/5/3 5/4/3
f 1/2/4 2/1/4 4/5/4
