# Blender v3.1.0 Alpha OBJ File: 'GSO_Parts.blend'
# www.blender.org
o GSO_Edge_V
v -0.500000 -0.500000 -0.300000
v -0.411111 -0.500000 -0.477778
v -0.477778 -0.500000 -0.411111
v -0.300000 -0.500000 -0.500000
v -0.500000 -0.500000 -0.000000
v -0.000000 -0.500000 -0.500000
v -0.500000 0.500000 -0.300000
v -0.500000 0.500000 -0.000000
v -0.477778 0.500000 -0.411112
v -0.411111 0.500000 -0.477778
v -0.300000 0.500000 -0.500000
v -0.000000 0.500000 -0.500000
v -0.500000 -0.367977 -0.000000
v -0.500000 -0.367977 -0.300000
v -0.300000 -0.367977 -0.500000
v -0.477778 -0.367977 -0.411111
v -0.411111 -0.367977 -0.477778
v -0.000000 -0.367976 -0.500000
v -0.000000 0.367977 -0.500000
v -0.500000 0.367976 -0.000000
v -0.500000 0.367976 -0.300000
v -0.300000 0.367977 -0.500000
v -0.477778 0.367977 -0.411111
v -0.411111 0.367977 -0.477778
vt 0.024195 0.263630
vt 0.381292 0.113363
vt 0.381292 0.263630
vt 0.024195 0.023203
vt 0.381292 0.113363
vt 0.381292 0.023203
vt 0.024195 0.113363
vt 0.381291 0.263630
vt 0.888184 0.843208
vt 0.988273 0.812986
vt 0.988273 0.843209
vt 0.888184 0.731386
vt 0.988273 0.812986
vt 0.988273 0.731386
vt 0.381291 0.669350
vt 0.024195 0.263630
vt 0.024194 0.669350
vt 0.988273 0.812986
vt 0.888184 0.731386
vt 0.988273 0.731386
vt 0.988273 0.812986
vt 0.888184 0.843209
vt 0.988273 0.843209
vt 0.888184 0.861342
vt 0.988273 0.861342
vt 0.888184 0.843209
vt 0.988273 0.843209
vt 0.988273 0.731386
vt 0.888184 0.812986
vt 0.888184 0.731386
vt 0.988273 0.843209
vt 0.888184 0.861342
vt 0.988273 0.861342
vt 0.888184 0.812986
vt 0.888184 0.843209
vt 0.888184 0.731386
vt 0.988273 0.731386
vt 0.381292 0.669350
vt 0.024195 0.669350
vt 0.024195 0.113363
vt 0.888184 0.812986
vt 0.888184 0.812986
vn -0.9951 -0.0000 -0.0985
vn -0.8817 -0.0000 -0.4719
vn -0.4719 -0.0000 -0.8817
vn -0.0985 -0.0000 -0.9951
vn 0.0000 -0.0000 -1.0000
vn -1.0000 -0.0000 0.0000
s 1
f 21/1/1 16/2/2 14/3/1
f 23/4/2 17/5/3 16/6/2
f 24/7/3 15/8/4 17/5/3
f 3/9/2 14/10/1 16/11/2
f 6/12/5 15/13/4 18/14/5
f 18/15/5 22/16/4 19/17/5
f 7/18/1 20/19/6 8/20/6
f 11/21/4 24/22/3 10/23/3
f 10/23/3 23/24/2 9/25/2
f 23/26/2 7/18/1 9/27/2
f 13/28/6 1/29/1 5/30/6
f 17/31/3 3/32/2 16/33/2
f 17/31/3 4/34/4 2/35/3
f 19/36/5 11/21/4 12/37/5
f 21/1/1 13/38/6 20/39/6
f 21/1/1 23/40/2 16/2/2
f 23/4/2 24/7/3 17/5/3
f 24/7/3 22/16/4 15/8/4
f 3/9/2 1/29/1 14/10/1
f 6/12/5 4/34/4 15/13/4
f 18/15/5 15/8/4 22/16/4
f 7/18/1 21/41/1 20/19/6
f 11/21/4 22/42/4 24/22/3
f 10/23/3 24/22/3 23/24/2
f 23/26/2 21/41/1 7/18/1
f 13/28/6 14/10/1 1/29/1
f 17/31/3 2/35/3 3/32/2
f 17/31/3 15/13/4 4/34/4
f 19/36/5 22/42/4 11/21/4
f 21/1/1 14/3/1 13/38/6
