# Blender v3.1.0 Alpha OBJ File: 'GSO_Parts.blend'
# www.blender.org
o GSO_Edge
v -0.300000 -0.500000 -0.500000
v -0.477778 -0.411111 -0.500000
v -0.411111 -0.477778 -0.500000
v -0.500000 -0.300000 -0.500000
v -0.000000 -0.500000 -0.500000
v -0.500000 0.000000 -0.500000
v -0.300000 -0.500000 0.500000
v -0.000000 -0.500000 0.500000
v -0.411112 -0.477778 0.500000
v -0.477778 -0.411111 0.500000
v -0.500000 -0.300000 0.500000
v -0.500000 -0.000000 0.500000
v -0.500000 -0.132023 -0.500000
v -0.500000 -0.132023 0.500000
vt 0.141236 0.028750
vt 0.071236 0.658750
vt 0.071236 0.028750
vt 0.141236 0.028750
vt 0.235736 0.658750
vt 0.235736 0.028750
vt 0.141236 0.658750
vt 0.330236 0.028750
vt 0.330236 0.658750
vt 0.141236 0.658750
vt 0.071236 0.028750
vt 0.071236 0.658750
vt 0.029236 0.028750
vt 0.029236 0.658750
vt 0.960152 0.563886
vt 0.916952 0.851886
vt 0.960152 0.851886
vt 0.916952 0.563886
vn -0.0985 -0.9951 -0.0000
vn -0.4719 -0.8817 -0.0000
vn -0.9951 -0.0985 -0.0000
vn -1.0000 -0.0000 -0.0000
vn 0.0000 -1.0000 -0.0000
vn -0.8817 -0.4719 -0.0000
s 1
f 1/1/1 9/2/2 3/3/2
f 4/4/3 14/5/4 13/6/4
f 7/7/1 5/8/5 8/9/5
f 11/10/3 2/11/6 10/12/6
f 10/12/6 3/13/2 9/14/2
f 6/15/4 14/16/4 12/17/4
f 1/1/1 7/7/1 9/2/2
f 4/4/3 11/10/3 14/5/4
f 7/7/1 1/1/1 5/8/5
f 11/10/3 4/4/3 2/11/6
f 10/12/6 2/11/6 3/13/2
f 6/15/4 13/18/4 14/16/4
