# Blender v2.83.0 OBJ File: 'GSO_Parts.blend'
# www.blender.org
o GSO_Face_V
v -0.500000 -0.367977 -0.500000
v -0.500000 -0.367977 0.500000
v -0.500000 -0.500000 -0.500000
v -0.500000 0.367977 0.500000
v -0.500000 0.367976 -0.500000
v -0.500000 0.500000 0.500000
v -0.500000 0.500000 -0.500000
v -0.500000 -0.500000 0.500000
vt 0.225560 0.046933
vt 0.556739 0.046933
vt 0.556739 0.946933
vt 0.225560 0.946933
vt 0.895609 0.715377
vt 0.852737 0.715377
vt 0.852737 0.390647
vt 0.895609 0.390647
vt 0.852737 0.390647
vt 0.895609 0.390647
vt 0.895609 0.715377
vt 0.852737 0.715377
vn -1.0000 -0.0000 0.0000
s 1
f 2/1/1 4/2/1 5/3/1 1/4/1
f 7/5/1 5/6/1 4/7/1 6/8/1
f 8/9/1 2/10/1 1/11/1 3/12/1
