# Blender v3.1.0 Alpha OBJ File: 'GC_Parts.blend'
# www.blender.org
o GC_Edge
v -0.500002 -0.420000 -0.310001
v -0.460001 -0.460000 -0.280001
v -0.500001 -0.420000 -0.100001
v -0.460001 -0.460000 -0.120001
v -0.460001 -0.460000 0.280000
v -0.500001 -0.420000 0.310000
v -0.500002 -0.420000 0.099999
v -0.460002 -0.460000 0.119999
v -0.500002 0.000000 -0.310001
v -0.460001 0.000000 -0.280001
v -0.460001 0.000000 -0.120001
v -0.500001 0.000000 -0.100001
v -0.500002 0.000000 0.099999
v -0.460001 0.000000 0.280000
v -0.460002 0.000000 0.119999
v -0.500001 0.000000 0.309999
v -0.420002 -0.500000 -0.500000
v -0.500002 0.000000 -0.500000
v -0.500002 -0.420000 -0.500000
v -0.000000 -0.500000 -0.500000
v -0.500001 0.000000 0.500000
v -0.500001 -0.420000 0.500000
v -0.420001 -0.500000 0.500000
v -0.000000 -0.500000 0.500000
vt 0.071025 0.194088
vt 0.424871 0.194088
vt 0.394102 0.232550
vt 0.101794 0.159687
vt 0.071025 0.194088
vt 0.424871 0.194088
vt 0.381357 0.490458
vt 0.027511 0.490458
vt 0.027511 0.613535
vt 0.101794 0.159687
vt 0.424871 0.159687
vt 0.424871 0.194088
vt 0.394102 0.232550
vt 0.424871 0.194088
vt 0.071025 0.194088
vt 0.027511 0.613535
vt 0.381357 0.613535
vt 0.381357 0.490458
vt 0.337843 0.013534
vt 0.381357 0.305843
vt 0.381357 0.490458
vt 0.101795 0.159689
vt 0.101795 0.013534
vt 0.424871 0.013534
vt 0.101795 0.475073
vt 0.424871 0.475073
vt 0.424871 0.321227
vt 0.101795 0.013534
vt 0.424871 0.013534
vt 0.424871 0.159688
vt 0.337842 0.782765
vt 0.337843 0.013534
vt 0.014765 0.013534
vt 0.071025 0.232550
vt 0.424871 0.159687
vt 0.381357 0.613535
vt 0.071025 0.194088
vt 0.071025 0.232550
vt 0.027511 0.490458
vt 0.381357 0.182765
vt 0.424872 0.159689
vt 0.424872 0.013534
vt 0.337843 0.782765
vt 0.424872 0.636612
vt 0.424871 0.782765
vt 0.381357 0.613535
vt 0.424872 0.159689
vt 0.101794 0.321227
vt 0.101795 0.159688
vt 0.014765 0.782765
vn -0.6000 -0.0000 -0.8000
vn -0.4472 -0.0000 0.8944
vn -1.0000 -0.0000 0.0000
vn -0.4472 -0.0000 -0.8944
vn -0.6000 -0.0000 0.8000
vn -0.7071 -0.7071 0.0000
vn -0.0000 -1.0000 0.0000
s 1
f 14/1/1 5/2/1 6/3/1
f 7/4/2 8/5/2 15/6/2
f 15/7/3 8/8/3 5/9/3
f 3/10/4 12/11/4 11/12/4
f 1/13/5 2/14/5 10/15/5
f 4/16/3 11/17/3 10/18/3
f 23/19/6 8/20/6 4/21/6
f 21/22/3 16/23/3 6/24/3
f 12/25/3 3/26/3 7/27/3
f 18/28/3 19/29/3 1/30/3
f 23/31/7 17/32/7 20/33/7
f 14/1/1 6/3/1 16/34/1
f 7/4/2 15/6/2 13/35/2
f 15/7/3 5/9/3 14/36/3
f 3/10/4 11/12/4 4/37/4
f 1/13/5 10/15/5 9/38/5
f 4/16/3 10/18/3 2/39/3
f 5/40/6 23/19/6 6/41/6
f 6/41/6 23/19/6 22/42/6
f 17/43/6 1/44/6 19/45/6
f 17/43/6 2/46/6 1/44/6
f 3/26/6 8/20/6 7/27/6
f 8/20/6 23/19/6 5/40/6
f 23/19/6 4/21/6 17/43/6
f 17/43/6 4/21/6 2/46/6
f 4/21/6 8/20/6 3/26/6
f 21/22/3 6/24/3 22/47/3
f 12/25/3 7/27/3 13/48/3
f 18/28/3 1/30/3 9/49/3
f 23/31/7 20/33/7 24/50/7
