# Blender v2.83.0 OBJ File: 'GC_Parts.blend'
# www.blender.org
o GC_Edge_V
v -0.500001 -0.500000 0.000000
v 0.000000 -0.500000 -0.500002
v -0.500001 -0.500000 -0.420002
v -0.420001 -0.500000 -0.500002
v -0.000000 0.500000 -0.500002
v -0.500001 0.500000 0.000000
v -0.420001 0.500000 -0.500002
v -0.500001 0.500000 -0.420002
vt 0.004883 0.995116
vt 0.196563 0.995116
vt 0.196563 0.538738
vt 0.661962 0.942548
vt 0.004883 0.942548
vt 0.004883 0.995115
vt 0.196562 0.995116
vt 0.196562 0.538738
vt 0.004883 0.538738
vt 0.661962 0.995115
vt 0.004883 0.538738
vn -1.0000 0.0000 0.0000
vn -0.7071 0.0000 -0.7071
vn 0.0000 0.0000 -1.0000
s 1
f 3/1/1 1/2/1 6/3/1
f 3/4/2 8/5/2 7/6/2
f 7/6/3 5/7/3 2/8/3
f 3/1/1 6/3/1 8/9/1
f 3/4/2 7/6/2 4/10/2
f 7/6/3 2/8/3 4/11/3
