# Blender v3.1.0 Alpha OBJ File: 'GC_Parts.blend'
# www.blender.org
o GC_Edge_V
v -0.500001 -0.500000 0.000000
v 0.000000 -0.500000 -0.500002
v -0.500001 -0.500000 -0.420002
v -0.420001 -0.500000 -0.500002
v -0.000000 0.500000 -0.500002
v -0.500001 0.500000 0.000000
v -0.420001 0.500000 -0.500002
v -0.500001 0.500000 -0.420002
vt 0.017824 0.534426
vt 0.234845 0.534426
vt 0.234845 0.017711
vt 0.076283 0.534426
vt 0.076283 0.017711
vt 0.017824 0.017711
vt 0.234844 0.017711
vt 0.017824 0.017711
vt 0.017824 0.534426
vt 0.017824 0.017711
vt 0.017824 0.534426
vt 0.234844 0.534426
vn -1.0000 0.0000 0.0000
vn -0.7071 0.0000 -0.7071
vn 0.0000 0.0000 -1.0000
s 1
f 3/1/1 1/2/1 6/3/1
f 3/4/2 8/5/2 7/6/2
f 7/7/3 5/8/3 2/9/3
f 3/1/1 6/3/1 8/10/1
f 3/4/2 7/6/2 4/11/2
f 7/7/3 2/9/3 4/12/3
