# Blender v3.1.0 Alpha OBJ File: 'GC_Parts.blend'
# www.blender.org
o GC_Face_V
v -0.500002 0.500000 -0.310001
v -0.460001 0.500000 -0.280001
v -0.460001 0.500000 -0.120001
v -0.500001 0.500000 -0.100001
v -0.460002 0.500000 0.119999
v -0.500002 0.500000 0.099999
v -0.460001 0.500000 0.279999
v -0.500001 0.500000 0.309999
v -0.500002 -0.500000 -0.310001
v -0.500002 -0.500000 -0.100001
v -0.460002 -0.500000 -0.280001
v -0.460002 -0.500000 -0.120001
v -0.500002 -0.500000 0.099999
v -0.460002 -0.500000 0.119999
v -0.460002 -0.500000 0.279999
v -0.500002 -0.500000 0.309999
v -0.500002 -0.500000 -0.500000
v -0.500002 0.500000 -0.500000
v -0.500002 -0.500000 0.500000
v -0.500001 0.500000 0.500000
vt 0.018178 0.496921
vt 0.109116 0.018298
vt 0.109116 0.496921
vt 0.391504 0.496921
vt 0.405862 0.018298
vt 0.405862 0.496921
vt 0.314924 0.496921
vt 0.305351 0.018298
vt 0.314924 0.018298
vt 0.200054 0.496921
vt 0.209627 0.018298
vt 0.209627 0.496921
vt 0.123474 0.496921
vt 0.200054 0.018298
vt 0.123474 0.018298
vt 0.391504 0.018298
vt 0.496801 0.018298
vt 0.018178 0.018298
vt 0.305351 0.496921
vt 0.496801 0.496921
vn -1.0000 0.0000 -0.0000
vn -0.6000 0.0000 -0.8000
vn -0.4472 0.0000 0.8944
vn -0.4472 0.0000 -0.8944
vn -0.6000 0.0000 0.8000
s 1
f 18/1/1 9/2/1 1/3/1
f 7/4/2 16/5/2 8/6/2
f 5/7/3 13/8/3 14/9/3
f 3/10/4 10/11/4 4/12/4
f 2/13/1 12/14/1 3/10/1
f 1/3/5 11/15/5 2/13/5
f 5/7/1 15/16/1 7/4/1
f 19/17/1 8/6/1 16/5/1
f 13/8/1 4/12/1 10/11/1
f 18/1/1 17/18/1 9/2/1
f 7/4/2 15/16/2 16/5/2
f 5/7/3 6/19/3 13/8/3
f 3/10/4 12/14/4 10/11/4
f 2/13/1 11/15/1 12/14/1
f 1/3/5 9/2/5 11/15/5
f 5/7/1 14/9/1 15/16/1
f 19/17/1 20/20/1 8/6/1
f 13/8/1 6/19/1 4/12/1
